<?xml version="1.0" encoding="utf-8"?>
<!-- Generator: Adobe Illustrator 21.0.2, SVG Export Plug-In . SVG Version: 6.00 Build 0)  -->
<svg version="1.1" id="Layer_1" xmlns="http://www.w3.org/2000/svg" xmlns:xlink="http://www.w3.org/1999/xlink" x="0px" y="0px"
	 viewBox="0 0 24 24" style="enable-background:new 0 0 24 24;" xml:space="preserve">
<style type="text/css">
	.st0{fill:#FFFFFF;}
</style>
<g>
	<path class="st0" d="M18.9,0.7H5.1c-1.7,0-3.1,1.4-3.1,3.1v16.4c0,1.7,1.4,3.1,3.1,3.1h8.3c0.5,0,0.9-0.2,1.3-0.5l6.8-6.2
		c0.4-0.4,0.6-0.9,0.6-1.4V3.8C22.1,2.1,20.7,0.7,18.9,0.7z M14.5,21.3v-3c0-1,0.8-1.9,1.9-1.9h3.4L14.5,21.3z M20.8,15.1h-4.4
		c-1.7,0-3.1,1.4-3.1,3.1v3.8H5.1c-1,0-1.9-0.8-1.9-1.9V3.8c0-1,0.8-1.9,1.9-1.9h13.8c1,0,1.9,0.8,1.9,1.9
		C20.8,3.8,20.8,15.1,20.8,15.1z"/>
	<rect x="5.7" y="5.1" class="st0" width="10.1" height="1.3"/>
	<rect x="5.7" y="18.3" class="st0" width="5" height="1.3"/>
	<rect x="5.7" y="13.9" class="st0" width="7.5" height="1.3"/>
	<rect x="5.7" y="9.5" class="st0" width="12.6" height="1.3"/>
</g>
</svg>
