<?xml version="1.0" encoding="utf-8"?>
<!-- Generator: Adobe Illustrator 21.0.2, SVG Export Plug-In . SVG Version: 6.00 Build 0)  -->
<svg version="1.1" id="Layer_1" xmlns="http://www.w3.org/2000/svg" xmlns:xlink="http://www.w3.org/1999/xlink" x="0px" y="0px"
	 viewBox="0 0 100 100" style="enable-background:new 0 0 100 100;" xml:space="preserve">
<style type="text/css">
	.st0{fill:#FFFFFF;}
</style>
<path class="st0" d="M86,63V39 M86,63V39 M10,63V39 M90,63V39 M63,62H37c-1.1,0-2,0.9-2,2s0.9,2,2,2h26c1.1,0,2-0.9,2-2
	S64.1,62,63,62z M63,72H37c-1.1,0-2,0.9-2,2s0.9,2,2,2h26c1.1,0,2-0.9,2-2S64.1,72,63,72z M63,62H37c-1.1,0-2,0.9-2,2s0.9,2,2,2h26
	c1.1,0,2-0.9,2-2S64.1,62,63,62z M63,72H37c-1.1,0-2,0.9-2,2s0.9,2,2,2h26c1.1,0,2-0.9,2-2S64.1,72,63,72z M63,72H37
	c-1.1,0-2,0.9-2,2s0.9,2,2,2h26c1.1,0,2-0.9,2-2S64.1,72,63,72z M63,62H37c-1.1,0-2,0.9-2,2s0.9,2,2,2h26c1.1,0,2-0.9,2-2
	S64.1,62,63,62z M37,66h26c1.1,0,2-0.9,2-2s-0.9-2-2-2H37c-1.1,0-2,0.9-2,2S35.9,66,37,66z M63,72H37c-1.1,0-2,0.9-2,2s0.9,2,2,2h26
	c1.1,0,2-0.9,2-2S64.1,72,63,72z M82,31h-7V17c0-1.1-0.9-2-2-2H27c-1.1,0-2,0.9-2,2v14h-7c-4.4,0-8,3.6-8,8v24c0,4.4,3.6,8,8,8h7v12
	c0,1.1,0.9,2,2,2h46c1.1,0,2-0.9,2-2V71h7c4.4,0,8-3.6,8-8V39C90,34.6,86.4,31,82,31z M29,19h42v12H29V19z M71,81H29V57h42V81z
	 M86,63c0,2.2-1.8,4-4,4h-7V55c0-1.1-0.9-2-2-2H27c-1.1,0-2,0.9-2,2v12h-7c-2.2,0-4-1.8-4-4V39c0-2.2,1.8-4,4-4h64c2.2,0,4,1.8,4,4
	V63z M37,66h26c1.1,0,2-0.9,2-2s-0.9-2-2-2H37c-1.1,0-2,0.9-2,2S35.9,66,37,66z M37,76h26c1.1,0,2-0.9,2-2s-0.9-2-2-2H37
	c-1.1,0-2,0.9-2,2S35.9,76,37,76z M63,72H37c-1.1,0-2,0.9-2,2s0.9,2,2,2h26c1.1,0,2-0.9,2-2S64.1,72,63,72z M63,62H37
	c-1.1,0-2,0.9-2,2s0.9,2,2,2h26c1.1,0,2-0.9,2-2S64.1,62,63,62z M63,62H37c-1.1,0-2,0.9-2,2s0.9,2,2,2h26c1.1,0,2-0.9,2-2
	S64.1,62,63,62z M63,72H37c-1.1,0-2,0.9-2,2s0.9,2,2,2h26c1.1,0,2-0.9,2-2S64.1,72,63,72z"/>
</svg>
