<?xml version="1.0" encoding="utf-8"?>
<!-- Generator: Adobe Illustrator 19.0.0, SVG Export Plug-In . SVG Version: 6.00 Build 0)  -->
<!DOCTYPE svg PUBLIC "-//W3C//DTD SVG 1.1//EN" "http://www.w3.org/Graphics/SVG/1.1/DTD/svg11.dtd">
<svg version="1.1" id="Isolation_Mode" xmlns="http://www.w3.org/2000/svg" xmlns:xlink="http://www.w3.org/1999/xlink" x="0px"
	 y="0px" viewBox="0 0 19.8 19.2" enable-background="new 0 0 19.8 19.2" xml:space="preserve">
<path fill="#1E83DC" d="M15.8,4.5c-0.5-0.2-1-0.2-1.5-0.2c0.1,0.3,0.1,0.5,0.1,0.8c0.4,0,0.8,0,1.1,0.2c1.8,0.6,2.8,2.5,2.2,4.4
	c-0.2,0.7-0.7,1.3-1.3,1.8c-0.1,0.1-0.2,0.1-0.3,0.2c-0.2,0.1-0.5,0.2-0.8,0.3c-0.1,0-0.3,0.1-0.4,0.1c-0.5,0.1-1.1,0.1-1.6-0.1
	c-0.5-0.2-1-0.5-1.4-0.9c-0.1-0.1-0.2-0.2-0.3-0.3c0.1,0,0.3-0.1,0.4-0.1c0.5-0.1,1.1,0,1.6,0.1c0.5,0.2,1,0.5,1.4,0.9
	c0.3-0.1,0.6-0.2,0.8-0.3c-0.5-0.6-1.2-1.1-1.9-1.3c-0.8-0.2-1.6-0.3-2.3-0.1c-0.1,0-0.2,0.1-0.3,0.1c-0.2,0.1-0.4,0.1-0.6,0.2
	c-0.1,0-0.1,0.1-0.2,0.1c0,0.1,0,0.1,0.1,0.2c0.1,0.2,0.2,0.4,0.3,0.5c0.1,0.1,0.1,0.2,0.2,0.3c0.5,0.6,1.2,1.1,1.9,1.3
	c0.8,0.3,1.6,0.3,2.3,0.1c0.1,0,0.2-0.1,0.3-0.1c0.3-0.1,0.5-0.2,0.7-0.3c0.1-0.1,0.2-0.1,0.3-0.2c0.8-0.5,1.4-1.3,1.7-2.2
	C19.3,7.7,18.1,5.3,15.8,4.5"/>
<path fill="#1E83DC" d="M16,12.9c0.2,0.7,0.3,1.5,0,2.2c-0.6,1.8-2.5,2.8-4.4,2.2c-0.4-0.1-0.7-0.3-1-0.5c-0.1-0.1-0.2-0.1-0.3-0.2
	c-0.2-0.2-0.4-0.4-0.5-0.6c-0.1-0.1-0.1-0.2-0.2-0.3c-0.2-0.5-0.4-1-0.4-1.6c0-0.4,0.1-0.7,0.2-1.1c0.1-0.2,0.1-0.3,0.2-0.5
	c0.1-0.1,0.1-0.2,0.2-0.3c0.1,0.1,0.1,0.2,0.2,0.3c0,0,0,0,0,0c0.4,0.8,0.5,1.8,0.2,2.6c-0.1,0.2-0.1,0.3-0.2,0.5
	c0.1,0.2,0.3,0.5,0.5,0.7c0.2-0.3,0.3-0.6,0.4-0.9c0.4-1.1,0.3-2.2-0.3-3.2c-0.1-0.1-0.1-0.2-0.2-0.3c-0.1-0.1-0.1-0.2-0.2-0.3
	c-0.2-0.2-0.3-0.4-0.5-0.6c-0.2,0.2-0.4,0.4-0.5,0.6c-0.1,0.1-0.1,0.2-0.2,0.3c-0.2,0.3-0.3,0.6-0.4,0.9c-0.1,0.4-0.2,0.9-0.2,1.3
	c0,0.8,0.2,1.6,0.6,2.3c0.1,0.1,0.1,0.2,0.2,0.3c0.2,0.2,0.3,0.4,0.5,0.6c0.1,0.1,0.2,0.2,0.3,0.2c0.4,0.3,0.8,0.5,1.3,0.7
	c2.2,0.7,4.6-0.5,5.4-2.7c0.3-0.9,0.3-1.9,0-2.8C16.5,12.7,16.3,12.9,16,12.9"/>
<path fill="#1E83DC" d="M9,16.8c-0.9,0.7-2,0.9-3.1,0.5c-0.9-0.3-1.6-0.9-2-1.7c-0.4-0.8-0.5-1.8-0.2-2.6c0,0,0,0,0-0.1
	c0-0.1,0.1-0.2,0.1-0.3c0.1-0.3,0.3-0.5,0.4-0.7c0.1-0.1,0.2-0.2,0.3-0.3c0.8-0.8,1.9-1.2,3-1c0.1,0,0.3,0,0.4,0.1
	c-0.1,0.1-0.2,0.2-0.3,0.3c-0.3,0.3-0.6,0.5-0.9,0.6C6.1,12,5.4,12.1,4.6,12c-0.2,0.2-0.4,0.5-0.5,0.7c1,0.2,2,0.1,3-0.3
	c0.5-0.3,1-0.6,1.3-1.1c0.1-0.1,0.1-0.2,0.2-0.3c0.2-0.2,0.3-0.4,0.4-0.7c-0.2-0.1-0.5-0.2-0.7-0.3c0,0,0,0,0,0C8.2,10,8.1,10,8,9.9
	c-1.6-0.4-3.3,0.2-4.3,1.4c-0.1,0.1-0.1,0.2-0.2,0.3c-0.2,0.2-0.3,0.4-0.4,0.7C3,12.4,3,12.5,3,12.6c0,0,0,0.1,0,0.1
	C2.6,13.8,2.7,15,3.2,16c0.5,1,1.4,1.8,2.5,2.1c1.4,0.5,2.8,0.1,3.9-0.7C9.4,17.2,9.2,17,9,16.8"/>
<path fill="#1E83DC" d="M3.2,11.4c-0.5-0.3-0.8-0.8-1.1-1.3C1.7,9.3,1.6,8.4,1.9,7.5C2.4,6,3.8,5.1,5.2,5.1c0.1,0,0.2,0,0.3,0
	c0.2,0,0.4,0.1,0.7,0.1c0,0,0.1,0,0.1,0c0.1,0,0.2,0.1,0.4,0.2C7.8,6,8.4,7,8.6,8.1c0,0.1,0,0.3,0,0.4c-0.1,0-0.2-0.1-0.4-0.2
	C7.6,8,7.1,7.4,6.8,6.8c-0.2-0.3-0.3-0.7-0.3-1c-0.1,0-0.2-0.1-0.3-0.1C6,5.6,5.8,5.5,5.6,5.5c0,0.6,0.2,1.1,0.5,1.6
	c0.5,0.9,1.2,1.6,2.2,2c0.1,0,0.2,0.1,0.3,0.1c0,0,0,0,0,0c0.3,0.1,0.5,0.1,0.8,0.2c0.1-0.3,0.1-0.5,0.1-0.8c0-0.1,0-0.2,0-0.3
	c-0.1-1.6-1.1-3-2.6-3.6c-0.1,0-0.2-0.1-0.3-0.1c0,0,0,0,0,0C6.2,4.4,5.9,4.4,5.7,4.4c-0.1,0-0.2,0-0.3,0C3.5,4.3,1.7,5.4,1.1,7.3
	c-0.4,1.1-0.3,2.2,0.3,3.2c0.3,0.7,0.8,1.2,1.4,1.6C2.9,11.9,3,11.6,3.2,11.4"/>
<path fill="#1E83DC" d="M6.6,4.1c0.6-1.8,2.5-2.8,4.4-2.2c1.1,0.4,1.9,1.2,2.2,2.3c0,0.1,0.1,0.2,0.1,0.3c0.1,0.3,0.1,0.5,0.1,0.8
	c0,0.1,0,0.3,0,0.4c0,0.2-0.1,0.4-0.1,0.5c-0.3,0.9-0.9,1.6-1.7,2c0,0,0,0,0,0c-0.1,0.1-0.2,0.1-0.4,0.2c0-0.1,0-0.3,0-0.4
	c0-0.2,0.1-0.4,0.1-0.5c0.3-0.9,0.9-1.6,1.7-2c0-0.3,0-0.6,0-0.9c-1.1,0.5-2,1.4-2.5,2.6c-0.1,0.3-0.2,0.7-0.2,1c0,0.1,0,0.2,0,0.3
	c0,0,0,0,0,0c0,0.3,0,0.5,0.1,0.8c0.3,0,0.5-0.1,0.8-0.2c0.1,0,0.2-0.1,0.3-0.1c0.1,0,0.2-0.1,0.3-0.2c1-0.5,1.8-1.4,2.1-2.5
	c0.1-0.3,0.2-0.7,0.2-1c0-0.1,0-0.2,0-0.3c0-0.3,0-0.5-0.1-0.8C14,4.2,14,4.1,13.9,4c-0.4-1.3-1.4-2.4-2.8-2.9
	C8.9,0.4,6.5,1.7,5.8,3.9c0,0,0,0.1,0,0.1C6,4.1,6.3,4.1,6.6,4.1C6.5,4.2,6.6,4.2,6.6,4.1"/>
</svg>
