<?xml version="1.0" encoding="utf-8"?>
<!-- Generator: Adobe Illustrator 19.0.0, SVG Export Plug-In . SVG Version: 6.00 Build 0)  -->
<!DOCTYPE svg PUBLIC "-//W3C//DTD SVG 1.1//EN" "http://www.w3.org/Graphics/SVG/1.1/DTD/svg11.dtd">
<svg version="1.1" id="Layer_1" xmlns="http://www.w3.org/2000/svg" xmlns:xlink="http://www.w3.org/1999/xlink" x="0px" y="0px"
	 viewBox="0 0 123.8 54.4" enable-background="new 0 0 123.8 54.4" xml:space="preserve">
<polygon fill="#747475" points="34.1,35.3 34.1,39.9 39.7,39.9 39.7,54 44.9,54 44.9,39.9 50.5,39.9 50.5,35.3 "/>
<g>
	<path fill="#747475" d="M49.4,44.7L49.4,44.7c0-5.4,4.3-9.8,10.1-9.8c5.8,0,10.1,4.3,10.1,9.7v0.1c0,5.4-4.3,9.7-10.1,9.7
		C53.7,54.4,49.4,50.1,49.4,44.7 M64.3,44.7L64.3,44.7c0-2.8-2-5.1-4.8-5.1c-2.8,0-4.7,2.3-4.7,5v0.1c0,2.7,2,5.1,4.8,5.1
		C62.4,49.7,64.3,47.4,64.3,44.7"/>
	<path fill="#747475" d="M70.7,45.8V35.3H76v10.4c0,2.7,1.4,4,3.5,4c2.1,0,3.5-1.2,3.5-3.9V35.3h5.3v10.4c0,6-3.4,8.7-8.8,8.7
		C74.1,54.4,70.7,51.7,70.7,45.8"/>
	<path fill="#747475" d="M89.9,35.3h8.9c2.9,0,4.8,0.7,6.1,2c1.1,1.1,1.7,2.5,1.7,4.4v0.1c0,2.9-1.5,4.8-3.9,5.8l4.5,6.5h-6
		l-3.8-5.7h-0.1h-2.2V54h-5.2V35.3z M98.5,44.3c1.8,0,2.8-0.9,2.8-2.2V42c0-1.5-1.1-2.2-2.8-2.2h-3.4v4.5H98.5z"/>
	<path fill="#747475" d="M9.6,19c-2.7-0.6-3.3-1-3.3-1.9v-0.1c0-0.7,0.6-1.2,1.9-1.2c1.7,0,3.6,0.7,5.4,1.9l2.7-3.8
		c-2.1-1.7-4.6-2.6-7.9-2.6c-4.6,0-7.4,2.6-7.4,6.2v0.1c0,4,3.2,5.1,7.2,6c2.6,0.6,3.2,1,3.2,1.8v0.1c0,0.8-0.8,1.3-2.2,1.3
		c-2.2,0-4.3-0.8-6.2-2.3l-3,3.5c2.4,2.1,5.6,3.2,9,3.2c1.5,0,2.9-0.3,4-0.7l2.8-8.6C14.7,20.5,12.5,19.7,9.6,19"/>
	<path fill="#747475" d="M30,22.6c0,2.7-1.4,4-3.5,4c-2.1,0-3.5-1.3-3.5-4.1V11.8h-5.4v9.4l2.7,8.2c1.5,1.3,3.6,1.9,6.2,1.9
		c5.5,0,9-2.7,9-8.9V11.8H30V22.6z"/>
	<path fill="#747475" d="M46.8,26.5c-2.7,0-4.6-2.3-4.6-5.1v-0.1c0-2.8,1.9-5.1,4.6-5.1c1.8,0,3.1,0.9,4.2,2.3l4-3.1
		c-1.7-2.4-4.2-4-8.2-4c-5.8,0-10.1,4.4-10.1,10v0.1c0,5.7,4.4,9.9,9.9,9.9c4.3,0,6.7-1.8,8.5-4.3l-4-2.9
		C50,25.6,48.8,26.5,46.8,26.5"/>
	<path fill="#747475" d="M65.2,26.5c-2.7,0-4.6-2.3-4.6-5.1v-0.1c0-2.8,1.9-5.1,4.6-5.1c1.8,0,3.1,0.9,4.2,2.3l4-3.1
		c-1.7-2.4-4.2-4-8.2-4c-5.8,0-10.1,4.4-10.1,10v0.1c0,5.7,4.4,9.9,9.9,9.9c4.3,0,6.7-1.8,8.5-4.3l-4-2.9
		C68.4,25.6,67.2,26.5,65.2,26.5"/>
	<polygon fill="#747475" points="79.5,23.4 88.7,23.4 88.7,19.2 79.5,19.2 79.5,16.3 89.7,16.3 89.7,11.8 74.2,11.8 74.2,31 
		89.8,31 89.8,26.5 79.5,26.5 	"/>
	<path fill="#747475" d="M99.6,19c-2.7-0.6-3.3-1-3.3-1.9v-0.1c0-0.7,0.6-1.2,1.9-1.2c1.7,0,3.6,0.7,5.4,1.9l2.7-3.8
		c-2.1-1.7-4.6-2.6-7.9-2.6c-4.6,0-7.4,2.6-7.4,6.2v0.1c0,4,3.2,5.1,7.2,6c2.6,0.6,3.2,1,3.2,1.8v0.1c0,0.8-0.8,1.3-2.2,1.3
		c-2.2,0-4.3-0.8-6.2-2.3l-3,3.5c2.4,2.1,5.6,3.2,9,3.2c4.7,0,7.8-2.3,7.8-6.3V25C106.7,21.4,104,20,99.6,19"/>
	<path fill="#747475" d="M116.7,19c-2.7-0.6-3.3-1-3.3-1.9v-0.1c0-0.7,0.6-1.2,1.9-1.2c1.7,0,3.6,0.7,5.4,1.9l2.7-3.8
		c-2.1-1.7-4.6-2.6-7.9-2.6c-4.6,0-7.4,2.6-7.4,6.2v0.1c0,4,3.2,5.1,7.2,6c2.6,0.6,3.2,1,3.2,1.8v0.1c0,0.8-0.8,1.3-2.2,1.3
		c-2.2,0-4.3-0.8-6.2-2.3l-3,3.5c2.4,2.1,5.6,3.2,9,3.2c4.7,0,7.8-2.3,7.8-6.3V25C123.8,21.4,121.1,20,116.7,19"/>
	<polygon fill="#747475" points="20.1,35.8 31.5,35.8 22.3,42.4 25.8,53.2 16.7,46.5 7.5,53.2 11,42.5 1.8,35.8 13.2,35.8 16.6,25 	
		"/>
	<path fill="#747475" d="M9.8,9V0.1h5c1.8,0,2.6,1.1,2.6,2.3c0,1.1-0.7,1.8-1.5,2c0.9,0.1,1.7,1,1.7,2.2C17.6,7.9,16.7,9,15,9H9.8z
		 M15.1,2.8c0-0.4-0.3-0.7-0.8-0.7h-2.2v1.4h2.2C14.7,3.5,15.1,3.3,15.1,2.8 M15.2,6.2c0-0.4-0.3-0.7-0.9-0.7h-2.3V7h2.3
		C14.9,7,15.2,6.7,15.2,6.2"/>
	<path fill="#747475" d="M23.7,9l-1.5-3h-1.2v3h-2.3V0.1h4.4c2,0,3.1,1.3,3.1,2.9c0,1.5-0.9,2.4-1.8,2.7L26.4,9H23.7z M24,3.1
		c0-0.6-0.5-0.9-1.1-0.9h-1.8V4h1.8C23.5,4,24,3.7,24,3.1"/>
	<rect x="27.6" y="0.1" fill="#747475" width="2.3" height="8.9"/>
	<path fill="#747475" d="M37.5,9L37,7.7h-3.5L33.1,9h-2.6l3.3-8.9h2.9L40.1,9H37.5z M35.3,2.4l-1.1,3.3h2.2L35.3,2.4z"/>
	<polygon fill="#747475" points="46.7,9 43,3.9 43,9 40.7,9 40.7,0.1 43.1,0.1 46.6,5 46.6,0.1 48.9,0.1 48.9,9 	"/>
	<path fill="#747475" d="M53.9,9V0.1h5c1.8,0,2.6,1.1,2.6,2.3c0,1.1-0.7,1.8-1.5,2c0.9,0.1,1.7,1,1.7,2.2c0,1.3-0.9,2.4-2.6,2.4
		H53.9z M59.2,2.8c0-0.4-0.3-0.7-0.8-0.7h-2.2v1.4h2.2C58.9,3.5,59.2,3.3,59.2,2.8 M59.4,6.2c0-0.4-0.3-0.7-0.9-0.7h-2.3V7h2.3
		C59.1,7,59.4,6.7,59.4,6.2"/>
	<path fill="#747475" d="M63,5.4V0.1h2.3v5.2c0,1,0.6,1.8,1.9,1.8c1.2,0,1.9-0.8,1.9-1.8V0.1h2.3v5.3c0,2.2-1.3,3.8-4.2,3.8
		C64.3,9.1,63,7.6,63,5.4"/>
	<polygon fill="#747475" points="72.9,9 72.9,0.1 79.4,0.1 79.4,2.1 75.2,2.1 75.2,3.5 79.3,3.5 79.3,5.5 75.2,5.5 75.2,9 	"/>
	<polygon fill="#747475" points="80.6,9 80.6,0.1 87.1,0.1 87.1,2.1 82.9,2.1 82.9,3.5 87,3.5 87,5.5 82.9,5.5 82.9,9 	"/>
	<rect x="88.4" y="0.1" fill="#747475" width="2.3" height="8.9"/>
	<polygon fill="#747475" points="98.3,9 94.5,3.9 94.5,9 92.2,9 92.2,0.1 94.6,0.1 98.2,5 98.2,0.1 100.5,0.1 100.5,9 	"/>
	<rect x="102.1" y="0.1" fill="#747475" width="2.3" height="8.9"/>
	<path fill="#747475" d="M106.7,4.2l-0.9-0.7c0.4-0.2,1-0.8,1.1-1.3c-0.1,0-0.2,0.1-0.3,0.1c-0.6,0-1-0.4-1-1.1
		c0-0.7,0.6-1.2,1.2-1.2c0.7,0,1.4,0.6,1.4,1.5C108.3,2.6,107.7,3.6,106.7,4.2"/>
	<path fill="#747475" d="M108.9,7.7l1.2-1.8c0.6,0.6,1.6,1.2,2.8,1.2c0.8,0,1.2-0.3,1.2-0.7c0-1.2-5-0.2-5-3.6
		c0-1.5,1.2-2.8,3.5-2.8c1.4,0,2.7,0.4,3.6,1.2L115,2.9c-0.7-0.6-1.7-0.9-2.6-0.9c-0.7,0-1,0.2-1,0.6c0,1.1,5,0.3,5,3.6
		c0,1.8-1.3,3-3.7,3C111,9.1,109.8,8.6,108.9,7.7"/>
	<polygon fill="#747475" points="106.2,35.9 105.7,35.9 105.7,35.7 106.9,35.7 106.9,35.9 106.4,35.9 106.4,37.3 106.2,37.3 	"/>
	<path fill="#747475" d="M108.4,36.6c0-0.2,0-0.5,0-0.7h0c-0.1,0.2-0.1,0.4-0.2,0.6l-0.3,0.8h-0.2l-0.3-0.7
		c-0.1-0.2-0.1-0.4-0.2-0.6h0c0,0.2,0,0.5,0,0.7l0,0.7H107l0.1-1.6h0.3l0.3,0.8c0.1,0.2,0.1,0.4,0.2,0.5h0c0-0.2,0.1-0.3,0.2-0.5
		l0.3-0.8h0.3l0.1,1.6h-0.2L108.4,36.6z"/>
</g>
</svg>
