<?xml version="1.0" encoding="utf-8"?>
<!-- Generator: Adobe Illustrator 19.0.0, SVG Export Plug-In . SVG Version: 6.00 Build 0)  -->
<!DOCTYPE svg PUBLIC "-//W3C//DTD SVG 1.1//EN" "http://www.w3.org/Graphics/SVG/1.1/DTD/svg11.dtd">
<svg version="1.1" id="Layer_1" xmlns="http://www.w3.org/2000/svg" xmlns:xlink="http://www.w3.org/1999/xlink" x="0px" y="0px"
	 viewBox="0 0 123.8 54.4" enable-background="new 0 0 123.8 54.4" xml:space="preserve">
<g>
	<path fill="#747475" d="M27.3,39.2c0,0.4,0.1,0.7,0.2,1c0.1,0.3,0.3,0.5,0.6,0.7c0.2,0.2,0.5,0.3,0.8,0.4c0.3,0.1,0.6,0.1,1,0.1
		c0.4,0,0.8-0.1,1.2-0.2c0.3-0.1,0.6-0.3,0.8-0.5c0.2-0.2,0.4-0.4,0.5-0.7c0.1-0.3,0.2-0.5,0.2-0.7c0-0.4-0.1-0.7-0.3-1
		c-0.2-0.2-0.4-0.4-0.7-0.6c-0.1-0.1-0.3-0.1-0.5-0.3c-0.2-0.1-0.5-0.3-0.8-0.4c-0.3-0.1-0.5-0.3-0.8-0.4c-0.2-0.1-0.4-0.2-0.5-0.3
		c-0.8-0.4-1.3-0.9-1.7-1.3c-0.3-0.4-0.5-1-0.5-1.6c0-0.2,0-0.4,0.1-0.7c0-0.2,0.1-0.5,0.2-0.7c0.1-0.2,0.2-0.5,0.3-0.7
		c0.1-0.2,0.3-0.4,0.5-0.6c0.4-0.3,0.8-0.6,1.3-0.7c0.5-0.1,1-0.2,1.5-0.2c0.3,0,0.6,0,0.9,0c0.3,0,0.6,0.1,0.9,0.1
		c0.3,0,0.4,0,0.6,0c0.1,0,0.2,0,0.4,0c0,0.3-0.1,0.5-0.1,0.7c0,0.2,0,0.4,0,0.5c0,0.2,0,0.4,0,0.6c0,0.2,0,0.5,0,0.8h-0.7
		c0-0.4-0.1-0.8-0.2-1.1c-0.2-0.3-0.3-0.5-0.6-0.6c-0.2-0.2-0.5-0.3-0.7-0.3c-0.2-0.1-0.5-0.1-0.7-0.1c-0.3,0-0.6,0-0.9,0.2
		c-0.3,0.1-0.5,0.2-0.8,0.4c-0.2,0.2-0.4,0.4-0.5,0.6c-0.1,0.2-0.2,0.5-0.2,0.8c0,0.3,0.1,0.6,0.2,0.8c0.1,0.2,0.3,0.4,0.5,0.6
		c0.2,0.2,0.4,0.3,0.7,0.5c0.2,0.1,0.5,0.3,0.8,0.4l1.3,0.6c0.3,0.1,0.6,0.3,0.9,0.5c0.3,0.2,0.5,0.4,0.8,0.6
		c0.2,0.2,0.4,0.5,0.5,0.8c0.1,0.3,0.2,0.7,0.2,1.1c0,0.5-0.1,0.9-0.2,1.4c-0.2,0.4-0.4,0.8-0.7,1.2c-0.3,0.4-0.8,0.6-1.3,0.9
		c-0.5,0.2-1.1,0.3-1.9,0.3c-0.2,0-0.4,0-0.7,0c-0.3,0-0.6-0.1-0.9-0.1c-0.3,0-0.6-0.1-0.9-0.1c-0.3,0-0.5-0.1-0.6-0.1
		c0-0.2,0-0.5,0.1-0.7c0-0.2,0-0.5,0-0.7c0-0.4,0-0.8-0.1-1.3H27.3z"/>
	<path fill="#747475" d="M33.9,30.3c0.2,0,0.4,0,0.6,0c0.2,0,0.4,0,0.6,0c0.2,0,0.4,0,0.7,0h0.9c0.3,0,0.5,0,0.7,0
		c0.2,0,0.4,0,0.6,0c0.2,0,0.3,0,0.5,0c0.2,0,0.3,0,0.5,0V31c-0.4,0-0.7,0-0.9,0.1c-0.2,0-0.3,0.1-0.5,0.3c-0.1,0.1-0.1,0.1-0.2,0.2
		c0,0.1-0.1,0.2-0.1,0.3c0,0.1,0,0.3-0.1,0.5c0,0.2,0,0.4,0,0.7v4.9c0,0.3,0,0.6,0,0.9c0,0.3,0.1,0.5,0.1,0.8
		c0.1,0.2,0.2,0.5,0.3,0.7c0.1,0.2,0.4,0.4,0.6,0.5c0.3,0.2,0.6,0.3,1,0.4c0.4,0.1,0.8,0.1,1.2,0.1c0.4,0,0.8,0,1.2-0.1
		c0.3-0.1,0.7-0.2,0.9-0.3c0.2-0.1,0.4-0.3,0.5-0.4c0.1-0.2,0.2-0.3,0.3-0.5c0.1-0.2,0.1-0.4,0.1-0.7c0-0.2,0-0.5,0-0.8v-5.1
		c0-0.5,0-1-0.1-1.3c0-0.3-0.1-0.6-0.2-0.8c-0.1-0.2-0.3-0.3-0.5-0.4c-0.2-0.1-0.5-0.1-0.9-0.1v-0.7c0.2,0,0.3,0,0.4,0
		c0.1,0,0.2,0,0.4,0c0.1,0,0.2,0,0.4,0h0.4c0.3,0,0.6,0,0.9,0c0.2,0,0.5,0,0.7,0c0.2,0,0.4,0,0.6,0c0.2,0,0.4,0,0.6,0v0.6
		c-0.3,0-0.6,0-0.8,0.1c-0.2,0-0.4,0.1-0.5,0.3c-0.1,0.1-0.2,0.3-0.2,0.5c0,0.2-0.1,0.5-0.1,0.9v5.8c0,0.6,0,1.1-0.1,1.5
		c-0.1,0.4-0.2,0.8-0.5,1.1c-0.3,0.4-0.8,0.7-1.4,0.9c-0.6,0.2-1.4,0.3-2.4,0.3c-0.3,0-0.6,0-0.9,0c-0.3,0-0.6,0-0.9-0.1
		c-0.3-0.1-0.6-0.1-0.9-0.2c-0.3-0.1-0.5-0.2-0.8-0.4c-0.3-0.2-0.5-0.4-0.7-0.6c-0.2-0.2-0.3-0.5-0.3-0.7c-0.1-0.3-0.1-0.5-0.1-0.8
		c0-0.3,0-0.6,0-0.9v-5.3c0-0.3,0-0.6,0-0.8c0-0.2,0-0.4-0.1-0.5c0-0.1-0.1-0.3-0.1-0.4c-0.1-0.1-0.1-0.2-0.2-0.3
		C35,31.1,34.9,31,34.7,31c-0.2,0-0.4,0-0.7,0V30.3z"/>
	<path fill="#747475" d="M46.5,30.3c0.4,0,0.7,0,1,0c0.3,0,0.5,0,0.8,0c0.6,0,1.2,0,1.8,0c0.1,0.4,0.2,0.7,0.3,0.9
		c0.1,0.3,0.2,0.5,0.3,0.8c0.1,0.2,0.2,0.5,0.3,0.7c0.1,0.2,0.2,0.5,0.3,0.8c0.1,0.3,0.2,0.6,0.4,1c0.1,0.4,0.3,0.8,0.5,1.3
		c0.2,0.4,0.3,0.8,0.4,1.1c0.1,0.3,0.2,0.5,0.3,0.8c0.1,0.2,0.2,0.5,0.3,0.7c0.1,0.3,0.3,0.6,0.5,0.9c0.1-0.3,0.3-0.7,0.5-1.2
		c0.2-0.4,0.4-0.9,0.6-1.4s0.4-1,0.7-1.6c0.2-0.6,0.5-1.1,0.7-1.7c0.2-0.6,0.4-1.1,0.6-1.6c0.2-0.5,0.4-1,0.5-1.4c0.6,0,1.3,0,1.9,0
		c0.3,0,0.6,0,0.9,0c0.3,0,0.6,0,1,0v0.6c-0.4,0-0.7,0-0.9,0.1c-0.2,0.1-0.4,0.2-0.5,0.4c-0.1,0.2-0.2,0.5-0.2,0.8
		c0,0.3,0,0.8,0,1.3v0.9c0,0.4,0,0.7,0,1.2c0,0.4,0,0.9,0,1.3c0,0.5,0,0.9,0,1.3c0,0.4,0,0.8,0,1.1c0,0.3,0,0.6,0,0.8
		c0,0.4,0.1,0.6,0.2,0.8c0.1,0.2,0.2,0.3,0.3,0.4c0.1,0.1,0.3,0.1,0.5,0.1c0.2,0,0.4,0,0.7,0v0.6c-0.4,0-0.8,0-1.2,0
		c-0.4,0-0.8,0-1.2,0c-0.4,0-0.8,0-1.2,0c-0.4,0-0.8,0-1.3,0v-0.6c0.4,0,0.7,0,0.9-0.1c0.2,0,0.4-0.1,0.5-0.3
		c0.1-0.1,0.2-0.4,0.2-0.6c0-0.3,0.1-0.6,0.1-1.1c0-1.3,0-2.6,0-3.9c0-1.3-0.1-2.6-0.1-3.9l-2.7,6.5c-0.2,0.5-0.4,0.9-0.5,1.2
		c-0.1,0.3-0.2,0.6-0.3,0.9c-0.1,0.3-0.2,0.6-0.3,0.8c-0.1,0.3-0.2,0.6-0.3,1H53c-0.1-0.3-0.2-0.6-0.3-0.9c-0.1-0.2-0.2-0.5-0.2-0.7
		c-0.1-0.2-0.2-0.4-0.2-0.7c-0.1-0.2-0.2-0.5-0.3-0.9c-0.3-0.6-0.5-1.2-0.7-1.6c-0.2-0.5-0.4-0.9-0.5-1.3c-0.2-0.4-0.3-0.7-0.4-1
		c-0.1-0.3-0.3-0.6-0.4-1c-0.1-0.3-0.3-0.7-0.4-1c-0.1-0.4-0.3-0.7-0.5-1.2c-0.1,0.8-0.1,1.7-0.2,2.5c0,0.8-0.1,1.6-0.1,2.3
		c0,0.7-0.1,1.3-0.1,1.8c0,0.5,0,0.8,0,1c0,0.4,0,0.8,0.1,1.1s0.1,0.5,0.3,0.6c0.1,0.1,0.3,0.2,0.5,0.3c0.2,0,0.5,0.1,0.8,0.1v0.6
		c-0.4,0-0.7,0-1.1,0c-0.4,0-0.7,0-1.1,0s-0.7,0-1.1,0c-0.4,0-0.7,0-1.1,0v-0.6h0.4c0.2,0,0.4,0,0.6-0.1c0.2,0,0.3-0.1,0.4-0.3
		c0.1-0.1,0.2-0.3,0.3-0.6c0.1-0.3,0.1-0.6,0.1-1c0-0.2,0-0.6,0-0.9c0-0.4,0-0.8,0.1-1.2c0-0.4,0.1-0.9,0.1-1.3c0-0.4,0-0.8,0.1-1.2
		c0-0.4,0-0.7,0.1-0.9c0-0.3,0-0.4,0-0.5c0-0.5,0-0.9,0-1.3c0-0.3-0.1-0.6-0.2-0.8c-0.1-0.2-0.3-0.3-0.5-0.4
		c-0.2-0.1-0.5-0.1-0.9-0.1V30.3z"/>
	<path fill="#747475" d="M61.7,30.3c0.4,0,0.7,0,1,0c0.3,0,0.5,0,0.8,0c0.6,0,1.2,0,1.8,0c0.1,0.4,0.2,0.7,0.3,0.9
		c0.1,0.3,0.2,0.5,0.3,0.8c0.1,0.2,0.2,0.5,0.3,0.7c0.1,0.2,0.2,0.5,0.3,0.8c0.1,0.3,0.2,0.6,0.4,1c0.1,0.4,0.3,0.8,0.5,1.3
		c0.2,0.4,0.3,0.8,0.4,1.1c0.1,0.3,0.2,0.5,0.3,0.8c0.1,0.2,0.2,0.5,0.3,0.7c0.1,0.3,0.3,0.6,0.5,0.9c0.1-0.3,0.3-0.7,0.5-1.2
		c0.2-0.4,0.4-0.9,0.6-1.4c0.2-0.5,0.4-1,0.7-1.6c0.2-0.6,0.5-1.1,0.7-1.7c0.2-0.6,0.4-1.1,0.6-1.6c0.2-0.5,0.4-1,0.5-1.4
		c0.6,0,1.3,0,1.9,0c0.3,0,0.6,0,0.9,0c0.3,0,0.6,0,1,0v0.6c-0.4,0-0.7,0-0.9,0.1c-0.2,0.1-0.4,0.2-0.5,0.4
		c-0.1,0.2-0.2,0.5-0.2,0.8c0,0.3,0,0.8,0,1.3v0.9c0,0.4,0,0.7,0,1.2c0,0.4,0,0.9,0,1.3c0,0.5,0,0.9,0,1.3c0,0.4,0,0.8,0,1.1
		c0,0.3,0,0.6,0,0.8c0,0.4,0.1,0.6,0.2,0.8c0.1,0.2,0.2,0.3,0.3,0.4c0.1,0.1,0.3,0.1,0.5,0.1c0.2,0,0.4,0,0.7,0v0.6
		c-0.4,0-0.8,0-1.2,0c-0.4,0-0.8,0-1.2,0c-0.4,0-0.8,0-1.2,0c-0.4,0-0.8,0-1.3,0v-0.6c0.4,0,0.7,0,0.9-0.1c0.2,0,0.4-0.1,0.5-0.3
		c0.1-0.1,0.2-0.4,0.2-0.6c0-0.3,0.1-0.6,0.1-1.1c0-1.3,0-2.6,0-3.9c0-1.3-0.1-2.6-0.1-3.9l-2.7,6.5c-0.2,0.5-0.4,0.9-0.5,1.2
		c-0.1,0.3-0.2,0.6-0.3,0.9c-0.1,0.3-0.2,0.6-0.3,0.8c-0.1,0.3-0.2,0.6-0.3,1h-0.7c-0.1-0.3-0.2-0.6-0.3-0.9
		c-0.1-0.2-0.2-0.5-0.2-0.7c-0.1-0.2-0.2-0.4-0.2-0.7c-0.1-0.2-0.2-0.5-0.3-0.9c-0.3-0.6-0.5-1.2-0.7-1.6c-0.2-0.5-0.4-0.9-0.5-1.3
		c-0.2-0.4-0.3-0.7-0.4-1c-0.1-0.3-0.3-0.6-0.4-1c-0.1-0.3-0.3-0.7-0.4-1c-0.1-0.4-0.3-0.7-0.5-1.2c-0.1,0.8-0.1,1.7-0.2,2.5
		c0,0.8-0.1,1.6-0.1,2.3c0,0.7-0.1,1.3-0.1,1.8c0,0.5,0,0.8,0,1c0,0.4,0,0.8,0.1,1.1c0.1,0.3,0.1,0.5,0.3,0.6
		c0.1,0.1,0.3,0.2,0.5,0.3c0.2,0,0.5,0.1,0.8,0.1v0.6c-0.4,0-0.7,0-1.1,0c-0.4,0-0.7,0-1.1,0s-0.7,0-1.1,0c-0.4,0-0.7,0-1.1,0v-0.6
		h0.4c0.2,0,0.4,0,0.6-0.1c0.2,0,0.3-0.1,0.4-0.3c0.1-0.1,0.2-0.3,0.3-0.6c0.1-0.3,0.1-0.6,0.1-1c0-0.2,0-0.6,0-0.9
		c0-0.4,0-0.8,0.1-1.2c0-0.4,0.1-0.9,0.1-1.3c0-0.4,0-0.8,0.1-1.2c0-0.4,0-0.7,0.1-0.9c0-0.3,0-0.4,0-0.5c0-0.5,0-0.9,0-1.3
		c0-0.3-0.1-0.6-0.2-0.8c-0.1-0.2-0.3-0.3-0.5-0.4c-0.2-0.1-0.5-0.1-0.9-0.1V30.3z"/>
	<path fill="#747475" d="M76.5,30.3c0.4,0,0.8,0,1.2,0.1c0.4,0,0.8,0,1.2,0c0.4,0,0.8,0,1.2,0c0.4,0,0.8,0,1.3-0.1V31
		c-0.3,0-0.6,0-0.8,0.1c-0.2,0-0.4,0.1-0.5,0.3c-0.1,0.1-0.2,0.3-0.3,0.5c-0.1,0.2-0.1,0.5-0.1,1v6.2c0,0.5,0,0.9,0,1.2
		c0,0.3,0.1,0.6,0.2,0.8c0.1,0.2,0.3,0.3,0.5,0.4s0.5,0.1,1,0.1v0.6c-0.4,0-0.8,0-1.2-0.1c-0.4,0-0.8,0-1.2,0c-0.4,0-0.9,0-1.3,0
		c-0.4,0-0.8,0-1.3,0.1v-0.7c0.3,0,0.6,0,0.8-0.1c0.2,0,0.4-0.2,0.5-0.3c0.1-0.2,0.2-0.4,0.3-0.7c0-0.3,0.1-0.7,0.1-1.2v-6.1
		c0-0.4,0-0.8-0.1-1c0-0.3-0.1-0.5-0.2-0.6c-0.1-0.2-0.3-0.3-0.5-0.3C77.2,31,76.9,31,76.5,31L76.5,30.3z"/>
	<path fill="#747475" d="M80.7,30.3c0.5,0,1,0,1.7,0.1c0.7,0,1.5,0,2.6,0c0.6,0,1.3,0,1.9,0c0.6,0,1.2,0,1.7,0c0.5,0,1,0,1.4,0
		c0.4,0,0.8,0,1,0V33h-0.7c0-0.5-0.1-0.8-0.2-1.1c-0.1-0.3-0.3-0.4-0.5-0.6c-0.2-0.1-0.5-0.2-0.8-0.2c-0.3,0-0.6,0-1,0
		c-0.2,0-0.4,0-0.6,0c-0.2,0-0.4,0-0.6,0c0,0.2,0,0.3,0,0.4c0,0.1,0,0.2,0,0.3c0,0.1,0,0.2,0,0.3v0.4v7.1c0,0.4,0,0.7,0.1,0.9
		c0,0.2,0.1,0.4,0.2,0.6c0.1,0.1,0.3,0.2,0.6,0.3c0.2,0.1,0.6,0.1,1,0.1v0.6c-0.6,0-1,0-1.4,0c-0.4,0-0.8,0-1.3,0
		c-0.9,0-1.8,0-2.6,0v-0.6c0.4,0,0.7,0,1-0.1c0.2,0,0.4-0.1,0.5-0.3c0.1-0.1,0.2-0.3,0.2-0.6c0-0.3,0.1-0.6,0.1-1v-7.1V32
		c0-0.1,0-0.2,0-0.3c0-0.1,0-0.2,0-0.3c0-0.1,0-0.2,0-0.4h-0.5c-0.2,0-0.5,0-0.7,0c-0.2,0-0.5,0-0.7,0c-0.2,0-0.4,0-0.5,0
		c-0.3,0-0.5,0.1-0.6,0.2c-0.2,0.1-0.3,0.2-0.4,0.4c-0.1,0.2-0.2,0.3-0.2,0.5c0,0.2-0.1,0.4-0.1,0.6h-0.7V30.3z"/>
	<path fill="#747475" d="M0.7,13.5c0.5,0,0.9,0,1.2,0c0.3,0,0.6,0,1,0c0.7,0,1.4,0,2.1-0.1C5,14,5.1,14.3,5.3,14.6
		c0.1,0.3,0.2,0.6,0.3,0.9c0.1,0.3,0.2,0.5,0.3,0.8c0.1,0.3,0.2,0.6,0.3,0.9c0.1,0.3,0.3,0.7,0.5,1.1c0.2,0.4,0.4,0.9,0.6,1.5
		c0.2,0.5,0.4,0.9,0.5,1.2C7.9,21.4,8,21.7,8.1,22c0.1,0.3,0.3,0.6,0.4,0.9c0.1,0.3,0.3,0.7,0.5,1.1c0.2-0.4,0.4-0.8,0.6-1.3
		c0.2-0.5,0.5-1.1,0.7-1.7c0.2-0.6,0.5-1.2,0.8-1.9c0.3-0.7,0.5-1.3,0.8-2c0.3-0.6,0.5-1.3,0.7-1.9c0.2-0.6,0.4-1.2,0.6-1.7
		c0.7,0,1.5,0.1,2.2,0.1c0.4,0,0.7,0,1,0c0.3,0,0.7,0,1.1,0v0.7c-0.5,0-0.8,0-1.1,0.1c-0.3,0.1-0.5,0.2-0.6,0.5
		c-0.1,0.2-0.2,0.5-0.2,0.9c0,0.4,0,0.9,0,1.5v1c0,0.4,0,0.9,0,1.4s0,1,0,1.5c0,0.5,0,1,0,1.5c0,0.5,0,0.9,0,1.3c0,0.4,0,0.7,0,0.9
		c0,0.4,0.1,0.7,0.2,1c0.1,0.2,0.2,0.4,0.4,0.5c0.2,0.1,0.4,0.2,0.6,0.2c0.2,0,0.5,0,0.8,0v0.7c-0.5,0-0.9,0-1.4-0.1
		c-0.5,0-1,0-1.4,0c-0.5,0-1,0-1.4,0c-0.5,0-1,0-1.5,0.1v-0.7c0.4,0,0.8,0,1-0.1c0.3-0.1,0.5-0.2,0.6-0.3c0.1-0.2,0.2-0.4,0.3-0.7
		c0-0.3,0.1-0.7,0.1-1.2c0-1.5,0-3,0-4.6c0-1.5-0.1-3-0.2-4.5l-3.2,7.6c-0.2,0.5-0.4,1-0.6,1.4c-0.2,0.4-0.3,0.7-0.4,1
		c-0.1,0.3-0.2,0.6-0.3,1c-0.1,0.3-0.2,0.7-0.4,1.2H8.2c-0.1-0.4-0.2-0.7-0.3-1c-0.1-0.3-0.2-0.5-0.3-0.8c-0.1-0.2-0.2-0.5-0.3-0.8
		c-0.1-0.3-0.2-0.6-0.4-1c-0.3-0.7-0.6-1.3-0.8-1.9c-0.2-0.5-0.4-1-0.6-1.5c-0.2-0.4-0.3-0.8-0.5-1.2c-0.2-0.4-0.3-0.7-0.4-1.1
		c-0.1-0.4-0.3-0.8-0.5-1.2c-0.2-0.4-0.3-0.9-0.5-1.4c-0.1,1-0.1,1.9-0.2,2.9c-0.1,1-0.1,1.8-0.1,2.6c0,0.8-0.1,1.5-0.1,2.1
		c0,0.6,0,1,0,1.2c0,0.5,0,0.9,0.1,1.2c0.1,0.3,0.2,0.5,0.3,0.7c0.1,0.2,0.3,0.3,0.6,0.3c0.3,0,0.6,0.1,1,0.1v0.7
		c-0.4,0-0.8,0-1.3-0.1c-0.4,0-0.8,0-1.3,0c-0.4,0-0.8,0-1.3,0c-0.4,0-0.9,0-1.3,0.1v-0.7h0.5c0.3,0,0.5,0,0.7-0.1
		c0.2-0.1,0.4-0.2,0.5-0.3C1.8,26,1.9,25.7,2,25.4c0.1-0.3,0.1-0.7,0.1-1.2c0-0.3,0-0.6,0-1.1c0-0.4,0-0.9,0.1-1.4
		c0-0.5,0.1-1,0.1-1.5c0-0.5,0-1,0.1-1.4c0-0.4,0-0.8,0.1-1.1c0-0.3,0-0.5,0-0.6c0-0.6,0-1.1,0-1.5c0-0.4-0.1-0.7-0.2-0.9
		c-0.1-0.2-0.3-0.4-0.5-0.4c-0.2-0.1-0.6-0.1-1-0.1V13.5z"/>
	<path fill="#747475" d="M23.8,16l-2,5.2h3.6L23.8,16z M23.6,13.5H25l3.3,10.8c0.2,0.5,0.3,0.9,0.4,1.2c0.1,0.3,0.3,0.5,0.4,0.7
		c0.2,0.1,0.3,0.2,0.5,0.3c0.2,0,0.5,0.1,0.8,0.1v0.7c-0.9,0-1.9-0.1-2.8-0.1c-0.5,0-0.9,0-1.3,0c-0.4,0-0.9,0-1.5,0v-0.8
		c0.3,0,0.5,0,0.6,0c0.1,0,0.3,0,0.4,0c0.3-0.1,0.5-0.2,0.6-0.4c0.1-0.2,0.2-0.3,0.2-0.5c0-0.1,0-0.3-0.1-0.5
		c-0.1-0.2-0.1-0.4-0.2-0.6l-0.7-2.4h-4.3c-0.1,0.4-0.3,0.7-0.4,1.1c-0.1,0.3-0.3,0.7-0.4,1.1c-0.1,0.1-0.1,0.3-0.2,0.6
		c-0.1,0.3-0.1,0.5-0.1,0.7c0,0.2,0,0.4,0.1,0.5c0.1,0.1,0.2,0.2,0.4,0.3c0.2,0.1,0.3,0.1,0.5,0.1c0.2,0,0.4,0,0.7,0v0.8
		c-0.5,0-0.9,0-1.4-0.1c-0.4,0-0.8,0-1.2,0c-0.5,0-0.9,0-1.4,0c-0.5,0-0.9,0-1.4,0.1v-0.7c0.4,0,0.7,0,1-0.1
		c0.3-0.1,0.5-0.3,0.7-0.5c0.2-0.3,0.4-0.6,0.7-1.1c0.2-0.5,0.5-1.1,0.8-1.9L23.6,13.5z"/>
	<path fill="#747475" d="M30.9,24c0,0.5,0.1,0.8,0.3,1.2c0.2,0.3,0.4,0.6,0.7,0.8c0.3,0.2,0.6,0.4,1,0.5c0.4,0.1,0.7,0.2,1.1,0.2
		c0.5,0,1-0.1,1.4-0.2c0.4-0.2,0.7-0.4,1-0.6c0.2-0.2,0.4-0.5,0.6-0.8c0.1-0.3,0.2-0.6,0.2-0.9c0-0.5-0.1-0.9-0.3-1.1
		c-0.2-0.3-0.5-0.5-0.8-0.7c-0.1-0.1-0.3-0.2-0.6-0.3c-0.3-0.2-0.6-0.3-0.9-0.5c-0.3-0.2-0.6-0.3-0.9-0.5c-0.3-0.1-0.5-0.3-0.6-0.3
		c-0.9-0.5-1.6-1-1.9-1.5c-0.4-0.5-0.6-1.1-0.6-1.9c0-0.2,0-0.5,0.1-0.8c0.1-0.3,0.1-0.5,0.2-0.8c0.1-0.3,0.2-0.5,0.4-0.8
		c0.2-0.3,0.4-0.5,0.6-0.7c0.4-0.4,0.9-0.7,1.5-0.8c0.6-0.1,1.2-0.2,1.8-0.2c0.3,0,0.7,0,1.1,0.1c0.4,0,0.7,0.1,1,0.1
		c0.3,0,0.5,0.1,0.7,0.1c0.1,0,0.3,0,0.4,0c0,0.3-0.1,0.6-0.1,0.8c0,0.2,0,0.4,0,0.6c0,0.2,0,0.4,0,0.7c0,0.2,0,0.6,0,0.9h-0.8
		c0-0.5-0.1-0.9-0.3-1.2c-0.2-0.3-0.4-0.6-0.6-0.7c-0.3-0.2-0.5-0.3-0.8-0.3c-0.3-0.1-0.5-0.1-0.8-0.1c-0.4,0-0.8,0.1-1.1,0.2
		c-0.3,0.1-0.6,0.3-0.9,0.5s-0.5,0.5-0.6,0.7c-0.1,0.3-0.2,0.6-0.2,1c0,0.4,0.1,0.7,0.2,1c0.1,0.3,0.3,0.5,0.5,0.7
		c0.2,0.2,0.5,0.4,0.8,0.5c0.3,0.2,0.6,0.3,0.9,0.4l1.5,0.7c0.4,0.2,0.7,0.3,1.1,0.5c0.3,0.2,0.6,0.4,0.9,0.7
		c0.3,0.3,0.5,0.6,0.6,0.9c0.2,0.4,0.2,0.8,0.2,1.3c0,0.5-0.1,1.1-0.3,1.6c-0.2,0.5-0.5,1-0.9,1.4c-0.4,0.4-0.9,0.8-1.5,1
		c-0.6,0.3-1.3,0.4-2.2,0.4c-0.2,0-0.5,0-0.9,0c-0.3,0-0.7-0.1-1.1-0.1c-0.4,0-0.7-0.1-1-0.1c-0.3,0-0.6-0.1-0.7-0.1
		c0-0.3,0-0.6,0.1-0.9c0-0.3,0-0.6,0-0.9c0-0.5,0-1-0.1-1.5H30.9z"/>
	<path fill="#747475" d="M38,13.6c0.5,0,1.2,0.1,2,0.1c0.8,0,1.8,0,3.1,0c0.7,0,1.5,0,2.2,0c0.7,0,1.4,0,2,0c0.6,0,1.2,0,1.7,0
		c0.5,0,0.9,0,1.2,0v3.1h-0.8c0-0.5-0.1-0.9-0.2-1.2c-0.1-0.3-0.3-0.5-0.6-0.7c-0.2-0.1-0.5-0.2-0.9-0.3c-0.3,0-0.7,0-1.1,0
		c-0.2,0-0.5,0-0.7,0c-0.2,0-0.5,0-0.7,0c0,0.2,0,0.3,0,0.4c0,0.1,0,0.2,0,0.3c0,0.1,0,0.2,0,0.3V16v8.3c0,0.4,0,0.8,0.1,1.1
		c0,0.3,0.1,0.5,0.3,0.7c0.1,0.2,0.4,0.3,0.6,0.3c0.3,0.1,0.7,0.1,1.2,0.1v0.7c-0.6,0-1.2,0-1.7,0c-0.5,0-1,0-1.5,0c-1,0-2,0-3,0.1
		v-0.7c0.5,0,0.9,0,1.1-0.1c0.3-0.1,0.5-0.2,0.6-0.3c0.2-0.2,0.2-0.4,0.3-0.7c0-0.3,0.1-0.7,0.1-1.2V16v-0.4c0-0.1,0-0.2,0-0.3
		c0-0.1,0-0.2,0-0.3c0-0.1,0-0.2,0-0.4h-0.6c-0.3,0-0.5,0-0.8,0c-0.3,0-0.5,0-0.8,0c-0.2,0-0.4,0-0.6,0c-0.3,0.1-0.5,0.1-0.7,0.3
		c-0.2,0.1-0.3,0.3-0.4,0.5c-0.1,0.2-0.2,0.4-0.2,0.6c0,0.2-0.1,0.5-0.1,0.7H38V13.6z"/>
	<path fill="#747475" d="M49.2,13.5c0.8,0.1,1.5,0.1,2.1,0.1c0.6,0,1.1,0,1.4,0c0.4,0,0.9,0,1.4,0c0.6,0,1.1,0,1.7,0
		c0.6,0,1.1,0,1.7,0c0.5,0,1,0,1.4-0.1c0,0.3,0,0.5-0.1,0.8c0,0.2,0,0.4,0,0.6c0,0.2,0,0.4,0,0.6c0,0.2,0,0.5,0,0.8h-0.7
		c0-0.3,0-0.6-0.1-0.9c-0.1-0.2-0.2-0.4-0.4-0.6c-0.2-0.2-0.5-0.3-0.9-0.4c-0.4-0.1-0.9-0.1-1.5-0.1c-0.3,0-0.7,0-1,0
		c-0.3,0-0.7,0.1-1,0.1c0,0.2,0,0.4,0,0.6c0,0.2,0,0.3,0,0.4c0,0.1,0,0.3,0,0.4v0.5v3h2.2c0.4,0,0.7,0,1-0.1
		c0.2-0.1,0.4-0.2,0.6-0.3c0.1-0.1,0.2-0.3,0.3-0.5c0.1-0.2,0.1-0.5,0.1-0.8H58c0,0.4,0,0.8,0,1.2c0,0.4,0,0.8,0,1.2
		c0,0.6,0,1.2,0.1,1.8h-0.8c0-0.4,0-0.7-0.1-0.9c-0.1-0.2-0.2-0.4-0.3-0.5c-0.1-0.1-0.3-0.2-0.5-0.2c-0.2,0-0.5-0.1-0.8-0.1h-2.4
		v3.5c0,0.4,0,0.7,0,0.9c0,0.2,0.1,0.4,0.1,0.6c0.1,0.2,0.1,0.3,0.2,0.4c0.1,0.1,0.2,0.2,0.3,0.3c0.1,0.1,0.3,0.1,0.7,0.2
		c0.4,0.1,0.9,0.1,1.6,0.1c0.6,0,1.2,0,1.5-0.1c0.4-0.1,0.7-0.2,0.9-0.4c0.2-0.2,0.4-0.4,0.5-0.7c0.1-0.3,0.2-0.5,0.2-0.8l0.7,0.2
		c-0.1,0.3-0.1,0.6-0.1,0.9c0,0.2-0.1,0.4-0.1,0.6c0,0.2-0.1,0.4-0.1,0.6c0,0.2-0.1,0.5-0.1,0.8c-0.8,0-1.5-0.1-2.3-0.1
		c-0.8,0-1.5,0-2.3,0c-0.9,0-1.9,0-2.8,0c-0.9,0-1.9,0.1-2.8,0.1v-0.7c0.4,0,0.7,0,1-0.1c0.3,0,0.5-0.2,0.6-0.4
		c0.2-0.2,0.3-0.5,0.3-1s0.1-1,0.1-1.8v-6.6c0-0.6,0-1-0.1-1.3c-0.1-0.3-0.2-0.6-0.3-0.7c-0.2-0.2-0.4-0.3-0.6-0.3
		c-0.2,0-0.6-0.1-0.9-0.1V13.5z"/>
	<path fill="#747475" d="M59.9,13.5c0.2,0,0.4,0,0.5,0c0.2,0,0.3,0,0.5,0c0.3,0,0.5,0,0.7,0h0.7c0.4,0,0.7,0,0.9,0
		c0.2,0,0.5,0,0.8,0c0.3,0,0.6,0,0.9-0.1c0.3,0,0.6,0,0.9,0c1.4,0,2.5,0.3,3.3,0.9c0.8,0.6,1.1,1.5,1.1,2.6c0,0.7-0.1,1.2-0.4,1.7
		c-0.3,0.4-0.6,0.8-0.9,1.1c-0.3,0.3-0.7,0.5-1.1,0.7c-0.4,0.2-0.7,0.3-0.9,0.3c0.5,0.8,1,1.5,1.5,2.1c0.5,0.6,0.9,1.1,1.3,1.6
		c0.4,0.4,0.7,0.8,0.9,1c0.2,0.2,0.4,0.4,0.4,0.4c0.2,0.2,0.4,0.3,0.5,0.4c0.2,0.1,0.4,0.1,0.7,0.1v0.7c-0.2,0-0.5,0-0.7,0h-0.7
		h-0.7c-0.2,0-0.5,0-0.7,0c-0.5-0.7-0.9-1.3-1.3-1.7c-0.4-0.5-0.7-0.9-0.9-1.3c-0.3-0.4-0.5-0.7-0.7-0.9c-0.2-0.3-0.4-0.5-0.6-0.7
		c-0.2-0.2-0.4-0.4-0.5-0.7c-0.2-0.2-0.4-0.4-0.6-0.7h-0.5c-0.1,0-0.3,0-0.5,0L64,20.4c0.1,0,0.3,0,0.4,0c0.1,0,0.3,0,0.4,0
		c0.7,0,1.3-0.1,1.7-0.3c0.4-0.2,0.8-0.5,1.1-0.8c0.3-0.3,0.4-0.7,0.5-1.1c0.1-0.4,0.1-0.7,0.1-1.1c0-0.6-0.1-1.1-0.3-1.5
		c-0.2-0.4-0.4-0.7-0.6-0.9c-0.3-0.2-0.6-0.3-0.9-0.4c-0.3-0.1-0.7-0.1-1-0.1c-0.4,0-0.7,0-0.9,0c-0.3,0-0.5,0.1-0.8,0.1
		c0,0.2,0,0.4,0,0.6c0,0.2,0,0.4,0,0.6v8.6c0,0.6,0,1,0.1,1.3c0.1,0.3,0.2,0.6,0.3,0.7c0.1,0.2,0.3,0.3,0.6,0.3c0.2,0,0.6,0.1,1,0.1
		v0.7c-0.5,0-1,0-1.5-0.1c-0.4,0-0.9,0-1.4,0c-0.5,0-1,0-1.5,0c-0.5,0-1,0-1.5,0.1v-0.8c0.4,0,0.7,0,0.9-0.1c0.2,0,0.5-0.1,0.6-0.3
		c0.2-0.1,0.3-0.3,0.3-0.6c0.1-0.3,0.1-0.6,0.1-1.1v-8c0-0.5,0-0.9-0.1-1.2c-0.1-0.3-0.2-0.5-0.4-0.6c-0.2-0.1-0.4-0.2-0.6-0.2
		c-0.2,0-0.5,0-0.8,0V13.5z"/>
	<path fill="#747475" d="M72.3,13.5c0.5,0,0.9,0,1.2,0c0.3,0,0.6,0,1,0c0.7,0,1.4,0,2.1-0.1c0.1,0.4,0.2,0.8,0.4,1.1
		c0.1,0.3,0.2,0.6,0.3,0.9c0.1,0.3,0.2,0.5,0.3,0.8c0.1,0.3,0.2,0.6,0.3,0.9c0.1,0.3,0.3,0.7,0.5,1.1c0.2,0.4,0.4,0.9,0.6,1.5
		c0.2,0.5,0.4,0.9,0.5,1.2s0.3,0.6,0.4,0.9c0.1,0.3,0.3,0.6,0.4,0.9c0.1,0.3,0.3,0.7,0.5,1.1c0.2-0.4,0.4-0.8,0.6-1.3
		c0.2-0.5,0.5-1.1,0.7-1.7c0.2-0.6,0.5-1.2,0.8-1.9c0.3-0.7,0.5-1.3,0.8-2c0.3-0.6,0.5-1.3,0.7-1.9c0.2-0.6,0.4-1.2,0.6-1.7
		c0.7,0,1.5,0.1,2.2,0.1c0.4,0,0.7,0,1,0c0.3,0,0.7,0,1.1,0v0.7c-0.5,0-0.8,0-1.1,0.1c-0.3,0.1-0.5,0.2-0.6,0.5
		c-0.1,0.2-0.2,0.5-0.2,0.9c0,0.4,0,0.9,0,1.5v1c0,0.4,0,0.9,0,1.4c0,0.5,0,1,0,1.5c0,0.5,0,1,0,1.5c0,0.5,0,0.9,0,1.3
		c0,0.4,0,0.7,0,0.9c0,0.4,0.1,0.7,0.2,1c0.1,0.2,0.2,0.4,0.4,0.5c0.2,0.1,0.4,0.2,0.6,0.2c0.2,0,0.5,0,0.8,0v0.7
		c-0.5,0-0.9,0-1.4-0.1c-0.5,0-1,0-1.4,0c-0.5,0-1,0-1.4,0c-0.5,0-1,0-1.5,0.1v-0.7c0.4,0,0.8,0,1-0.1c0.3-0.1,0.5-0.2,0.6-0.3
		c0.1-0.2,0.2-0.4,0.3-0.7c0-0.3,0.1-0.7,0.1-1.2c0-1.5,0-3,0-4.6c0-1.5-0.1-3-0.2-4.5l-3.2,7.6c-0.2,0.5-0.4,1-0.6,1.4
		c-0.2,0.4-0.3,0.7-0.4,1c-0.1,0.3-0.2,0.6-0.3,1c-0.1,0.3-0.2,0.7-0.4,1.2h-0.8c-0.1-0.4-0.2-0.7-0.3-1c-0.1-0.3-0.2-0.5-0.3-0.8
		c-0.1-0.2-0.2-0.5-0.3-0.8c-0.1-0.3-0.2-0.6-0.4-1c-0.3-0.7-0.6-1.3-0.8-1.9c-0.2-0.5-0.4-1-0.6-1.5c-0.2-0.4-0.3-0.8-0.5-1.2
		c-0.2-0.4-0.3-0.7-0.4-1.1c-0.1-0.4-0.3-0.8-0.5-1.2c-0.2-0.4-0.3-0.9-0.5-1.4c-0.1,1-0.1,1.9-0.2,2.9c-0.1,1-0.1,1.8-0.1,2.6
		c0,0.8-0.1,1.5-0.1,2.1c0,0.6,0,1,0,1.2c0,0.5,0,0.9,0.1,1.2c0.1,0.3,0.2,0.5,0.3,0.7c0.1,0.2,0.3,0.3,0.6,0.3c0.3,0,0.6,0.1,1,0.1
		v0.7c-0.4,0-0.8,0-1.3-0.1c-0.4,0-0.8,0-1.3,0c-0.4,0-0.8,0-1.3,0c-0.4,0-0.9,0-1.3,0.1v-0.7h0.5c0.3,0,0.5,0,0.7-0.1
		c0.2-0.1,0.4-0.2,0.5-0.3c0.1-0.2,0.2-0.4,0.3-0.7c0.1-0.3,0.1-0.7,0.1-1.2c0-0.3,0-0.6,0-1.1c0-0.4,0-0.9,0.1-1.4
		c0-0.5,0.1-1,0.1-1.5c0-0.5,0-1,0.1-1.4c0-0.4,0-0.8,0.1-1.1c0-0.3,0-0.5,0-0.6c0-0.6,0-1.1,0-1.5c0-0.4-0.1-0.7-0.2-0.9
		c-0.1-0.2-0.3-0.4-0.5-0.4c-0.2-0.1-0.6-0.1-1-0.1V13.5z"/>
	<path fill="#747475" d="M89.5,13.6c0.5,0,1,0,1.4,0.1c0.5,0,1,0,1.4,0c0.5,0,1,0,1.5,0c0.5,0,1,0,1.5-0.1v0.8c-0.4,0-0.7,0-1,0.1
		c-0.3,0-0.5,0.1-0.6,0.3c-0.1,0.1-0.2,0.4-0.3,0.6c-0.1,0.3-0.1,0.6-0.1,1.1v7.2c0,0.6,0,1.1,0,1.4c0,0.4,0.1,0.7,0.2,0.9
		c0.1,0.2,0.3,0.4,0.6,0.5c0.3,0.1,0.6,0.1,1.1,0.1v0.7c-0.5,0-0.9-0.1-1.4-0.1c-0.5,0-0.9,0-1.4,0c-0.5,0-1,0-1.5,0
		c-0.5,0-1,0.1-1.5,0.1v-0.8c0.4,0,0.7,0,1-0.1c0.2-0.1,0.4-0.2,0.6-0.4c0.1-0.2,0.2-0.5,0.3-0.8c0.1-0.3,0.1-0.8,0.1-1.4v-7.1
		c0-0.5,0-0.9-0.1-1.2c0-0.3-0.1-0.6-0.3-0.7c-0.1-0.2-0.3-0.3-0.6-0.4c-0.2-0.1-0.6-0.1-1-0.1L89.5,13.6z"/>
	<path fill="#747475" d="M95.4,13.5c0.6,0,1.2,0.1,1.8,0.1c0.6,0,1.2,0,1.9-0.1c0.3,0.5,0.6,0.9,0.9,1.3c0.2,0.3,0.5,0.7,0.7,1
		c0.2,0.3,0.5,0.7,0.8,1c0.3,0.4,0.6,0.8,1.1,1.4c0.4,0.6,0.8,1.1,1.1,1.5c0.3,0.4,0.6,0.8,0.9,1.1c0.2,0.3,0.5,0.6,0.7,0.9
		c0.2,0.2,0.4,0.5,0.6,0.7c0.2,0.2,0.4,0.5,0.6,0.7c0.2,0.2,0.4,0.5,0.7,0.8l0-6.5c0-0.7-0.1-1.3-0.1-1.7c0-0.4-0.1-0.7-0.2-1
		c-0.1-0.2-0.3-0.4-0.6-0.4c-0.3-0.1-0.6-0.1-1.1-0.1v-0.7c0.4,0,0.9,0,1.3,0.1c0.4,0,0.8,0,1.3,0c0.4,0,0.9,0,1.3,0
		c0.4,0,0.9,0,1.3-0.1v0.8c-0.5,0-0.8,0-1.1,0.1c-0.3,0.1-0.5,0.2-0.6,0.4c-0.1,0.2-0.2,0.5-0.3,0.8c0,0.4-0.1,0.8-0.1,1.4l-0.2,8.1
		c0,0.2,0,0.4,0,0.6c0,0.2,0,0.3,0,0.5c0,0.2,0,0.3,0,0.5c0,0.2,0,0.4,0,0.6h-1c-0.2-0.3-0.3-0.5-0.5-0.7c-0.2-0.2-0.3-0.5-0.5-0.7
		c-0.2-0.2-0.4-0.5-0.6-0.8c-0.2-0.3-0.5-0.7-0.9-1.1c-0.3-0.4-0.8-1-1.2-1.6s-1-1.3-1.7-2.2c-0.4-0.5-0.7-0.9-1-1.3
		c-0.3-0.4-0.6-0.7-0.8-1.1c-0.3-0.3-0.5-0.7-0.8-1c-0.3-0.3-0.5-0.7-0.8-1.1l0,8.5c0,0.6,0.1,1,0.1,1.4c0.1,0.3,0.2,0.6,0.5,0.8
		c0.1,0,0.1,0.1,0.2,0.1c0.1,0,0.1,0.1,0.2,0.1c0.1,0,0.2,0,0.4,0c0.2,0,0.4,0,0.6,0v0.8c-0.9,0-1.8-0.1-2.7-0.1
		c-0.8,0-1.7,0-2.5,0.1v-0.8c0.5,0,0.9,0,1.1-0.1c0.3-0.1,0.5-0.2,0.6-0.5c0.1-0.3,0.2-0.6,0.2-1.1c0-0.5,0.1-1.1,0.1-1.9l0.1-5.8
		c0-0.5,0-0.9,0-1.2c0-0.3,0-0.5-0.1-0.7c-0.1-0.2-0.1-0.3-0.2-0.4c-0.1-0.1-0.2-0.2-0.4-0.3c-0.2-0.1-0.4-0.1-0.5-0.1
		c-0.2,0-0.4,0-0.6,0V13.5z"/>
	<path fill="#747475" d="M113.9,22.3c0,0.6,0,1.1,0,1.5c0,0.4,0,0.6,0,0.8c0,0.2,0,0.4,0,0.5c0,0.1,0,0.2,0.1,0.4
		c0,0.2,0.1,0.3,0.2,0.5c0.1,0.1,0.2,0.2,0.3,0.3c0.1,0.1,0.3,0.1,0.5,0.2s0.5,0,0.8,0c0.9,0,1.7-0.1,2.4-0.3s1.2-0.5,1.6-0.9
		c0.1-0.1,0.3-0.3,0.5-0.5c0.2-0.2,0.4-0.5,0.6-0.9c0.2-0.4,0.3-0.9,0.5-1.4c0.1-0.6,0.2-1.3,0.2-2.2c0-0.4,0-0.9-0.1-1.3
		c-0.1-0.4-0.1-0.9-0.3-1.3c-0.1-0.4-0.3-0.8-0.5-1.2c-0.2-0.4-0.5-0.7-0.8-1c-0.5-0.4-1-0.7-1.6-0.9c-0.6-0.1-1.3-0.2-2-0.2
		c-0.5,0-0.9,0-1.3,0.1c-0.4,0-0.7,0.1-1,0.1c0,0.4,0,0.8,0,1.1c0,0.3,0,0.6,0,0.9c0,0.3,0,0.5,0,0.8c0,0.3,0,0.6,0,1V22.3z
		 M110.1,13.6c0.3,0,0.7,0,1.1,0.1c0.4,0,0.8,0,1.1,0c0.3,0,0.6,0,0.9,0c0.3,0,0.7,0,1.1-0.1c0.4,0,0.8,0,1.3-0.1c0.4,0,0.7,0,0.9,0
		c1.4,0,2.5,0.2,3.4,0.4c0.9,0.3,1.6,0.7,2.1,1.2c0.4,0.3,0.6,0.7,0.9,1.1c0.2,0.4,0.4,0.8,0.6,1.2c0.1,0.4,0.2,0.8,0.3,1.2
		c0.1,0.4,0.1,0.8,0.1,1.2c0,1-0.2,2-0.5,2.9c-0.4,0.9-0.9,1.7-1.6,2.4c-0.7,0.7-1.5,1.2-2.5,1.6c-1,0.4-2.1,0.6-3.4,0.6
		c-0.6,0-1.2,0-1.8-0.1c-0.6-0.1-1.3-0.1-2.1-0.1c-0.4,0-0.7,0-1,0c-0.3,0-0.6,0-0.9,0.1v-0.8c0.4,0,0.8,0,1.1-0.1
		c0.3-0.1,0.5-0.2,0.6-0.4c0.1-0.2,0.2-0.6,0.3-1.1c0-0.5,0.1-1.1,0.1-2v-5.2c0-0.5,0-0.9,0-1.2c0-0.3,0-0.6-0.1-0.9
		c0-0.2-0.1-0.4-0.1-0.6c-0.1-0.2-0.2-0.3-0.3-0.4c-0.2-0.1-0.4-0.2-0.6-0.3c-0.2,0-0.5,0-0.9,0V13.6z"/>
	<path fill="#747475" d="M92.5,31.4h0.1c0.1,0,0.1,0,0.1,0c0,0,0.1,0,0.1,0c0.1,0,0.1,0,0.2-0.1c0,0,0.1-0.1,0.1-0.2
		c0-0.1,0-0.1,0-0.1c0,0-0.1-0.1-0.1-0.1c0,0-0.1,0-0.1,0c0,0-0.1,0-0.1,0c-0.1,0-0.1,0-0.1,0c0,0-0.1,0-0.1,0c0,0,0,0,0,0.1
		c0,0,0,0.1,0,0.1V31.4z M93.5,32c0,0,0,0.1,0,0.1c0,0,0,0.1,0,0.1c0,0,0,0.1-0.1,0.1s-0.1,0-0.1,0c-0.1,0-0.1,0-0.1,0
		c0,0-0.1-0.1-0.1-0.1c0,0,0-0.1-0.1-0.1c0-0.1,0-0.1,0-0.2c0-0.1,0-0.1,0-0.2c0,0,0-0.1,0-0.1c0,0,0,0-0.1-0.1c0,0-0.1,0-0.1,0
		h-0.1V32c0,0,0,0.1,0,0.1c0,0,0,0,0,0.1c0,0,0,0,0.1,0c0,0,0.1,0,0.1,0v0.1c-0.1,0-0.1,0-0.1,0c0,0-0.1,0-0.1,0c-0.1,0-0.1,0-0.2,0
		c-0.1,0-0.1,0-0.2,0v-0.1c0,0,0.1,0,0.1,0c0,0,0,0,0,0c0,0,0,0,0-0.1s0-0.1,0-0.1v-0.9c0,0,0-0.1,0-0.1c0,0,0,0,0-0.1c0,0,0,0,0,0
		c0,0-0.1,0-0.1,0v-0.1c0.1,0,0.1,0,0.1,0c0,0,0.1,0,0.1,0h0.1h0c0,0,0,0,0.1,0c0,0,0.1,0,0.1,0c0,0,0.1,0,0.1,0c0,0,0.1,0,0.1,0
		c0.1,0,0.1,0,0.2,0c0.1,0,0.1,0,0.2,0c0.1,0,0.1,0.1,0.1,0.1c0,0.1,0.1,0.1,0.1,0.2c0,0,0,0.1,0,0.1c0,0,0,0.1-0.1,0.1
		c0,0-0.1,0.1-0.1,0.1c0,0-0.1,0-0.2,0.1c0,0,0.1,0,0.1,0.1c0,0,0,0,0.1,0.1c0,0,0,0.1,0,0.1c0,0,0,0.1,0,0.1l0,0.1
		c0,0.1,0,0.1,0,0.1c0,0,0,0,0.1,0c0,0,0,0,0.1,0c0,0,0-0.1,0.1-0.2L93.5,32z M93.8,31.6c0-0.2,0-0.3-0.1-0.4
		c-0.1-0.1-0.1-0.3-0.2-0.4c-0.1-0.1-0.2-0.2-0.4-0.2c-0.1-0.1-0.3-0.1-0.5-0.1c-0.2,0-0.3,0-0.5,0.1c-0.1,0.1-0.3,0.1-0.4,0.2
		c-0.1,0.1-0.2,0.2-0.2,0.4c-0.1,0.1-0.1,0.3-0.1,0.4c0,0.2,0,0.3,0.1,0.4c0.1,0.1,0.1,0.3,0.2,0.4c0.1,0.1,0.2,0.2,0.4,0.2
		c0.1,0.1,0.3,0.1,0.4,0.1c0.2,0,0.3,0,0.4-0.1c0.1-0.1,0.3-0.1,0.4-0.2c0.1-0.1,0.2-0.2,0.2-0.4C93.8,31.9,93.8,31.8,93.8,31.6
		 M94,31.6c0,0.2,0,0.3-0.1,0.5c-0.1,0.1-0.2,0.3-0.3,0.4c-0.1,0.1-0.2,0.2-0.4,0.3c-0.2,0.1-0.3,0.1-0.5,0.1c-0.2,0-0.3,0-0.5-0.1
		c-0.2-0.1-0.3-0.1-0.4-0.3c-0.1-0.1-0.2-0.2-0.3-0.4c-0.1-0.2-0.1-0.3-0.1-0.5c0-0.2,0-0.3,0.1-0.5c0.1-0.2,0.2-0.3,0.3-0.4
		c0.1-0.1,0.2-0.2,0.4-0.3c0.2-0.1,0.3-0.1,0.5-0.1c0.2,0,0.3,0,0.5,0.1c0.2,0.1,0.3,0.2,0.4,0.3c0.1,0.1,0.2,0.2,0.3,0.4
		C93.9,31.3,94,31.4,94,31.6"/>
</g>
</svg>
