<?xml version="1.0" encoding="utf-8"?>
<!-- Generator: Adobe Illustrator 19.0.0, SVG Export Plug-In . SVG Version: 6.00 Build 0)  -->
<!DOCTYPE svg PUBLIC "-//W3C//DTD SVG 1.1//EN" "http://www.w3.org/Graphics/SVG/1.1/DTD/svg11.dtd">
<svg version="1.1" id="Layer_1" xmlns="http://www.w3.org/2000/svg" xmlns:xlink="http://www.w3.org/1999/xlink" x="0px" y="0px"
	 viewBox="0 0 612 792" enable-background="new 0 0 612 792" xml:space="preserve">
<g id="XMLID_8949_">
	<path id="XMLID_446_" fill="#A4A3A3" d="M306.1,561.6c-0.1,0-0.2,0-0.3,0c-4.8,0-9.9-0.9-13.2-2.4l-167.8-73.3
		c-6.5-2.5-13-12.4-12.7-19.4V326.2c-0.3-7,6.2-16.9,12.7-19.4l167.8-73.3c3.3-1.5,8.4-2.4,13.3-2.4c4.9,0,10,0.9,13.3,2.4
		L487,306.8c6.5,2.5,13,12.4,12.7,19.4v140.3c0.3,7-6.2,16.9-12.7,19.4l-167.8,73.3C316,560.7,311,561.6,306.1,561.6z M305.9,555.6
		c4.1,0,8.4-0.7,10.9-1.9l168-73.4c4.1-1.6,9.1-9.2,8.9-13.6l0-0.1l0-140.5c0.2-4.4-4.8-12.1-8.9-13.6l-0.1-0.1L316.8,239
		c-2.6-1.2-6.9-1.9-10.9-1.9c-4.1,0-8.3,0.7-10.9,1.8l-168,73.4c-4.1,1.6-9.1,9.2-8.9,13.6l0,0.2l0,140.6
		c-0.2,4.4,4.8,12.1,8.9,13.6l0.1,0.1L295,553.7C297.6,554.9,301.9,555.6,305.9,555.6z"/>
</g>
<g id="XMLID_9109_">
	<g id="XMLID_9116_">
		<path id="XMLID_391_" fill="#A4A3A3" d="M323.2,495.4c-1.4-0.4-2.8-0.6-4.2-0.6c0.1,0.8,0.2,1.5,0.2,2.3c1.1,0,2.2,0.1,3.2,0.5
			c5.2,1.7,8.1,7.3,6.4,12.5c-0.7,2.1-2,3.9-3.7,5c-0.3,0.2-0.6,0.4-0.8,0.5c-0.7,0.4-1.4,0.7-2.2,0.9c-0.4,0.1-0.7,0.2-1.1,0.2
			c-1.5,0.2-3.1,0.2-4.6-0.4c-1.5-0.5-2.9-1.3-4-2.4c-0.3-0.3-0.5-0.5-0.7-0.8c0.4-0.1,0.7-0.2,1.1-0.2c1.5-0.3,3.1-0.1,4.7,0.4
			c1.6,0.5,2.9,1.4,4,2.4c0.8-0.2,1.6-0.5,2.3-0.9c-1.4-1.7-3.3-3-5.6-3.8c-2.2-0.7-4.5-0.8-6.7-0.2c-0.3,0.1-0.6,0.2-1,0.3
			c-0.6,0.2-1.1,0.4-1.6,0.7l0,0c-0.2,0.1-0.3,0.2-0.5,0.2c0.1,0.2,0.1,0.3,0.2,0.5c0.3,0.5,0.6,1,0.9,1.5c0.2,0.3,0.4,0.5,0.6,0.8
			c1.5,1.7,3.4,3,5.6,3.8c2.3,0.7,4.6,0.8,6.7,0.2c0.3-0.1,0.6-0.2,1-0.3c0.7-0.2,1.4-0.6,2.1-0.9c0.3-0.2,0.6-0.3,0.8-0.5
			c2.2-1.5,3.9-3.6,4.8-6.3C333.1,504.4,329.6,497.5,323.2,495.4z"/>
		<path id="XMLID_392_" fill="#A4A3A3" d="M323.7,519.5c0.7,2,0.8,4.2,0.1,6.3c-1.7,5.2-7.3,8.1-12.5,6.4c-1.1-0.3-2-0.9-2.9-1.5
			c-0.3-0.2-0.5-0.4-0.8-0.6c-0.6-0.5-1.1-1.1-1.5-1.8c-0.2-0.3-0.4-0.6-0.6-1c-0.7-1.4-1.1-2.9-1.1-4.5c0-1,0.2-2.1,0.5-3.1
			c0.2-0.5,0.4-1,0.6-1.5c0.2-0.3,0.4-0.7,0.6-1c0.2,0.3,0.4,0.6,0.6,1c0,0,0,0,0,0c1.2,2.4,1.4,5,0.6,7.6c-0.2,0.5-0.4,1-0.6,1.5
			c0.4,0.7,0.9,1.4,1.5,1.9c0.5-0.8,1-1.7,1.3-2.7c1-3.1,0.8-6.4-0.7-9.3c-0.2-0.3-0.3-0.6-0.5-0.9c-0.2-0.3-0.4-0.6-0.6-0.8
			c-0.5-0.6-1-1.2-1.5-1.7c-0.6,0.5-1.1,1.1-1.5,1.7c-0.2,0.3-0.4,0.5-0.6,0.8c-0.5,0.8-0.9,1.7-1.3,2.7c-0.4,1.2-0.6,2.5-0.6,3.8
			c0,2.4,0.7,4.6,1.8,6.5c0.2,0.3,0.4,0.6,0.6,0.8c0.5,0.6,1,1.2,1.5,1.7c0.2,0.2,0.5,0.4,0.8,0.6c1.1,0.9,2.3,1.5,3.7,2
			c6.4,2.1,13.3-1.4,15.4-7.8c0.9-2.7,0.8-5.5-0.1-7.9C325.1,519,324.4,519.3,323.7,519.5z"/>
		<path id="XMLID_393_" fill="#A4A3A3" d="M303.7,530.7c-2.5,1.9-5.8,2.5-9,1.5c-2.5-0.8-4.6-2.6-5.8-4.9c-1.2-2.4-1.4-5.1-0.6-7.6
			c0-0.1,0-0.1,0.1-0.2c0.1-0.3,0.2-0.6,0.4-0.9c0.3-0.7,0.8-1.4,1.2-2c0.2-0.3,0.5-0.6,0.8-0.8c2.2-2.2,5.4-3.3,8.6-2.8
			c0.4,0.1,0.7,0.1,1.1,0.2c-0.2,0.3-0.5,0.6-0.7,0.8c-0.7,0.7-1.6,1.4-2.5,1.8c-1.9,1-4,1.3-6.1,1c-0.5,0.6-1,1.3-1.4,2.1
			c2.9,0.7,5.8,0.4,8.5-1c1.5-0.8,2.8-1.8,3.8-3c0.2-0.3,0.4-0.5,0.6-0.8c0.4-0.6,0.8-1.3,1.1-2c-0.7-0.4-1.4-0.7-2.1-0.9
			c0,0-0.1,0-0.1,0c-0.3-0.1-0.6-0.2-0.8-0.2c-4.6-1.2-9.4,0.5-12.3,4c-0.2,0.3-0.4,0.5-0.6,0.8c-0.4,0.6-0.8,1.3-1.1,2
			c-0.1,0.3-0.3,0.6-0.4,0.9c0,0.1-0.1,0.2-0.1,0.4c-1,3.1-0.7,6.4,0.7,9.3c1.5,2.9,4,5.1,7.1,6.1c4,1.3,8.2,0.4,11.3-2
			C304.7,531.9,304.2,531.3,303.7,530.7z"/>
		<path id="XMLID_394_" fill="#A4A3A3" d="M287,515.2c-1.3-0.9-2.4-2.1-3.1-3.6c-1.2-2.4-1.4-5-0.6-7.6c1.4-4.2,5.3-6.9,9.6-6.8
			c0.3,0,0.7,0,1,0.1c0.6,0.1,1.3,0.2,1.9,0.4c0.1,0,0.3,0.1,0.4,0.1c0.4,0.1,0.7,0.3,1,0.4c2.9,1.5,4.8,4.2,5.3,7.3
			c0.1,0.4,0.1,0.7,0.1,1.1c-0.3-0.1-0.7-0.3-1-0.4c-1.9-0.9-3.4-2.4-4.4-4.3c-0.5-1-0.8-2-1-3c-0.3-0.1-0.5-0.2-0.8-0.3
			c-0.5-0.2-1.1-0.3-1.6-0.4c0.1,1.6,0.5,3.2,1.3,4.7c1.4,2.7,3.6,4.7,6.3,5.8c0.3,0.1,0.5,0.2,0.8,0.3c0,0,0.1,0,0.1,0
			c0.7,0.2,1.5,0.4,2.2,0.5c0.2-0.8,0.2-1.5,0.2-2.3c0-0.3,0-0.7,0-1c-0.3-4.5-3.2-8.7-7.6-10.5c-0.3-0.1-0.5-0.2-0.8-0.3
			c-0.1,0-0.1,0-0.1,0c-0.7-0.2-1.5-0.4-2.2-0.5c-0.3,0-0.7-0.1-1-0.1c-5.3-0.2-10.3,3.1-12,8.4c-1,3.1-0.7,6.4,0.7,9.3
			c1,1.9,2.3,3.4,4,4.6C286.2,516.4,286.5,515.8,287,515.2z"/>
		<path id="XMLID_395_" fill="#A4A3A3" d="M296.6,494.3c1.7-5.2,7.3-8.1,12.5-6.4c3.2,1,5.5,3.5,6.4,6.5c0.1,0.3,0.2,0.6,0.2,1
			c0.2,0.8,0.2,1.6,0.2,2.4c0,0.4,0,0.7-0.1,1.1c-0.1,0.5-0.2,1-0.4,1.5c-0.8,2.5-2.6,4.6-4.9,5.8c0,0,0,0,0,0
			c-0.3,0.2-0.7,0.3-1,0.4c0-0.4,0-0.7,0.1-1.1c0.1-0.5,0.2-1,0.4-1.5l0,0c0.8-2.6,2.7-4.6,5-5.8c0.1-0.8,0-1.7-0.1-2.5
			c-3.2,1.3-5.9,4-7,7.5c-0.3,1-0.5,1.9-0.6,2.9c0,0.3,0,0.6,0,0.9c0,0,0,0.1,0,0.1c0,0.8,0.1,1.5,0.2,2.3c0.8-0.1,1.5-0.2,2.2-0.5
			c0.3-0.1,0.6-0.2,0.9-0.3c0.3-0.1,0.6-0.3,1-0.4c2.9-1.5,5.1-4,6.1-7.1c0.3-1,0.5-1.9,0.6-2.9c0-0.3,0-0.7,0-1
			c0-0.8-0.1-1.5-0.2-2.3c-0.1-0.3-0.1-0.7-0.2-1c-1.1-3.8-4-6.9-7.9-8.2c-6.4-2.1-13.3,1.4-15.4,7.8l0,0c0,0.1-0.1,0.3-0.1,0.4
			c0.8,0.1,1.5,0.3,2.3,0.5C296.6,494.4,296.6,494.3,296.6,494.3z"/>
	</g>
</g>
<g id="XMLID_8993_">
	<g id="XMLID_9038_">
		<path id="XMLID_9079_" fill="#A4A3A3" d="M190.2,451.1v-2c3.3-0.4,3.6-1.2,2.6-4.2c-0.6-1.9-1.3-4.3-2-6.4h-10.6
			c-0.5,1.5-1.2,3.6-1.9,6c-0.9,3.3-0.7,4,3.5,4.6v2H169v-2c3.5-0.4,4.4-1,6.1-5.7l11.6-32l2.9-0.7c3.6,10.7,7,21.2,10.7,31.8
			c1.9,5.5,2.7,6.2,6,6.5v2H190.2z M185.6,421.9h-0.2c-1.6,4.6-2.8,8.9-4.3,13.4h8.6L185.6,421.9z"/>
		<path id="XMLID_9068_" fill="#A4A3A3" d="M241,441.3c-0.7,2.7-2,7-2.9,9.1c-1.5,0.4-6.1,1.5-9.9,1.5c-14.4,0-20-10.4-20-20
			c0-12.5,8.4-21.2,21.5-21.2c3.9,0,7.7,0.9,9.3,1.3c0.4,3.4,0.7,6.2,1,9.5l-2.1,0.4c-1.9-6.7-5.4-8.8-9.5-8.8
			c-7,0-11.4,8.3-11.4,17.5c0,11,5,18.7,11.7,18.7c4.4,0,7.5-3.3,10.1-8.8L241,441.3z"/>
		<path id="XMLID_9065_" fill="#A4A3A3" d="M263.8,451.1v-2c3.3-0.4,3.6-1.2,2.6-4.2c-0.6-1.9-1.3-4.3-2-6.4h-10.6
			c-0.5,1.5-1.2,3.6-1.9,6c-0.9,3.3-0.7,4,3.5,4.6v2h-12.8v-2c3.5-0.4,4.4-1,6.1-5.7l11.6-32l2.9-0.7c3.6,10.7,7,21.2,10.7,31.8
			c1.9,5.5,2.7,6.2,6,6.5v2H263.8z M259.3,421.9h-0.2c-1.6,4.6-2.8,8.9-4.3,13.4h8.6L259.3,421.9z"/>
		<path id="XMLID_9062_" fill="#A4A3A3" d="M299,411.5c7.3,0,12.6,1.5,16.1,5.4c2.7,2.9,4.7,7.3,4.7,12.9c0,7.6-2.6,12.8-6.7,16.3
			c-4.1,3.5-9.7,5.1-16.6,5.1h-13.8v-2c4.4-0.3,4.9-0.9,4.9-6v-23.4c0-5.2-0.5-5.7-4.6-6v-2H299z M295.6,443c0,4.1,1,5.6,4.1,5.6
			c6.1,0,11.3-5.9,11.3-17.7c0-6.2-1.5-10.8-3.9-13.5c-2.2-2.5-5-3.5-8.1-3.5c-1.5,0-2.4,0.3-2.8,0.6c-0.4,0.4-0.6,1.2-0.6,3.1V443z
			"/>
		<path id="XMLID_9051_" fill="#A4A3A3" d="M353.6,441.4c-0.4,2.3-1.5,7.8-2,9.6h-28.7v-2c4.6-0.4,5.1-0.7,5.1-5.8v-24.1
			c0-5-0.6-5.3-4.4-5.7v-2h26.6c0.1,1,0.4,5.3,0.6,8.8l-2.1,0.3c-0.6-2.2-1.2-3.9-2.2-4.9c-0.9-1.1-2.5-1.7-6.2-1.7h-2.2
			c-2,0-2.2,0.2-2.2,2.2v13h3.5c4.9,0,5.4-0.2,6.4-4.6h2.1v12.1h-2.1c-0.9-4.4-1.4-4.6-6.4-4.6h-3.5v11.2c0,2.9,0.3,4.3,1.3,4.8
			c0.9,0.6,2.6,0.7,4.8,0.7c3.3,0,5.1-0.5,6.4-2c1-1.3,2.1-3.1,3.1-5.7L353.6,441.4z"/>
		<path id="XMLID_9041_" fill="#A4A3A3" d="M385.2,451.1v-2c4.2-0.4,4.4-0.6,4.4-6.1l-0.1-24.2h-0.2l-12,31.8h-1.9l-11-31h-0.3
			l-0.6,15.8c-0.2,5.1-0.3,8.1-0.1,9.9c0.2,2.8,1.4,3.5,5.2,3.8v2h-13.6v-2c3.2-0.3,4.1-1.2,4.5-3.3c0.3-1.9,0.7-5.4,1.1-11.2
			l0.9-13.1c0.4-6.7,0.1-7.5-4.7-7.9v-2h12l10.2,26.2l10.5-26.2h11.9v2c-4.6,0.4-4.8,0.8-4.7,5.6l0.6,23.8c0.1,5.4,0.4,5.6,4.6,6.1
			v2H385.2z"/>
		<path id="XMLID_9039_" fill="#A4A3A3" d="M439.6,413.5c-3.5,0.4-4.4,1-6.5,4.9c-2.2,3.9-3.6,6.5-6.4,12.5c-0.7,1.5-0.9,2-0.9,4.1
			v7.9c0,5.2,0.4,5.7,5.4,6.1v2h-18.4v-2c4.6-0.4,5.1-0.9,5.1-6.1v-7.1c0-1.5-0.1-2.2-0.6-3.2c-1.5-3.5-3.5-7.3-7.2-14.5
			c-1.9-3.8-2.8-4.3-5.8-4.6v-2h16.2v2c-3.6,0.6-3.5,1.1-2.5,3.5c1.9,4.3,4.1,8.8,6.3,13.3c1.5-3.3,4.3-9,5.8-13.2
			c0.9-2.4,0.7-3.1-3.6-3.6v-2h13.1V413.5z"/>
	</g>
	<g id="XMLID_9017_">
		<polygon id="XMLID_406_" fill="#A4A3A3" points="145.9,443.5 143.1,435.9 133.3,436 141.1,430 137.9,420.7 146,426.2 153.9,420.4 
			151.2,429.8 159.2,435.4 149.4,435.8 146.5,445.1 		"/>
		<g id="XMLID_9018_">
			<polygon id="XMLID_407_" fill="#A4A3A3" points="146.1,431.5 146.1,431.5 146.1,431.5 146.1,431.5 146.1,431.5 			"/>
			<polygon id="XMLID_408_" fill="#A4A3A3" points="146.1,431.5 146.1,431.5 146.1,431.5 			"/>
			<polygon id="XMLID_409_" fill="#A4A3A3" points="146.1,431.5 146.1,431.5 146.1,431.5 			"/>
			<polygon id="XMLID_410_" fill="#A4A3A3" points="150.6,430 150.6,430 153,421.7 152.7,421.9 146.1,431.5 			"/>
			<polygon id="XMLID_411_" fill="#A4A3A3" points="146.1,431.5 146.1,431.5 146.1,431.5 			"/>
			<rect id="XMLID_412_" x="146.1" y="431.5" fill="#A4A3A3" width="0" height="0"/>
			<polygon id="XMLID_413_" fill="#A4A3A3" points="146.1,431.5 146.1,431.5 146.1,431.5 			"/>
			<polygon id="XMLID_414_" fill="#A4A3A3" points="146.1,431.5 152.7,421.9 146,426.8 146.1,431.5 			"/>
			<polygon id="XMLID_415_" fill="#A4A3A3" points="146.1,431.5 149,435.3 157.7,435 157.7,435 146.1,431.5 			"/>
			<polygon id="XMLID_416_" fill="#A4A3A3" points="146.1,431.5 143.5,435.4 146.3,443.3 146.1,431.5 			"/>
			<polygon id="XMLID_417_" fill="#A4A3A3" points="146.1,431.5 146,426.8 146,426.8 138.9,422 146.1,431.5 			"/>
			<polygon id="XMLID_418_" fill="#A4A3A3" points="146.1,431.5 146.1,431.5 146.1,431.5 157.7,435 150.6,430 			"/>
			<polygon id="XMLID_419_" fill="#A4A3A3" points="146.3,443.3 146.4,443.5 149,435.3 146.1,431.5 			"/>
			<polygon id="XMLID_420_" fill="#A4A3A3" points="146.1,431.5 146.1,431.5 135.1,435.3 134.8,435.5 143.5,435.4 143.5,435.4 
				146.1,431.5 			"/>
			<polygon id="XMLID_421_" fill="#A4A3A3" points="146.1,431.5 138.9,422 141.6,430.2 146.1,431.5 			"/>
			<polygon id="XMLID_422_" fill="#A4A3A3" points="141.6,430.2 141.6,430.2 135.1,435.3 146.1,431.5 			"/>
		</g>
	</g>
	<g id="XMLID_8994_">
		<polygon id="XMLID_423_" fill="#A4A3A3" points="459.2,442.9 456.4,435.3 446.6,435.5 454.3,429.4 451.2,420.1 459.3,425.6 
			467.2,419.8 464.5,429.2 472.5,434.9 462.7,435.2 459.7,444.6 		"/>
		<g id="XMLID_8995_">
			<polygon id="XMLID_424_" fill="#A4A3A3" points="459.4,430.9 459.4,430.9 459.4,430.9 459.4,430.9 459.4,430.9 			"/>
			<polygon id="XMLID_425_" fill="#A4A3A3" points="459.4,430.9 459.4,430.9 459.4,430.9 			"/>
			<polygon id="XMLID_426_" fill="#A4A3A3" points="459.4,430.9 459.4,430.9 459.4,430.9 			"/>
			<polygon id="XMLID_427_" fill="#A4A3A3" points="463.9,429.4 463.9,429.4 466.3,421.1 466,421.3 459.4,430.9 			"/>
			<polygon id="XMLID_428_" fill="#A4A3A3" points="459.4,430.9 459.4,430.9 459.4,430.9 			"/>
			<rect id="XMLID_429_" x="459.4" y="430.9" fill="#A4A3A3" width="0" height="0"/>
			<polygon id="XMLID_430_" fill="#A4A3A3" points="459.4,430.9 459.4,430.9 459.4,430.9 			"/>
			<polygon id="XMLID_431_" fill="#A4A3A3" points="459.4,430.9 466,421.3 459.3,426.3 459.4,430.9 			"/>
			<polygon id="XMLID_432_" fill="#A4A3A3" points="459.4,430.9 462.3,434.7 470.9,434.4 470.9,434.4 459.4,430.9 			"/>
			<polygon id="XMLID_433_" fill="#A4A3A3" points="459.4,430.9 456.7,434.8 459.6,442.8 459.4,430.9 			"/>
			<polygon id="XMLID_434_" fill="#A4A3A3" points="459.4,430.9 459.3,426.3 459.3,426.3 452.2,421.4 459.4,430.9 			"/>
			<polygon id="XMLID_435_" fill="#A4A3A3" points="459.4,430.9 459.4,430.9 459.4,430.9 470.9,434.4 463.9,429.4 			"/>
			<polygon id="XMLID_436_" fill="#A4A3A3" points="459.6,442.8 459.7,443 462.3,434.7 459.4,430.9 			"/>
			<polygon id="XMLID_437_" fill="#A4A3A3" points="459.4,430.9 459.4,430.9 448.4,434.7 448.1,434.9 456.7,434.8 456.7,434.8 
				459.4,430.9 			"/>
			<polygon id="XMLID_438_" fill="#A4A3A3" points="459.4,430.9 452.2,421.4 454.9,429.6 459.4,430.9 			"/>
			<polygon id="XMLID_439_" fill="#A4A3A3" points="454.9,429.6 454.9,429.6 448.4,434.7 459.4,430.9 			"/>
		</g>
	</g>
</g>
<g id="XMLID_440_">
	<g id="XMLID_509_">
		<path id="XMLID_515_" fill="#A4A3A3" d="M188.8,373.4v-3.1c9.4-0.7,10.3-1.3,10.3-10.9v-44.9c0-9.5-0.9-10.2-10.3-10.9v-3.1h30.3
			v3.1c-9.4,0.7-10.3,1.3-10.3,10.9v44.9c0,9.7,0.9,10.2,10.3,10.9v3.1H188.8z"/>
		<path id="XMLID_514_" fill="#A4A3A3" d="M286,358.9c-7.3-19.5-15-40.9-22.1-60.2l-3.5,1l-23.7,59c-4,9.9-5.6,10.6-12.8,11.6v3.1
			h24.8v-3.1c-8.6-0.8-9.6-1.9-7.1-9c1.5-4.7,3.2-9.4,5-14.5l1.7-4.8c3.4-9.2,7.1-19,10.7-28.6h0.2l10.1,28.6h-12.9
			c0-0.2,2.1,4.7,2.1,4.7l12.4,0.1c2.5,6.9,4.8,12.9,6.3,17.3c1.5,4.4,0.5,5.3-6.7,6.2v3.1h28v-3.1
			C291.2,369.5,289.7,368.5,286,358.9z"/>
		<path id="XMLID_512_" fill="#A4A3A3" d="M366.4,342.6c-6.9,1-7.3,1.6-7.3,8.2v9.5c0,3.9,0.1,7.5,0.8,10.6
			c-7.1,1.7-16.5,4.2-25.6,4.2c-25.1,0-42-15.4-42-37.6c0-26.1,21.3-38.7,43.7-38.7c9.5,0,18.3,2.5,21.9,3.3
			c0.3,3.9,0.9,10.1,1.8,17.5l-3.2,0.7c-2.7-13.7-11.4-17.4-22.3-17.4c-17.5,0-30.3,12.6-30.3,33.4c0,16.2,9.7,35,31.8,35
			c3.9,0,7.4-0.8,9.9-2c2.3-1.2,3.7-2.6,3.7-7.3v-9.5c0-8.1-0.8-8.8-12-9.7v-3h29V342.6z"/>
		<path id="XMLID_510_" fill="#A4A3A3" d="M427.9,355.7c-0.7,3.5-3.1,14.2-4.1,17.6H372v-3.1c9.6-0.7,10.5-1.5,10.5-11v-44.9
			c0-9.5-0.8-10.1-10.1-10.8v-3.1h29.8v3.1c-9,0.7-10.1,1.2-10.1,10.8v44.4c0,6.1,0.6,8.3,2.6,9.4c2.3,1.2,6.2,1.5,11,1.5
			c6.3,0,10.2-0.6,12.8-3.5c1.9-2.2,4.1-5.8,5.8-11L427.9,355.7z"/>
	</g>
</g>
<line id="XMLID_445_" fill="none" stroke="#A4A3A3" stroke-width="6" stroke-miterlimit="10" x1="118.1" y1="393" x2="493.7" y2="393"/>
<line id="XMLID_450_" fill="none" stroke="#A4A3A3" stroke-width="6" stroke-miterlimit="10" x1="118.1" y1="470.1" x2="493.7" y2="470.1"/>
</svg>
