<?xml version="1.0" encoding="utf-8"?>
<!-- Generator: Adobe Illustrator 19.0.0, SVG Export Plug-In . SVG Version: 6.00 Build 0)  -->
<!DOCTYPE svg PUBLIC "-//W3C//DTD SVG 1.1//EN" "http://www.w3.org/Graphics/SVG/1.1/DTD/svg11.dtd">
<svg version="1.1" id="Layer_1" xmlns="http://www.w3.org/2000/svg" xmlns:xlink="http://www.w3.org/1999/xlink" x="0px" y="0px"
	 viewBox="0 0 123.8 54.4" enable-background="new 0 0 123.8 54.4" xml:space="preserve">
<g>
	<path fill="#747475" d="M3.3,23.4c0-4.7,0-5.6-0.1-6.6c-0.1-1.1-0.3-1.5-1.4-1.8C1.5,15,1,14.9,0.5,14.9c-0.4,0-0.5-0.1-0.5-0.3
		c0-0.2,0.2-0.3,0.7-0.3c1.7,0,3.7,0.1,4.6,0.1c1.3,0,3.2-0.1,4.7-0.1c4,0,5.5,1.3,6,1.8c0.7,0.7,1.6,2,1.6,3.7
		c0,4.4-3.4,7.5-7.9,7.5c-0.2,0-0.5,0-0.7,0c-0.2,0-0.4-0.1-0.4-0.3c0-0.2,0.2-0.3,0.9-0.3c1.8,0,4.3-2,4.3-5.1c0-1-0.1-3.1-1.9-4.6
		c-1.2-1-2.5-1.2-3.2-1.2c-0.5,0-1,0-1.3,0.1c-0.2,0.1-0.3,0.2-0.3,0.6v12.4c0,2.8,0,5.3,0.2,6.6c0.1,0.9,0.3,1.5,1.3,1.7
		c0.5,0.1,1.2,0.1,1.6,0.1c0.4,0,0.5,0.1,0.5,0.2c0,0.2-0.3,0.3-0.6,0.3c-2.1,0-4.2-0.1-5-0.1c-0.7,0-2.8,0.1-4.1,0.1
		c-0.4,0-0.6-0.1-0.6-0.3c0-0.2,0.1-0.2,0.5-0.2c0.5,0,0.9-0.1,1.2-0.1C2.8,37,3,36.3,3.1,35.4c0.2-1.3,0.2-3.7,0.2-6.6V23.4z"/>
	<path fill="#747475" d="M23.9,23.4c0-4.7,0-5.6-0.1-6.6c-0.1-1.1-0.3-1.5-1.4-1.8c-0.3-0.1-0.8-0.1-1.3-0.1c-0.4,0-0.5-0.1-0.5-0.3
		c0-0.2,0.2-0.3,0.7-0.3c0.9,0,1.8,0,2.6,0c0.8,0,1.6,0.1,2,0.1c1,0,7.5,0,8.1,0c0.6-0.1,1.1-0.1,1.4-0.2c0.2,0,0.4-0.1,0.5-0.1
		c0.2,0,0.2,0.1,0.2,0.3c0,0.2-0.2,0.6-0.3,2c0,0.3-0.1,1.7-0.2,2c0,0.2-0.1,0.3-0.3,0.3c-0.2,0-0.3-0.2-0.3-0.4
		c0-0.2,0-0.7-0.2-1.1c-0.2-0.6-0.5-0.9-2.2-1.1c-0.5-0.1-3.9-0.1-4.6-0.1c-0.2,0-0.2,0.1-0.2,0.3v7.8c0,0.2,0,0.3,0.2,0.3
		c0.7,0,4.4,0,5.2-0.1c0.8-0.1,1.3-0.2,1.5-0.5c0.2-0.2,0.4-0.4,0.5-0.4c0.1,0,0.2,0.1,0.2,0.2c0,0.2-0.1,0.7-0.3,2.3
		c0,0.6-0.1,1.9-0.1,2.1c0,0.2,0,0.6-0.3,0.6c-0.2,0-0.3-0.1-0.3-0.3c0-0.3,0-0.7-0.1-1.1c-0.2-0.6-0.6-1.1-1.8-1.2
		c-0.6-0.1-3.8-0.1-4.6-0.1c-0.2,0-0.2,0.1-0.2,0.3v2.4c0,1.1,0,3.9,0,4.8c0.1,2.1,0.6,2.6,3.9,2.6c0.8,0,2.2,0,3-0.4
		c0.8-0.4,1.2-1,1.5-2.3c0.1-0.3,0.1-0.5,0.4-0.5c0.3,0,0.3,0.2,0.3,0.6c0,0.7-0.3,2.8-0.4,3.4c-0.2,0.8-0.5,0.8-1.7,0.8
		c-2.4,0-4.2-0.1-5.6-0.1c-1.4-0.1-2.4-0.1-3.4-0.1c-0.4,0-1.1,0-1.8,0c-0.7,0-1.6,0.1-2.2,0.1c-0.4,0-0.6-0.1-0.6-0.3
		c0-0.2,0.1-0.2,0.5-0.2c0.5,0,0.9-0.1,1.2-0.1c0.6-0.1,0.8-0.8,0.9-1.7c0.2-1.3,0.2-3.7,0.2-6.6V23.4z"/>
	<path fill="#747475" d="M73.6,24.7h0.2c1.1-1.1,5.8-5.8,6.7-6.8c0.9-1,1.6-1.8,1.6-2.3c0-0.3-0.1-0.6-0.5-0.6
		c-0.3-0.1-0.4-0.1-0.4-0.3c0-0.2,0.2-0.3,0.5-0.3c0.7,0,2.5,0.1,3.3,0.1c1,0,2.8-0.1,3.8-0.1c0.3,0,0.5,0.1,0.5,0.3
		c0,0.2-0.2,0.3-0.5,0.3c-0.5,0-1.3,0.1-1.9,0.3c-1,0.4-2.1,1-3.5,2.3c-1,0.9-5.9,5.6-7,6.7c1.2,1.5,7.5,8,8.7,9.1
		c1.4,1.3,2.9,2.7,4.6,3.3c1,0.4,1.6,0.5,2,0.5c0.2,0,0.4,0.1,0.4,0.2c0,0.2-0.2,0.3-0.8,0.3h-2.8c-1,0-1.5,0-2.2-0.1
		c-1.7-0.2-2.6-0.8-4-2c-1.4-1.2-7.8-8.4-8.5-9.3L73.7,26h-0.2v2.8c0,2.8,0,5.3,0.1,6.6c0.1,0.9,0.4,1.5,1.2,1.7
		c0.5,0.1,1.2,0.1,1.6,0.1c0.3,0,0.4,0.1,0.4,0.2c0,0.2-0.3,0.3-0.6,0.3c-1.8,0-3.8-0.1-4.6-0.1c-0.7,0-2.8,0.1-4.1,0.1
		c-0.4,0-0.6-0.1-0.6-0.3c0-0.2,0.1-0.2,0.5-0.2c0.5,0,0.9-0.1,1.2-0.1c0.6-0.1,0.8-0.8,0.9-1.7c0.2-1.3,0.2-3.7,0.2-6.6v-5.5
		c0-4.7,0-5.6-0.1-6.6c-0.1-1.1-0.3-1.5-1.4-1.8c-0.3-0.1-0.8-0.1-1.3-0.1c-0.4,0-0.5-0.1-0.5-0.3c0-0.2,0.2-0.3,0.7-0.3
		c1.7,0,3.7,0.1,4.5,0.1c0.8,0,2.8-0.1,3.9-0.1c0.5,0,0.7,0.1,0.7,0.3c0,0.2-0.2,0.3-0.5,0.3c-0.3,0-0.5,0-0.9,0.1
		c-0.9,0.2-1.1,0.7-1.2,1.8c-0.1,1-0.1,1.9-0.1,6.6V24.7z"/>
	<g>
		<path fill="#747475" d="M38.7,45.3c0-1.4,0-1.7,0-2c0-0.3-0.1-0.5-0.4-0.5c-0.1,0-0.3,0-0.4,0c-0.1,0-0.2,0-0.2-0.1
			c0-0.1,0.1-0.1,0.2-0.1c0.3,0,0.6,0,0.8,0c0.3,0,0.5,0,0.7,0c0.3,0,2.4,0,2.6,0c0.2,0,0.4,0,0.4-0.1c0.1,0,0.1,0,0.2,0
			c0.1,0,0.1,0,0.1,0.1c0,0.1-0.1,0.2-0.1,0.6c0,0.1,0,0.5-0.1,0.6c0,0,0,0.1-0.1,0.1c-0.1,0-0.1,0-0.1-0.1c0-0.1,0-0.2-0.1-0.3
			c-0.1-0.2-0.2-0.3-0.7-0.3c-0.2,0-1.3,0-1.5,0c-0.1,0-0.1,0-0.1,0.1v2.4c0,0.1,0,0.1,0.1,0.1c0.2,0,1.4,0,1.7,0
			c0.2,0,0.4,0,0.5-0.1c0.1-0.1,0.1-0.1,0.2-0.1c0,0,0.1,0,0.1,0.1c0,0.1-0.1,0.2-0.1,0.7c0,0.2,0,0.6,0,0.6c0,0.1,0,0.2-0.1,0.2
			c-0.1,0-0.1,0-0.1-0.1c0-0.1,0-0.2,0-0.3c-0.1-0.2-0.2-0.3-0.6-0.4c-0.2,0-1.2,0-1.5,0c-0.1,0-0.1,0-0.1,0.1V47c0,0.3,0,1.2,0,1.4
			c0,0.6,0.2,0.8,1.2,0.8c0.3,0,0.7,0,1-0.1c0.3-0.1,0.4-0.3,0.5-0.7c0-0.1,0-0.1,0.1-0.1c0.1,0,0.1,0.1,0.1,0.2
			c0,0.2-0.1,0.8-0.1,1c-0.1,0.2-0.2,0.2-0.6,0.2c-0.8,0-1.3,0-1.8,0c-0.4,0-0.8,0-1.1,0c-0.1,0-0.3,0-0.6,0c-0.2,0-0.5,0-0.7,0
			c-0.1,0-0.2,0-0.2-0.1c0,0,0-0.1,0.2-0.1c0.2,0,0.3,0,0.4,0c0.2,0,0.3-0.2,0.3-0.5c0.1-0.4,0.1-1.1,0.1-2V45.3z"/>
		<path fill="#747475" d="M49.4,45.8c0.3,0.5,2,3,2.3,3.3c0.2,0.2,0.3,0.3,0.6,0.4c0.2,0,0.3,0.1,0.4,0.1c0.1,0,0.1,0,0.1,0.1
			c0,0.1-0.1,0.1-0.2,0.1h-0.3c-0.2,0-1.1,0-1.9,0c-0.3,0-0.4,0-0.4-0.1c0-0.1,0.1-0.1,0.1-0.1c0.1,0,0.1-0.1,0-0.2
			c-0.6-0.9-1.2-1.8-1.6-2.5l-1.5,2.2c-0.1,0.1-0.2,0.3-0.1,0.4c0,0.1,0.1,0.1,0.2,0.2c0.1,0,0.2,0,0.2,0c0.1,0,0.1,0,0.1,0.1
			c0,0.1-0.1,0.1-0.2,0.1h-0.2c-0.1,0-0.7,0-1,0c-0.2,0-0.7,0-0.9,0h-0.2c-0.1,0-0.2,0-0.2-0.1c0-0.1,0.1-0.1,0.1-0.1
			c0.1,0,0.2,0,0.4,0c0.3-0.1,0.5-0.3,0.8-0.7l2-2.5l-1.8-2.6c-0.2-0.4-0.5-0.6-0.9-0.7c-0.2,0-0.3-0.1-0.4-0.1
			c-0.1,0-0.1,0-0.1-0.1c0-0.1,0.1-0.1,0.2-0.1c0.2,0,1.1,0,1.6,0c0.1,0,0.7,0,1.1,0c0.1,0,0.2,0,0.2,0.1c0,0.1-0.1,0.1-0.2,0.1
			c-0.1,0-0.2,0-0.3,0c-0.1,0-0.1,0.1-0.1,0.1c0,0.1,0,0.2,0.1,0.3c0.4,0.7,0.9,1.4,1.3,2.1c0.3-0.4,1.3-1.7,1.4-2
			c0.1-0.1,0.1-0.3,0.1-0.4c0-0.1-0.1-0.1-0.2-0.2c-0.1,0-0.2,0-0.3,0c-0.1,0-0.1,0-0.1-0.1c0-0.1,0.1-0.1,0.2-0.1c0.4,0,0.8,0,1,0
			c0.2,0,0.6,0,1,0c0.1,0,0.2,0,0.2,0.1c0,0.1-0.1,0.1-0.2,0.1c-0.1,0-0.2,0-0.4,0.1c-0.2,0.1-0.4,0.3-0.8,0.7L49.4,45.8z"/>
		<path fill="#747475" d="M55.6,45.3c0-1.4,0-1.7,0-2c0-0.3-0.1-0.5-0.4-0.5c-0.1,0-0.3,0-0.4,0c-0.1,0-0.2,0-0.2-0.1
			c0-0.1,0.1-0.1,0.2-0.1c0.5,0,1.2,0,1.5,0c0.4,0,1,0,1.5,0c1.3,0,1.8,0.4,1.9,0.5c0.2,0.2,0.5,0.6,0.5,1.1c0,1.3-1.1,2.2-2.5,2.2
			c-0.1,0-0.2,0-0.2,0c-0.1,0-0.1,0-0.1-0.1c0-0.1,0.1-0.1,0.3-0.1c0.6,0,1.4-0.6,1.4-1.5c0-0.3,0-0.9-0.6-1.4
			c-0.4-0.3-0.8-0.4-1-0.4c-0.2,0-0.3,0-0.4,0c-0.1,0-0.1,0.1-0.1,0.2V47c0,0.9,0,1.6,0.1,2c0,0.3,0.1,0.5,0.4,0.5
			c0.1,0,0.4,0,0.5,0c0.1,0,0.2,0,0.2,0.1c0,0.1-0.1,0.1-0.2,0.1c-0.7,0-1.3,0-1.6,0c-0.2,0-0.9,0-1.3,0c-0.1,0-0.2,0-0.2-0.1
			c0,0,0-0.1,0.2-0.1c0.2,0,0.3,0,0.4,0c0.2,0,0.3-0.2,0.3-0.5c0.1-0.4,0.1-1.1,0.1-2V45.3z"/>
		<path fill="#747475" d="M63.8,45.3c0-1.4,0-1.7,0-2c0-0.3-0.1-0.5-0.4-0.5c-0.1,0-0.3,0-0.4,0c-0.1,0-0.2,0-0.2-0.1
			c0-0.1,0.1-0.1,0.2-0.1c0.3,0,0.6,0,0.8,0c0.3,0,0.5,0,0.7,0c0.3,0,2.4,0,2.6,0c0.2,0,0.4,0,0.4-0.1c0.1,0,0.1,0,0.2,0
			c0.1,0,0.1,0,0.1,0.1c0,0.1-0.1,0.2-0.1,0.6c0,0.1,0,0.5-0.1,0.6c0,0,0,0.1-0.1,0.1c-0.1,0-0.1,0-0.1-0.1c0-0.1,0-0.2-0.1-0.3
			c-0.1-0.2-0.2-0.3-0.7-0.3c-0.2,0-1.3,0-1.5,0c-0.1,0-0.1,0-0.1,0.1v2.4c0,0.1,0,0.1,0.1,0.1c0.2,0,1.4,0,1.7,0
			c0.2,0,0.4,0,0.5-0.1c0.1-0.1,0.1-0.1,0.2-0.1c0,0,0.1,0,0.1,0.1c0,0.1-0.1,0.2-0.1,0.7c0,0.2,0,0.6,0,0.6c0,0.1,0,0.2-0.1,0.2
			c-0.1,0-0.1,0-0.1-0.1c0-0.1,0-0.2,0-0.3c-0.1-0.2-0.2-0.3-0.6-0.4c-0.2,0-1.2,0-1.5,0c-0.1,0-0.1,0-0.1,0.1V47c0,0.3,0,1.2,0,1.4
			c0,0.6,0.2,0.8,1.2,0.8c0.3,0,0.7,0,1-0.1c0.3-0.1,0.4-0.3,0.5-0.7c0-0.1,0-0.1,0.1-0.1c0.1,0,0.1,0.1,0.1,0.2
			c0,0.2-0.1,0.8-0.1,1c-0.1,0.2-0.2,0.2-0.6,0.2c-0.8,0-1.3,0-1.8,0c-0.4,0-0.8,0-1.1,0c-0.1,0-0.3,0-0.6,0c-0.2,0-0.5,0-0.7,0
			c-0.1,0-0.2,0-0.2-0.1c0,0,0-0.1,0.2-0.1c0.2,0,0.3,0,0.4,0c0.2,0,0.3-0.2,0.3-0.5c0.1-0.4,0.1-1.1,0.1-2V45.3z"/>
		<path fill="#747475" d="M71.8,45.3c0-1.4,0-1.7,0-2c0-0.3-0.1-0.5-0.4-0.5c-0.1,0-0.3,0-0.4,0c-0.1,0-0.2,0-0.2-0.1
			c0-0.1,0.1-0.1,0.2-0.1c0.5,0,1.2,0,1.4,0c0.4,0,1.1,0,1.5,0c0.7,0,1.3,0.1,1.9,0.4c0.3,0.2,0.7,0.7,0.7,1.3
			c0,0.7-0.3,1.3-1.4,2.1c0.9,1,1.6,1.9,2.2,2.4c0.6,0.5,1,0.6,1.2,0.6c0.1,0,0.2,0,0.3,0c0.1,0,0.1,0,0.1,0.1
			c0,0.1-0.1,0.1-0.2,0.1h-1c-0.6,0-0.8,0-1.1-0.2c-0.4-0.2-0.8-0.7-1.4-1.4c-0.4-0.5-0.9-1.1-1-1.3c-0.1-0.1-0.1-0.1-0.2-0.1
			l-0.9,0c-0.1,0-0.1,0-0.1,0.1v0.1c0,0.9,0,1.6,0.1,2c0,0.3,0.1,0.5,0.4,0.5c0.2,0,0.4,0,0.5,0c0.1,0,0.1,0,0.1,0.1
			c0,0.1-0.1,0.1-0.2,0.1c-0.6,0-1.4,0-1.5,0c-0.2,0-0.8,0-1.3,0c-0.1,0-0.2,0-0.2-0.1c0,0,0-0.1,0.2-0.1c0.2,0,0.3,0,0.4,0
			c0.2,0,0.3-0.2,0.3-0.5c0.1-0.4,0.1-1.1,0.1-2V45.3z M73,46c0,0.1,0,0.1,0.1,0.2c0.2,0.1,0.5,0.1,0.8,0.1c0.4,0,0.5,0,0.7-0.2
			c0.3-0.2,0.6-0.6,0.6-1.4c0-1.3-1-1.7-1.6-1.7c-0.3,0-0.4,0-0.5,0c-0.1,0-0.1,0.1-0.1,0.1V46z"/>
		<path fill="#747475" d="M81,45.3c0-1.4,0-1.7,0-2c0-0.3-0.1-0.5-0.4-0.5c-0.1,0-0.2,0-0.4,0c-0.1,0-0.2,0-0.2-0.1
			c0-0.1,0.1-0.1,0.2-0.1c0.4,0,1,0,1.3,0c0.3,0,0.9,0,1.3,0c0.1,0,0.2,0,0.2,0.1c0,0.1-0.1,0.1-0.2,0.1c-0.1,0-0.2,0-0.3,0
			c-0.3,0-0.4,0.2-0.4,0.5c0,0.3,0,0.6,0,2V47c0,0.9,0,1.6,0,2c0,0.3,0.1,0.4,0.4,0.5c0.1,0,0.4,0,0.5,0c0.1,0,0.2,0,0.2,0.1
			c0,0.1-0.1,0.1-0.2,0.1c-0.7,0-1.3,0-1.6,0c-0.2,0-0.9,0-1.3,0c-0.1,0-0.2,0-0.2-0.1c0,0,0-0.1,0.2-0.1c0.2,0,0.3,0,0.4,0
			c0.2,0,0.3-0.2,0.3-0.5c0.1-0.4,0.1-1.1,0.1-2V45.3z"/>
		<path fill="#747475" d="M87.2,45.3c0-1.4,0-1.7,0-2c0-0.3-0.1-0.5-0.4-0.5c-0.1,0-0.3,0-0.4,0c-0.1,0-0.2,0-0.2-0.1
			c0-0.1,0.1-0.1,0.2-0.1c0.3,0,0.6,0,0.8,0c0.3,0,0.5,0,0.7,0c0.3,0,2.4,0,2.6,0c0.2,0,0.4,0,0.4-0.1c0.1,0,0.1,0,0.2,0
			c0.1,0,0.1,0,0.1,0.1c0,0.1-0.1,0.2-0.1,0.6c0,0.1,0,0.5-0.1,0.6c0,0,0,0.1-0.1,0.1c-0.1,0-0.1,0-0.1-0.1c0-0.1,0-0.2-0.1-0.3
			c-0.1-0.2-0.2-0.3-0.7-0.3c-0.2,0-1.3,0-1.5,0c-0.1,0-0.1,0-0.1,0.1v2.4c0,0.1,0,0.1,0.1,0.1c0.2,0,1.4,0,1.7,0
			c0.2,0,0.4,0,0.5-0.1c0.1-0.1,0.1-0.1,0.2-0.1c0,0,0.1,0,0.1,0.1c0,0.1-0.1,0.2-0.1,0.7c0,0.2,0,0.6,0,0.6c0,0.1,0,0.2-0.1,0.2
			c-0.1,0-0.1,0-0.1-0.1c0-0.1,0-0.2,0-0.3c-0.1-0.2-0.2-0.3-0.6-0.4c-0.2,0-1.2,0-1.5,0c-0.1,0-0.1,0-0.1,0.1V47c0,0.3,0,1.2,0,1.4
			c0,0.6,0.2,0.8,1.2,0.8c0.3,0,0.7,0,1-0.1c0.3-0.1,0.4-0.3,0.5-0.7c0-0.1,0-0.1,0.1-0.1c0.1,0,0.1,0.1,0.1,0.2
			c0,0.2-0.1,0.8-0.1,1c-0.1,0.2-0.2,0.2-0.6,0.2c-0.8,0-1.3,0-1.8,0c-0.4,0-0.8,0-1.1,0c-0.1,0-0.3,0-0.6,0c-0.2,0-0.5,0-0.7,0
			c-0.1,0-0.2,0-0.2-0.1c0,0,0-0.1,0.2-0.1c0.2,0,0.3,0,0.4,0c0.2,0,0.3-0.2,0.3-0.5c0.1-0.4,0.1-1.1,0.1-2V45.3z"/>
		<path fill="#747475" d="M95.7,48.4c0,0.7,0.2,1,0.4,1c0.2,0.1,0.4,0.1,0.5,0.1c0.1,0,0.2,0,0.2,0.1c0,0.1-0.1,0.1-0.2,0.1
			c-0.7,0-1.1,0-1.3,0c-0.1,0-0.6,0-1.1,0c-0.1,0-0.2,0-0.2-0.1c0-0.1,0.1-0.1,0.2-0.1c0.1,0,0.3,0,0.5,0c0.3-0.1,0.3-0.3,0.3-1.2
			l0.1-5.5c0-0.2,0-0.3,0.1-0.3c0.1,0,0.2,0.1,0.4,0.3c0.1,0.1,1.7,1.6,3.2,3c0.7,0.6,2.1,2,2.3,2.1h0.1l-0.1-4.2
			c0-0.6-0.1-0.7-0.4-0.8c-0.2-0.1-0.4-0.1-0.5-0.1c-0.1,0-0.2,0-0.2-0.1c0-0.1,0.1-0.1,0.3-0.1c0.5,0,1,0,1.3,0c0.1,0,0.5,0,1,0
			c0.1,0,0.2,0,0.2,0.1c0,0.1-0.1,0.1-0.2,0.1c-0.1,0-0.2,0-0.3,0c-0.3,0.1-0.4,0.3-0.4,0.8l-0.1,5.9c0,0.2,0,0.3-0.1,0.3
			c-0.1,0-0.2-0.1-0.4-0.2c-0.7-0.6-2-1.8-3-2.7c-1.1-1-2.3-2.2-2.5-2.3h0L95.7,48.4z"/>
		<path fill="#747475" d="M106.5,48.8c-1-0.8-1.3-1.8-1.3-2.7c0-0.6,0.2-1.7,1.2-2.5c0.7-0.6,1.7-1,3.3-1c0.6,0,1,0,1.5,0.1
			c0.4,0,0.7,0.1,1,0.2c0.1,0,0.2,0.1,0.2,0.1c0,0.1,0,0.2-0.1,0.5c0,0.3,0,0.8,0,1c0,0.1,0,0.2-0.1,0.2c-0.1,0-0.1-0.1-0.1-0.2
			c0-0.3-0.1-0.6-0.4-0.9c-0.3-0.3-1.1-0.6-2.1-0.6c-0.9,0-1.5,0.2-1.9,0.6c-0.8,0.6-0.9,1.5-0.9,2.4c0,2.2,1.9,3.3,3.3,3.3
			c0.9,0,1.5-0.1,1.9-0.5c0.2-0.2,0.3-0.4,0.4-0.6c0-0.1,0.1-0.2,0.1-0.2c0.1,0,0.1,0.1,0.1,0.1c0,0.1-0.1,0.9-0.2,1.2
			c-0.1,0.2-0.1,0.2-0.3,0.3c-0.4,0.1-1.2,0.2-1.9,0.2C108.6,49.8,107.4,49.5,106.5,48.8z"/>
		<path fill="#747475" d="M116,45.3c0-1.4,0-1.7,0-2c0-0.3-0.1-0.5-0.4-0.5c-0.1,0-0.3,0-0.4,0c-0.1,0-0.2,0-0.2-0.1
			c0-0.1,0.1-0.1,0.2-0.1c0.3,0,0.6,0,0.8,0c0.3,0,0.5,0,0.7,0c0.3,0,2.4,0,2.6,0c0.2,0,0.4,0,0.4-0.1c0.1,0,0.1,0,0.2,0
			c0.1,0,0.1,0,0.1,0.1c0,0.1-0.1,0.2-0.1,0.6c0,0.1,0,0.5-0.1,0.6c0,0,0,0.1-0.1,0.1c-0.1,0-0.1,0-0.1-0.1c0-0.1,0-0.2-0.1-0.3
			c-0.1-0.2-0.2-0.3-0.7-0.3c-0.2,0-1.3,0-1.5,0c-0.1,0-0.1,0-0.1,0.1v2.4c0,0.1,0,0.1,0.1,0.1c0.2,0,1.4,0,1.7,0
			c0.2,0,0.4,0,0.5-0.1c0.1-0.1,0.1-0.1,0.2-0.1c0,0,0.1,0,0.1,0.1c0,0.1-0.1,0.2-0.1,0.7c0,0.2,0,0.6,0,0.6c0,0.1,0,0.2-0.1,0.2
			c-0.1,0-0.1,0-0.1-0.1c0-0.1,0-0.2,0-0.3c-0.1-0.2-0.2-0.3-0.6-0.4c-0.2,0-1.2,0-1.5,0c-0.1,0-0.1,0-0.1,0.1V47c0,0.3,0,1.2,0,1.4
			c0,0.6,0.2,0.8,1.2,0.8c0.3,0,0.7,0,1-0.1c0.3-0.1,0.4-0.3,0.5-0.7c0-0.1,0-0.1,0.1-0.1c0.1,0,0.1,0.1,0.1,0.2
			c0,0.2-0.1,0.8-0.1,1c-0.1,0.2-0.2,0.2-0.6,0.2c-0.8,0-1.3,0-1.8,0c-0.4,0-0.8,0-1.1,0c-0.1,0-0.3,0-0.6,0c-0.2,0-0.5,0-0.7,0
			c-0.1,0-0.2,0-0.2-0.1c0,0,0-0.1,0.2-0.1c0.2,0,0.3,0,0.4,0c0.2,0,0.3-0.2,0.3-0.5c0.1-0.4,0.1-1.1,0.1-2V45.3z"/>
		<path fill="#747475" d="M121.8,43.2c0,0.1,0,0.3,0,0.3c0,0,0,0.1,0.1,0.1c0,0,0.1,0,0.1,0c0,0,0,0,0,0c0,0,0,0,0,0
			c-0.1,0-0.2,0-0.2,0c0,0-0.1,0-0.1,0c0,0,0,0,0,0c0,0,0,0,0,0c0,0,0,0,0.1,0c0,0,0,0,0-0.1c0-0.1,0-0.2,0-0.3v-0.6l-0.2,0
			c-0.1,0-0.1,0-0.1,0c0,0,0,0,0,0c0,0,0,0,0,0c0,0,0,0,0,0c0,0,0-0.1,0-0.2c0,0,0,0,0,0c0,0,0,0,0.1,0c0,0,0.1,0,0.1,0h0.5
			c0.1,0,0.1,0,0.1,0c0,0,0,0,0,0c0,0,0,0.1,0,0.2c0,0,0,0,0,0c0,0,0,0,0,0l0,0c0,0,0-0.1-0.2-0.1l-0.2,0V43.2z"/>
		<path fill="#747475" d="M123.6,43.4c0,0.1,0,0.1,0.1,0.2c0,0,0.1,0,0.1,0c0,0,0,0,0,0c0,0,0,0,0,0c0,0-0.2,0-0.2,0c0,0,0,0,0,0
			c0,0,0,0,0,0c0,0,0,0,0-0.1l-0.1-0.8h0l-0.4,0.8c0,0.1,0,0.1,0,0.1c0,0,0,0,0-0.1c0-0.1-0.2-0.3-0.2-0.3c0,0-0.2-0.4-0.2-0.4h0
			l-0.1,0.7c0,0,0,0,0,0.1c0,0,0,0,0,0c0,0,0,0,0.1,0c0,0,0,0,0,0c0,0,0,0,0,0c-0.1,0-0.1,0-0.1,0c0,0-0.1,0-0.1,0c0,0,0,0,0,0
			c0,0,0,0,0,0c0,0,0,0,0,0c0,0,0.1-0.1,0.1-0.1l0.1-1c0,0,0,0,0,0c0,0,0,0,0,0l0.4,0.9l0.4-0.9c0,0,0,0,0,0c0,0,0,0,0,0L123.6,43.4
			z"/>
	</g>
	<g>
		<polygon fill="#747475" points="55.9,37.8 54.1,34.3 56.7,34.3 50.6,22.2 25,50.4 51.7,9.1 64.8,37.8 		"/>
	</g>
	<g>
		<path fill="#747475" d="M17.8,2.8l-1.5,0c-0.6,0-0.8,0.1-1,0.3c-0.1,0.1-0.2,0.3-0.2,0.3c0,0.1-0.1,0.1-0.1,0.1
			c-0.1,0-0.1,0-0.1-0.1c0-0.1,0.2-1,0.2-1.1c0-0.1,0.1-0.2,0.1-0.2c0.1,0,0.2,0.1,0.4,0.1c0.3,0,0.7,0,1,0h4.1c0.3,0,0.6,0,0.7,0
			c0.2,0,0.2,0,0.3,0c0.1,0,0.1,0.1,0.1,0.2c0,0.2,0,0.8,0,1.1c0,0.1,0,0.1-0.1,0.1c-0.1,0-0.1,0-0.1-0.2l0-0.1
			c0-0.2-0.3-0.5-1.2-0.5l-1.3,0v3.8c0,0.9,0,1.6,0.1,2c0,0.3,0.1,0.5,0.4,0.5c0.1,0,0.4,0,0.5,0c0.1,0,0.2,0,0.2,0.1
			c0,0.1-0.1,0.1-0.2,0.1c-0.7,0-1.3,0-1.6,0c-0.2,0-0.9,0-1.3,0c-0.1,0-0.2,0-0.2-0.1c0,0,0-0.1,0.2-0.1c0.2,0,0.3,0,0.4,0
			c0.2,0,0.3-0.2,0.3-0.5c0.1-0.4,0.1-1.1,0.1-2V2.8z"/>
		<path fill="#747475" d="M30.5,5.3C30.5,5.3,30.5,5.3,30.5,5.3L30.5,5c0-1.4,0-1.7,0-2c0-0.3-0.1-0.5-0.4-0.5c-0.1,0-0.3,0-0.4,0
			c-0.1,0-0.2,0-0.2-0.1c0-0.1,0.1-0.1,0.2-0.1c0.6,0,1.2,0,1.5,0c0.2,0,0.9,0,1.3,0c0.1,0,0.2,0,0.2,0.1c0,0.1-0.1,0.1-0.2,0.1
			c-0.1,0-0.2,0-0.3,0c-0.3,0-0.4,0.2-0.4,0.5c0,0.3,0,0.6,0,2v1.6c0,0.9,0,1.6,0.1,2c0,0.3,0.1,0.5,0.4,0.5c0.1,0,0.4,0,0.5,0
			c0.1,0,0.2,0,0.2,0.1c0,0.1-0.1,0.1-0.2,0.1c-0.7,0-1.3,0-1.6,0c-0.2,0-0.9,0-1.3,0c-0.1,0-0.2,0-0.2-0.1c0,0,0-0.1,0.2-0.1
			c0.2,0,0.3,0,0.4,0c0.2,0,0.3-0.2,0.3-0.5c0.1-0.4,0.1-1.1,0.1-2V5.8c0,0,0-0.1-0.1-0.1h-3.9c0,0-0.1,0-0.1,0.1v0.8
			c0,0.9,0,1.6,0.1,2c0,0.3,0.1,0.5,0.4,0.5c0.1,0,0.4,0,0.5,0c0.1,0,0.2,0,0.2,0.1c0,0.1-0.1,0.1-0.2,0.1c-0.7,0-1.3,0-1.6,0
			c-0.2,0-0.9,0-1.3,0c-0.1,0-0.2,0-0.2-0.1c0,0,0-0.1,0.2-0.1c0.2,0,0.3,0,0.4,0c0.2,0,0.3-0.2,0.3-0.5c0.1-0.4,0.1-1.1,0.1-2V5
			c0-1.4,0-1.7,0-2c0-0.3-0.1-0.5-0.4-0.5c-0.1,0-0.3,0-0.4,0c-0.1,0-0.2,0-0.2-0.1c0-0.1,0.1-0.1,0.2-0.1c0.6,0,1.2,0,1.5,0
			c0.2,0,0.9,0,1.3,0c0.1,0,0.2,0,0.2,0.1c0,0.1-0.1,0.1-0.2,0.1c-0.1,0-0.2,0-0.3,0c-0.3,0-0.4,0.2-0.4,0.5c0,0.3,0,0.6,0,2v0.2
			c0,0,0,0.1,0.1,0.1H30.5z"/>
		<path fill="#747475" d="M36.7,5c0-1.4,0-1.7,0-2c0-0.3-0.1-0.5-0.4-0.5c-0.1,0-0.3,0-0.4,0c-0.1,0-0.2,0-0.2-0.1
			c0-0.1,0.1-0.1,0.2-0.1c0.3,0,0.6,0,0.8,0c0.3,0,0.5,0,0.7,0c0.3,0,2.4,0,2.6,0c0.2,0,0.4,0,0.4-0.1c0.1,0,0.1,0,0.2,0
			c0.1,0,0.1,0,0.1,0.1c0,0.1-0.1,0.2-0.1,0.6c0,0.1,0,0.5-0.1,0.6c0,0,0,0.1-0.1,0.1c-0.1,0-0.1,0-0.1-0.1c0-0.1,0-0.2-0.1-0.3
			C40.1,3,40,2.9,39.5,2.8c-0.2,0-1.3,0-1.5,0c-0.1,0-0.1,0-0.1,0.1v2.4c0,0.1,0,0.1,0.1,0.1c0.2,0,1.4,0,1.7,0c0.2,0,0.4,0,0.5-0.1
			c0.1-0.1,0.1-0.1,0.2-0.1c0,0,0.1,0,0.1,0.1c0,0.1-0.1,0.2-0.1,0.7c0,0.2,0,0.6,0,0.6c0,0.1,0,0.2-0.1,0.2c-0.1,0-0.1,0-0.1-0.1
			c0-0.1,0-0.2,0-0.3C40,6,39.9,5.9,39.5,5.8c-0.2,0-1.2,0-1.5,0c-0.1,0-0.1,0-0.1,0.1v0.7c0,0.3,0,1.2,0,1.4c0,0.6,0.2,0.8,1.2,0.8
			c0.3,0,0.7,0,1-0.1c0.3-0.1,0.4-0.3,0.5-0.7c0-0.1,0-0.1,0.1-0.1c0.1,0,0.1,0.1,0.1,0.2c0,0.2-0.1,0.8-0.1,1
			c-0.1,0.2-0.2,0.2-0.6,0.2c-0.8,0-1.3,0-1.8,0c-0.4,0-0.8,0-1.1,0c-0.1,0-0.3,0-0.6,0c-0.2,0-0.5,0-0.7,0c-0.1,0-0.2,0-0.2-0.1
			c0,0,0-0.1,0.2-0.1c0.2,0,0.3,0,0.4,0c0.2,0,0.3-0.2,0.3-0.5c0.1-0.4,0.1-1.1,0.1-2V5z"/>
	</g>
</g>
</svg>
