<svg xmlns="http://www.w3.org/2000/svg" data-name="Capa 2" viewBox="0 0 100 100" x="0px" y="0px"><title>iconos deportes</title><path d="M18,68.12A12.76,12.76,0,1,0,30.78,55.36,12.77,12.77,0,0,0,18,68.12Zm21.44,0a8.68,8.68,0,1,1-8.68-8.68A8.69,8.69,0,0,1,39.45,68.12Z"></path><path d="M93,42.34H30.78A25.76,25.76,0,1,0,56.35,64.89H81.56a2,2,0,0,0,1.74-1L94.7,45.46A2,2,0,0,0,93,42.34ZM80.42,60.81H53.92a2,2,0,0,0-2,2.49A21.69,21.69,0,1,1,30.78,46.43H89.3Z"></path><path d="M23.48,17.53a2,2,0,0,0,0,2.89L33.78,31a2,2,0,0,0,2.92-2.86L26.37,17.56A2,2,0,0,0,23.48,17.53Z"></path><path d="M76,17.56L65.68,28.11A2,2,0,0,0,68.6,31L78.93,20.42A2,2,0,0,0,76,17.56Z"></path><path d="M49.15,8.15V24.27a2,2,0,0,0,4.08,0V8.15A2,2,0,1,0,49.15,8.15Z"></path></svg>