<?xml version="1.0" encoding="utf-8"?>
<!-- Generator: Adobe Illustrator 17.1.0, SVG Export Plug-In . SVG Version: 6.00 Build 0)  -->
<!DOCTYPE svg PUBLIC "-//W3C//DTD SVG 1.1//EN" "http://www.w3.org/Graphics/SVG/1.1/DTD/svg11.dtd">
<svg version="1.1" id="Layer_1" xmlns="http://www.w3.org/2000/svg" xmlns:xlink="http://www.w3.org/1999/xlink" x="0px" y="0px"
	 viewBox="0 0 792 612" enable-background="new 0 0 792 612" xml:space="preserve">
<g display="none">
	<rect x="-7092.3" y="-1632" display="inline" width="8055.7" height="3958.9"/>
</g>
<g>
	<path fill="#FFFFFF" d="M396,200.3c35,0,63.5,28.5,63.5,63.5S431,327.2,396,327.2s-63.5-28.5-63.5-63.5S361,200.3,396,200.3
		 M396,181.2c-45.6,0-82.6,37-82.6,82.6s37,82.6,82.6,82.6s82.6-37,82.6-82.6S441.6,181.2,396,181.2L396,181.2z"/>
	<path fill="#FFFFFF" d="M396,383.4c54.5,0,100.6,45.2,109.9,104.2H286.1C295.4,428.6,341.5,383.4,396,383.4 M396,364.3
		c-71.4,0-129.4,63.5-130.8,142.4h261.6C525.4,427.8,467.4,364.3,396,364.3L396,364.3z"/>
	<path fill="#FFFFFF" d="M188.3,124.4c23.7,0,42.9,19.3,42.9,42.9s-19.3,42.9-42.9,42.9s-42.9-19.3-42.9-43
		C145.3,143.7,164.6,124.4,188.3,124.4 M188.3,105.3c-34.3,0-62.1,27.8-62.1,62.1s27.8,62.1,62.1,62.1s62.1-27.8,62.1-62.1
		C250.3,133.1,222.5,105.3,188.3,105.3L188.3,105.3z"/>
	<path fill="#FFFFFF" d="M188.3,262c36.9,0,68.4,29.4,76.9,68.7H111.4C119.9,291.4,151.4,262,188.3,262 M188.3,242.9
		c-53.6,0-97.2,47.7-98.3,107h196.5C285.4,290.6,241.9,242.9,188.3,242.9L188.3,242.9z"/>
	<path fill="#FFFFFF" d="M603.7,124.4c23.7,0,42.9,19.3,42.9,42.9s-19.3,42.9-42.9,42.9c-23.7,0-42.9-19.3-42.9-42.9
		C560.8,143.7,580.1,124.4,603.7,124.4 M603.7,105.3c-34.3,0-62.1,27.8-62.1,62.1s27.8,62.1,62.1,62.1c34.3,0,62.1-27.8,62.1-62.1
		C665.8,133.1,638,105.3,603.7,105.3L603.7,105.3z"/>
	<path fill="#FFFFFF" d="M603.7,262c36.9,0,68.4,29.4,76.9,68.7H526.9C535.4,291.4,566.9,262,603.7,262 M603.7,242.9
		c-53.6,0-97.2,47.7-98.3,107H702C700.9,290.6,657.4,242.9,603.7,242.9L603.7,242.9z"/>
</g>
<g display="none">
	<g display="inline">
		<circle cx="396" cy="263.8" r="82.6"/>
	</g>
	<g display="inline">
		<path d="M526.8,506.7c-1.4-78.9-59.4-142.4-130.8-142.4s-129.4,63.5-130.8,142.4H526.8z"/>
	</g>
	<g display="inline">
		<circle cx="188.2" cy="167.3" r="62.1"/>
	</g>
	<g display="inline">
		<path d="M286.5,349.9c-1.1-59.3-44.6-107-98.3-107s-97.2,47.7-98.2,107H286.5z"/>
	</g>
	<g display="inline">
		<circle cx="603.7" cy="167.3" r="62.1"/>
	</g>
	<g display="inline">
		<path d="M702,349.9c-1.1-59.3-44.6-107-98.3-107c-53.7,0-97.2,47.7-98.3,107H702z"/>
	</g>
</g>
<g display="none">
	<circle display="inline" cx="396" cy="263.8" r="82.6"/>
	<path display="inline" d="M526.8,506.7c-1.4-78.9-59.4-142.4-130.8-142.4s-129.4,63.5-130.8,142.4H526.8z"/>
	<circle display="inline" cx="188.2" cy="167.3" r="62.1"/>
	<path display="inline" d="M286.5,349.9c-1.1-59.3-44.6-107-98.3-107s-97.2,47.7-98.2,107H286.5z"/>
	<circle display="inline" cx="603.7" cy="167.3" r="62.1"/>
	<path display="inline" d="M702,349.9c-1.1-59.3-44.6-107-98.3-107c-53.7,0-97.2,47.7-98.3,107H702z"/>
</g>
</svg>
