<?xml version="1.0" encoding="utf-8"?>
<!-- Generator: Adobe Illustrator 19.2.1, SVG Export Plug-In . SVG Version: 6.00 Build 0)  -->
<!DOCTYPE svg PUBLIC "-//W3C//DTD SVG 1.1//EN" "http://www.w3.org/Graphics/SVG/1.1/DTD/svg11.dtd">
<svg version="1.1" id="Layer_1" xmlns="http://www.w3.org/2000/svg" xmlns:xlink="http://www.w3.org/1999/xlink" x="0px" y="0px"
	 viewBox="0 0 100 100" style="enable-background:new 0 0 100 100;" xml:space="preserve">
<style type="text/css">
	.st0{fill:#FFFFFF;}
</style>
<path class="st0" d="M66.4,63.6l-8.2-8.2C59.9,53,61,50.1,61,47c0-7.7-6.3-14-14-14s-14,6.3-14,14s6.3,14,14,14c3.1,0,6-1.1,8.4-2.8
	l8.2,8.2C64,66.8,64.5,67,65,67s1-0.2,1.4-0.6C67.2,65.6,67.2,64.4,66.4,63.6z M37,47c0-5.5,4.5-10,10-10s10,4.5,10,10
	s-4.5,10-10,10S37,52.5,37,47z"/>
</svg>
