<svg xmlns="http://www.w3.org/2000/svg" xmlns:xlink="http://www.w3.org/1999/xlink" version="1.1" x="0px" y="0px" viewBox="0 0 32 32" enable-background="new 0 0 32 32" xml:space="preserve"><g><path d="M16,20c-0.16,0-0.32-0.04-0.47-0.12l-15-8C0.2,11.71,0,11.37,0,11s0.2-0.71,0.53-0.88l15-8c0.29-0.16,0.65-0.16,0.94,0   l15,8C31.8,10.29,32,10.63,32,11s-0.2,0.71-0.53,0.88l-15,8C16.32,19.96,16.16,20,16,20z M3.12,11L16,17.87L28.88,11L16,4.13   L3.12,11z"></path><path d="M24,30c-0.55,0-1-0.45-1-1V15.39l-7.42-3.48c-0.5-0.23-0.71-0.83-0.48-1.33c0.23-0.5,0.83-0.72,1.33-0.48l8,3.75   c0.35,0.16,0.58,0.52,0.58,0.91V29C25,29.55,24.55,30,24,30z"></path><path d="M16,28c-5.35,0-8.57-3.16-8.71-3.29C7.11,24.52,7,24.27,7,24v-5c0-0.55,0.45-1,1-1s1,0.45,1,1v4.55   C9.82,24.22,12.34,26,16,26c1.77,0,3.37-0.29,4.61-0.85c0.51-0.23,1.09,0,1.32,0.5c0.23,0.5,0,1.1-0.5,1.32   C19.93,27.64,18.05,28,16,28z"></path></g></svg>