<?xml version="1.0" encoding="utf-8"?>
<!-- Generator: Adobe Illustrator 17.1.0, SVG Export Plug-In . SVG Version: 6.00 Build 0)  -->
<!DOCTYPE svg PUBLIC "-//W3C//DTD SVG 1.1//EN" "http://www.w3.org/Graphics/SVG/1.1/DTD/svg11.dtd">
<svg version="1.1" id="Layer_1" xmlns="http://www.w3.org/2000/svg" xmlns:xlink="http://www.w3.org/1999/xlink" x="0px" y="0px"
	 viewBox="0 0 792 612" enable-background="new 0 0 792 612" xml:space="preserve">
<title>iconos deportes</title>
<path fill="#FFFFFF" d="M200.2,416.9c0,43.1,35,78.1,78.1,78.1c43.1,0,78.1-35,78.1-78.1c0-43.1-34.9-78-78-78.1
	C235.2,338.8,200.2,373.7,200.2,416.9L200.2,416.9z M331.4,416.9c0,29.3-23.8,53.1-53.1,53.1c-29.3,0-53.1-23.8-53.1-53.1
	s23.8-53.1,53.1-53.1l0,0C307.6,363.8,331.4,387.5,331.4,416.9L331.4,416.9z"/>
<path fill="#FFFFFF" d="M659.2,259.1H278.4c-87.1,0-157.6,70.6-157.6,157.7s70.6,157.6,157.7,157.6s157.6-70.6,157.6-157.7
	c0-6.5-0.4-13.1-1.2-19.6h154.3c4.4,0,8.5-2.3,10.6-6.1l69.8-112.8c3.8-5.6,2.3-13.2-3.3-17C664.2,259.8,661.7,259.1,659.2,259.1z
	 M582.2,372.2H420c-6.8-0.2-12.4,5.1-12.6,11.9c0,1.1,0.1,2.3,0.4,3.4c16.3,71.5-28.4,142.6-99.9,158.9s-142.6-28.4-158.9-99.9
	s28.4-142.6,99.9-158.9c9.7-2.2,19.6-3.3,29.5-3.3h358.1L582.2,372.2z"/>
<path fill="#FFFFFF" d="M233.7,107.3c-4.9,4.7-5.1,12.4-0.4,17.3c0.1,0.1,0.3,0.3,0.4,0.4l63,64.7c4.8,4.9,12.8,5,17.7,0.2
	c4.9-4.8,5-12.8,0.2-17.7l0,0l-63.2-64.7c-4.6-4.9-12.4-5.2-17.3-0.6C234,107,233.8,107.2,233.7,107.3z"/>
<path fill="#FFFFFF" d="M555.1,107.5L492,172c-4.9,4.9-4.8,12.9,0.1,17.8c4.9,4.9,12.9,4.8,17.8-0.1l63.2-64.7
	c4.8-5,4.7-12.9-0.2-17.7C567.9,102.4,560,102.5,555.1,107.5z"/>
<path fill="#FFFFFF" d="M390.8,49.9v98.7c0,6.9,5.6,12.5,12.5,12.5s12.5-5.6,12.5-12.5V49.9c0-6.9-5.6-12.5-12.5-12.5
	S390.8,43,390.8,49.9z"/>
</svg>
