<svg xmlns="http://www.w3.org/2000/svg" xmlns:xlink="http://www.w3.org/1999/xlink" version="1.1" x="0px" y="0px" viewBox="0 0 32 32" enable-background="new 0 0 32 32" xml:space="preserve"><g display="none"><rect x="-375.545" y="-85.333" display="inline" fill="#000000" width="421.212" height="207"></rect></g><g><path d="M16,10.473c1.83,0,3.319,1.489,3.319,3.319c0,1.83-1.489,3.319-3.319,3.319s-3.319-1.489-3.319-3.319   C12.681,11.962,14.17,10.473,16,10.473 M16,9.473c-2.385,0-4.319,1.934-4.319,4.319c0,2.385,1.934,4.319,4.319,4.319   c2.385,0,4.319-1.934,4.319-4.319C20.319,11.407,18.385,9.473,16,9.473L16,9.473z"></path><path d="M16,20.048c2.848,0,5.26,2.364,5.749,5.446H10.251C10.74,22.412,13.152,20.048,16,20.048 M16,19.048   c-3.734,0-6.764,3.321-6.839,7.446h13.677C22.764,22.369,19.734,19.048,16,19.048L16,19.048z"></path><path d="M5.138,6.506c1.238,0,2.245,1.007,2.245,2.245c0,1.238-1.007,2.245-2.245,2.245S2.893,9.988,2.893,8.75   C2.893,7.513,3.9,6.506,5.138,6.506 M5.138,5.506c-1.792,0-3.245,1.453-3.245,3.245c0,1.792,1.453,3.245,3.245,3.245   c1.792,0,3.245-1.453,3.245-3.245C8.382,6.958,6.929,5.506,5.138,5.506L5.138,5.506z"></path><path d="M5.138,13.699c1.928,0,3.574,1.539,4.02,3.594H1.118C1.564,15.238,3.209,13.699,5.138,13.699 M5.138,12.699   c-2.805,0-5.081,2.495-5.138,5.594h10.275C10.219,15.194,7.943,12.699,5.138,12.699L5.138,12.699z"></path><path d="M26.862,6.506c1.238,0,2.245,1.007,2.245,2.245c0,1.238-1.007,2.245-2.245,2.245s-2.245-1.007-2.245-2.245   C24.618,7.513,25.625,6.506,26.862,6.506 M26.862,5.506c-1.792,0-3.245,1.453-3.245,3.245c0,1.792,1.453,3.245,3.245,3.245   c1.792,0,3.245-1.453,3.245-3.245C30.107,6.958,28.654,5.506,26.862,5.506L26.862,5.506z"></path><path d="M26.862,13.699c1.928,0,3.574,1.539,4.02,3.594h-8.039C23.288,15.238,24.934,13.699,26.862,13.699 M26.862,12.699   c-2.805,0-5.081,2.495-5.138,5.594H32C31.944,15.194,29.668,12.699,26.862,12.699L26.862,12.699z"></path></g><g display="none"><g display="inline"><circle fill="#000000" cx="16" cy="13.792" r="4.319"></circle></g><g display="inline"><path fill="#000000" d="M22.838,26.494c-0.075-4.126-3.105-7.446-6.838-7.446s-6.764,3.321-6.838,7.446H22.838z"></path></g><g display="inline"><circle fill="#000000" cx="5.137" cy="8.75" r="3.245"></circle></g><g display="inline"><path fill="#000000" d="M10.275,18.293c-0.056-3.099-2.332-5.594-5.138-5.594S0.056,15.194,0,18.293H10.275z"></path></g><g display="inline"><circle fill="#000000" cx="26.862" cy="8.75" r="3.245"></circle></g><g display="inline"><path fill="#000000" d="M32,18.293c-0.056-3.099-2.332-5.594-5.138-5.594s-5.081,2.495-5.138,5.594H32z"></path></g></g><g display="none"><circle display="inline" cx="16" cy="13.792" r="4.319"></circle><path display="inline" d="M22.838,26.494c-0.075-4.126-3.105-7.446-6.838-7.446s-6.764,3.321-6.838,7.446H22.838z"></path><circle display="inline" cx="5.137" cy="8.75" r="3.245"></circle><path display="inline" d="M10.275,18.293c-0.056-3.099-2.332-5.594-5.138-5.594S0.056,15.194,0,18.293H10.275z"></path><circle display="inline" cx="26.862" cy="8.75" r="3.245"></circle><path display="inline" d="M32,18.293c-0.056-3.099-2.332-5.594-5.138-5.594s-5.081,2.495-5.138,5.594H32z"></path></g></svg>