<?xml version="1.0" encoding="utf-8"?>
<!-- Generator: Adobe Illustrator 17.1.0, SVG Export Plug-In . SVG Version: 6.00 Build 0)  -->
<!DOCTYPE svg PUBLIC "-//W3C//DTD SVG 1.1//EN" "http://www.w3.org/Graphics/SVG/1.1/DTD/svg11.dtd">
<svg version="1.1" id="Layer_1" xmlns="http://www.w3.org/2000/svg" xmlns:xlink="http://www.w3.org/1999/xlink" x="0px" y="0px"
	 viewBox="0 0 792 612" enable-background="new 0 0 792 612" xml:space="preserve">
<g>
	<path fill="#FFFFFF" d="M580.6,68H533V51c0-10.2-6.8-17-17-17c-10.2,0-17,6.8-17,17v17H295V51c0-10.2-6.8-17-17-17s-17,6.8-17,17
		v17h-47.6c-49.3,0-88.4,40.8-88.4,88.4v331.5c0,49.3,40.8,88.4,88.4,88.4h365.5c49.3,0,88.4-40.8,88.4-88.4V156.4
		C669,108.8,628.2,68,580.6,68z M213.4,102H261v23.8c-20.4,6.8-34,25.5-34,47.6c0,28.9,22.1,51,51,51s51-22.1,51-51
		c0-22.1-13.6-40.8-34-47.6V102h204v23.8c-20.4,6.8-34,25.5-34,47.6c0,28.9,22.1,51,51,51s51-22.1,51-51c0-22.1-13.6-40.8-34-47.6
		V102h47.6c30.6,0,54.4,25.5,54.4,54.4V238H159v-81.6C159,127.5,184.5,102,213.4,102z M278,156.4c10.2,0,17,6.8,17,17s-6.8,17-17,17
		s-17-6.8-17-17S267.8,156.4,278,156.4z M516,156.4c10.2,0,17,6.8,17,17s-6.8,17-17,17c-10.2,0-17-6.8-17-17S505.8,156.4,516,156.4z
		 M580.6,544H215.1c-30.6,0-54.4-25.5-54.4-54.4V272h476v217.6C635,518.5,609.5,544,580.6,544z"/>
	<path fill="#FFFFFF" d="M356.2,323h-17c-10.2,0-17,6.8-17,17s6.8,17,17,17h17c10.2,0,17-6.8,17-17S364.7,323,356.2,323z"/>
	<path fill="#FFFFFF" d="M454.8,323h-17c-10.2,0-17,6.8-17,17s6.8,17,17,17h17c10.2,0,17-6.8,17-17S463.3,323,454.8,323z"/>
	<path fill="#FFFFFF" d="M257.6,323h-17c-10.2,0-17,6.8-17,17s6.8,17,17,17h17c10.2,0,17-6.8,17-17S266.1,323,257.6,323z"/>
	<path fill="#FFFFFF" d="M553.4,323h-17c-10.2,0-17,6.8-17,17s6.8,17,17,17h17c10.2,0,17-6.8,17-17S561.9,323,553.4,323z"/>
	<path fill="#FFFFFF" d="M257.6,391h-17c-10.2,0-17,6.8-17,17s6.8,17,17,17h17c10.2,0,17-6.8,17-17S266.1,391,257.6,391z"/>
	<path fill="#FFFFFF" d="M356.2,391h-17c-10.2,0-17,6.8-17,17s6.8,17,17,17h17c10.2,0,17-6.8,17-17S364.7,391,356.2,391z"/>
	<path fill="#FFFFFF" d="M553.4,391h-17c-10.2,0-17,6.8-17,17s6.8,17,17,17h17c10.2,0,17-6.8,17-17S561.9,391,553.4,391z"/>
	<path fill="#FFFFFF" d="M454.8,391h-17c-10.2,0-17,6.8-17,17s6.8,17,17,17h17c10.2,0,17-6.8,17-17S463.3,391,454.8,391z"/>
	<path fill="#FFFFFF" d="M454.8,459h-17c-10.2,0-17,6.8-17,17s6.8,17,17,17h17c10.2,0,17-6.8,17-17S463.3,459,454.8,459z"/>
	<path fill="#FFFFFF" d="M553.4,459h-17c-10.2,0-17,6.8-17,17s6.8,17,17,17h17c10.2,0,17-6.8,17-17S561.9,459,553.4,459z"/>
	<path fill="#FFFFFF" d="M356.2,459h-17c-10.2,0-17,6.8-17,17s6.8,17,17,17h17c10.2,0,17-6.8,17-17S364.7,459,356.2,459z"/>
	<path fill="#FFFFFF" d="M257.6,459h-17c-10.2,0-17,6.8-17,17s6.8,17,17,17h17c10.2,0,17-6.8,17-17S266.1,459,257.6,459z"/>
</g>
</svg>
