<?xml version="1.0" encoding="utf-8"?>
<!-- Generator: Adobe Illustrator 19.2.1, SVG Export Plug-In . SVG Version: 6.00 Build 0)  -->
<!DOCTYPE svg PUBLIC "-//W3C//DTD SVG 1.1//EN" "http://www.w3.org/Graphics/SVG/1.1/DTD/svg11.dtd">
<svg version="1.1" id="Layer_1" xmlns="http://www.w3.org/2000/svg" xmlns:xlink="http://www.w3.org/1999/xlink" x="0px" y="0px"
	 viewBox="0 0 332 332" style="enable-background:new 0 0 332 332;" xml:space="preserve">
<style type="text/css">
	.st0{fill:#FFFFFF;}
</style>
<g>
	<path class="st0" d="M166,0c46,0,87,19,117,49s49,71,49,117s-19,87-49,117s-71,49-117,49s-87-19-117-49S0,212,0,166S19,79,49,49
		S120,0,166,0z M275,57c-28-28-67-45-109-45c-43,0-81,17-109,45s-45,66-45,109c0,42,17,81,45,109c28,27,66,45,109,45
		c42,0,81-18,109-45c27-28,45-67,45-109C320,123,302,85,275,57z M231,175l-46,26l-45,26c-8,5-16,4-16-9v-52v-53c0-11,6-15,15-9
		l46,26l46,26C239,161,240,170,231,175z"/>
</g>
</svg>
