<svg xmlns="http://www.w3.org/2000/svg" xmlns:xlink="http://www.w3.org/1999/xlink" version="1.1" x="0px" y="0px" viewBox="0 0 100 100" enable-background="new 0 0 100 100" xml:space="preserve"><path d="M88.221,76.439c-2.595,0-4.988,0.854-6.938,2.28L66.716,64.152c1.514-2.423,2.403-5.273,2.403-8.335  c0-4.038-1.536-7.715-4.038-10.511l18.873-26.893c0.895,0.283,1.846,0.437,2.833,0.437c5.197,0,9.425-4.228,9.425-9.425  C96.212,4.228,91.984,0,86.787,0s-9.425,4.228-9.425,9.425c0,2.404,0.912,4.594,2.398,6.26L61.194,42.142  c-2.32-1.341-5.004-2.121-7.871-2.121c-3.06,0-5.91,0.889-8.332,2.401L17.463,14.323c0.875-1.429,1.388-3.103,1.388-4.897  C18.851,4.229,14.623,0,9.426,0C4.229,0,0,4.229,0,9.426c0,5.197,4.229,9.425,9.426,9.425c1.589,0,3.085-0.399,4.399-1.096  l27.38,27.948c-0.734,0.878-1.368,1.839-1.899,2.863l-16.63-5.252c-0.224-4.082-3.605-7.336-7.742-7.336  c-4.281,0-7.763,3.482-7.763,7.763s3.482,7.764,7.763,7.764c2.651,0,4.994-1.338,6.396-3.373l16.416,5.184  c-0.131,0.817-0.218,1.648-0.218,2.502c0,2.074,0.413,4.052,1.143,5.868L15.347,75.679c-1.632-1.509-3.806-2.439-6.198-2.439  C4.104,73.239,0,77.343,0,82.388c0,5.044,4.104,9.147,9.148,9.147s9.148-4.104,9.148-9.147c0-0.848-0.125-1.664-0.341-2.443  l23.287-13.972c2.899,3.444,7.237,5.641,12.081,5.641c3.844,0,7.368-1.383,10.11-3.674l14.521,14.521  c-0.961,1.704-1.515,3.666-1.515,5.758c0,6.496,5.285,11.781,11.781,11.781C94.716,100,100,94.715,100,88.219  C100,81.724,94.716,76.439,88.221,76.439z M14.934,46.503c-1.523,0-2.763-1.24-2.763-2.763s1.24-2.763,2.763-2.763  s2.763,1.24,2.763,2.763S16.457,46.503,14.934,46.503z M9.148,86.535C6.861,86.535,5,84.675,5,82.388s1.861-4.148,4.148-4.148  c2.287,0,4.148,1.861,4.148,4.148S11.436,86.535,9.148,86.535z M86.787,5c2.439,0,4.425,1.985,4.425,4.425s-1.985,4.425-4.425,4.425  s-4.425-1.985-4.425-4.425S84.348,5,86.787,5z M9.426,13.851C6.985,13.851,5,11.866,5,9.426C5,6.985,6.985,5,9.426,5  c2.44,0,4.425,1.985,4.425,4.426C13.851,11.866,11.866,13.851,9.426,13.851z M53.323,66.613c-5.953,0-10.796-4.843-10.796-10.796  s4.843-10.796,10.796-10.796c5.953,0,10.796,4.843,10.796,10.796S59.276,66.613,53.323,66.613z M88.221,95  c-3.739,0-6.781-3.042-6.781-6.781c0-3.738,3.042-6.779,6.781-6.779c3.738,0,6.779,3.041,6.779,6.779C95,91.958,91.959,95,88.221,95  z"></path></svg>