<svg xmlns="http://www.w3.org/2000/svg" xmlns:xlink="http://www.w3.org/1999/xlink" version="1.1" x="0px" y="0px" viewBox="0 0 100 100" enable-background="new 0 0 100 100" xml:space="preserve"><path d="M66.414,63.586l-8.217-8.217C59.949,53.031,61,50.14,61,47c0-7.72-6.28-14-14-14s-14,6.28-14,14s6.28,14,14,14  c3.14,0,6.031-1.051,8.369-2.803l8.217,8.217C63.977,66.805,64.488,67,65,67s1.023-0.195,1.414-0.586  C67.195,65.633,67.195,64.367,66.414,63.586z M37,47c0-5.514,4.486-10,10-10c5.514,0,10,4.486,10,10c0,5.514-4.486,10-10,10  C41.486,57,37,52.514,37,47z"></path></svg>