<svg id="Layer_1" data-name="Layer 1" xmlns="http://www.w3.org/2000/svg" xmlns:xlink="http://www.w3.org/1999/xlink" viewBox="0 0 45.86 44.54"><defs><style>.cls-1{fill:url(#linear-gradient);}.cls-2{fill:url(#linear-gradient-2);}.cls-3{fill:url(#linear-gradient-3);}.cls-4{fill:url(#linear-gradient-4);}.cls-5{fill:url(#linear-gradient-5);}</style><linearGradient id="linear-gradient" x1="36.57" y1="10.67" x2="36.57" y2="32.51" gradientUnits="userSpaceOnUse"><stop offset="0" stop-color="#4ba2b9"/><stop offset="1" stop-color="#245ec5"/></linearGradient><linearGradient id="linear-gradient-2" x1="31.58" y1="27.58" x2="31.58" y2="46.54" xlink:href="#linear-gradient"/><linearGradient id="linear-gradient-3" x1="14.62" y1="24.73" x2="14.62" y2="46.48" xlink:href="#linear-gradient"/><linearGradient id="linear-gradient-4" x1="12.13" y1="10.5" x2="12.13" y2="30.44" xlink:href="#linear-gradient"/><linearGradient id="linear-gradient-5" x1="24.27" y1="2" x2="24.27" y2="23.8" xlink:href="#linear-gradient"/></defs><title>icon-5c-blue</title><path class="cls-1" d="M39.43,11.2a10.59,10.59,0,0,0-3.72-.52,12.14,12.14,0,0,1,.23,2.06,8.17,8.17,0,0,1,2.86.46,8.83,8.83,0,0,1,5.67,11.17,9.2,9.2,0,0,1-3.32,4.52,5,5,0,0,1-.74.46,8.26,8.26,0,0,1-1.95.8,5.68,5.68,0,0,1-1,.23A8.51,8.51,0,0,1,33.36,30a9.06,9.06,0,0,1-3.55-2.18,10,10,0,0,1-.68-.74,5.68,5.68,0,0,1,1-.23,8.65,8.65,0,0,1,4.18.34,9,9,0,0,1,3.55,2.18,7.66,7.66,0,0,0,2.06-.75,11.4,11.4,0,0,0-5-3.38,11.28,11.28,0,0,0-6-.22c-.29.05-.58.17-.86.22-.52.18-1,.41-1.49.63-.12.06-.29.18-.4.23.06.12.11.29.17.4.23.46.52.92.8,1.38a6.93,6.93,0,0,0,.57.69,11.54,11.54,0,0,0,5,3.37,11.29,11.29,0,0,0,6,.23c.29-.05.57-.17.86-.23a13.1,13.1,0,0,0,1.89-.85,3.43,3.43,0,0,0,.74-.46A10.92,10.92,0,0,0,39.43,11.2Z" transform="translate(-1.14 -2)"/><path class="cls-2" d="M39.89,32.73A8.55,8.55,0,0,1,40,38.34a8.87,8.87,0,0,1-11.17,5.73,7.92,7.92,0,0,1-2.57-1.32,5.77,5.77,0,0,1-.69-.57,9.18,9.18,0,0,1-1.38-1.6l-.51-.86a8.92,8.92,0,0,1-1-4.07,9.43,9.43,0,0,1,.46-2.75,8.78,8.78,0,0,1,.58-1.32l.51-.85.52.85a8.7,8.7,0,0,1-.06,8.08A10.46,10.46,0,0,0,26,41.38,11.87,11.87,0,0,0,27.18,39a10.7,10.7,0,0,0-.63-8.3,3.89,3.89,0,0,0-.46-.8c-.17-.23-.34-.52-.51-.75a8.83,8.83,0,0,0-1.38-1.54,8.77,8.77,0,0,0-1.37,1.54,6.55,6.55,0,0,0-.52.75,10.49,10.49,0,0,0-1.66,5.78,10.48,10.48,0,0,0,1.66,5.78c.17.23.34.52.52.75a8.82,8.82,0,0,0,1.37,1.49,5.77,5.77,0,0,0,.69.57A11.91,11.91,0,0,0,28.21,46,10.91,10.91,0,0,0,42,39a10.72,10.72,0,0,0-.11-7.1A18.74,18.74,0,0,1,39.89,32.73Z" transform="translate(-1.14 -2)"/><path class="cls-3" d="M22.08,42.69a8.83,8.83,0,0,1-13.23-3,8.66,8.66,0,0,1-.51-6.76.18.18,0,0,1,.05-.11c.12-.29.23-.58.35-.81a11.78,11.78,0,0,1,1.09-1.83,10,10,0,0,1,.68-.74,8.88,8.88,0,0,1,7.74-2.52,5.68,5.68,0,0,1,1,.23,4.39,4.39,0,0,1-.69.74,8.36,8.36,0,0,1-2.29,1.66,9,9,0,0,1-5.44.86,6.16,6.16,0,0,0-1.2,1.83,10.88,10.88,0,0,0,11-3.55c.17-.23.4-.45.58-.68a11.75,11.75,0,0,0,1-1.78,10.18,10.18,0,0,0-1.89-.86c-.06,0-.06,0-.12-.06-.23-.05-.51-.17-.74-.22A11,11,0,0,0,8.39,28.61c-.17.23-.4.45-.57.68a11.75,11.75,0,0,0-1,1.78c-.11.28-.23.51-.34.8-.06.11-.06.23-.12.34A10.57,10.57,0,0,0,7,40.52,11.1,11.1,0,0,0,13.38,46a11.05,11.05,0,0,0,10.08-1.78A6.57,6.57,0,0,1,22.08,42.69Z" transform="translate(-1.14 -2)"/><path class="cls-4" d="M7.08,28.84a9.22,9.22,0,0,1-2.81-3.27,8.65,8.65,0,0,1-.51-6.76,8.83,8.83,0,0,1,8.59-6.12,5,5,0,0,1,.86.05,6.24,6.24,0,0,1,1.71.4c.12.06.23.06.35.12a4.18,4.18,0,0,1,.91.4,8.85,8.85,0,0,1,4.76,6.53c0,.34,0,.63.11,1a6.11,6.11,0,0,1-.92-.4,8.87,8.87,0,0,1-3.89-3.89,7.89,7.89,0,0,1-.86-2.7c-.23-.11-.46-.17-.69-.28a6.63,6.63,0,0,0-1.43-.35,12.12,12.12,0,0,0,1.15,4.19A11,11,0,0,0,20,22.88c.23.11.46.17.74.29.06,0,.06,0,.12,0a8,8,0,0,0,2,.4,11.92,11.92,0,0,0,.23-2.06,5.93,5.93,0,0,0-.05-.91,10.87,10.87,0,0,0-6.82-9.34c-.23-.11-.46-.17-.74-.29-.06,0-.06,0-.12,0a8,8,0,0,0-2-.4,4.49,4.49,0,0,0-.92-.06A10.94,10.94,0,0,0,1.69,18.07a10.79,10.79,0,0,0,.63,8.3,10.39,10.39,0,0,0,3.61,4.07C6.33,30,6.68,29.41,7.08,28.84Z" transform="translate(-1.14 -2)"/><path class="cls-5" d="M15.67,10.17A8.91,8.91,0,0,1,26.84,4.44a8.73,8.73,0,0,1,5.72,5.84,4.57,4.57,0,0,1,.23.86A12.14,12.14,0,0,1,33,13.26a4.79,4.79,0,0,1-.11,1,5.83,5.83,0,0,1-.35,1.38,8.92,8.92,0,0,1-4.4,5.15,6.11,6.11,0,0,1-.92.4,5.63,5.63,0,0,1,.11-1,6.36,6.36,0,0,1,.35-1.38,8.77,8.77,0,0,1,4.41-5.15,7.59,7.59,0,0,0-.12-2.23,10.87,10.87,0,0,0-6.3,6.75,10.2,10.2,0,0,0-.51,2.64c0,.28-.06.51-.06.8v.11a8.59,8.59,0,0,0,.23,2.07,10.74,10.74,0,0,0,2-.41c.29-.11.58-.17.86-.28a6.06,6.06,0,0,0,.86-.4,10.85,10.85,0,0,0,5.44-6.36A10.22,10.22,0,0,0,35,13.72a5.64,5.64,0,0,0,0-.92,8.51,8.51,0,0,0-.23-2.06,5.48,5.48,0,0,0-.23-.86,10.91,10.91,0,0,0-20.85-.34c-.05.11-.05.22-.11.34a10.79,10.79,0,0,1,2,.46C15.67,10.22,15.67,10.22,15.67,10.17Z" transform="translate(-1.14 -2)"/></svg>