<svg xmlns="http://www.w3.org/2000/svg" viewBox="0 0 71.13 71.13"><defs><style>.cls-1{fill:#ac324c;}.cls-2{fill:#ee496b;}.cls-3{fill:#ef6990;}.cls-4{fill:#00a5d9;}.cls-5{fill:#008ac3;}.cls-6{fill:#1c72b1;}.cls-7{fill:#2e5782;}</style></defs><g id="Layer_2" data-name="Layer 2"><g id="Layer_1-2" data-name="Layer 1"><path class="cls-1" d="M29.1,16.45a1.8,1.8,0,1,0-2.27-1.16A1.8,1.8,0,0,0,29.1,16.45Z"/><path class="cls-2" d="M16.18,21.78a1.8,1.8,0,1,0,2.52-.4A1.81,1.81,0,0,0,16.18,21.78Z"/><path class="cls-2" d="M11.78,35.81A1.81,1.81,0,1,0,13.58,34,1.81,1.81,0,0,0,11.78,35.81Z"/><path class="cls-3" d="M16.86,47.22a1.8,1.8,0,1,0,2.52.4A1.8,1.8,0,0,0,16.86,47.22Z"/><path class="cls-4" d="M30.72,57.1a1.8,1.8,0,1,0-2.28,1.16A1.81,1.81,0,0,0,30.72,57.1Z"/><path class="cls-4" d="M44.3,55.84a1.8,1.8,0,1,0-1.16,2.27A1.8,1.8,0,0,0,44.3,55.84Z"/><path class="cls-5" d="M55,49.35a1.8,1.8,0,1,0-2.52.4A1.81,1.81,0,0,0,55,49.35Z"/><path class="cls-6" d="M55.74,35.32a1.81,1.81,0,1,0,1.81-1.8A1.81,1.81,0,0,0,55.74,35.32Z"/><path class="cls-6" d="M54.27,23.91a1.8,1.8,0,1,0-2.52-.4A1.81,1.81,0,0,0,54.27,23.91Z"/><path class="cls-7" d="M40.41,14a1.8,1.8,0,1,0,2.28-1.16A1.81,1.81,0,0,0,40.41,14Z"/><path class="cls-7" d="M35.56,12.93A3.06,3.06,0,1,0,38.62,16,3.06,3.06,0,0,0,35.56,12.93Z"/><path class="cls-1" d="M22.26,17.25a3.05,3.05,0,1,0,4.27.68A3.06,3.06,0,0,0,22.26,17.25Z"/><path class="cls-2" d="M17.89,26.61a3.05,3.05,0,1,0,2,3.85A3.06,3.06,0,0,0,17.89,26.61Z"/><path class="cls-2" d="M16,38.71a3.05,3.05,0,1,0,3.85,2A3.05,3.05,0,0,0,16,38.71Z"/><circle class="cls-3" cx="24.06" cy="51.41" r="3.05" transform="translate(-4.41 2.31) rotate(-5.03)"/><path class="cls-4" d="M35.56,52.09a3.06,3.06,0,1,0,3.06,3.06A3.06,3.06,0,0,0,35.56,52.09Z"/><path class="cls-5" d="M48.87,53.88a3.05,3.05,0,1,0-4.27-.68A3.05,3.05,0,0,0,48.87,53.88Z"/><path class="cls-5" d="M53.24,44.52a3.05,3.05,0,1,0-2-3.85A3.06,3.06,0,0,0,53.24,44.52Z"/><path class="cls-6" d="M55.13,32.42a3.05,3.05,0,1,0-3.85-2A3.05,3.05,0,0,0,55.13,32.42Z"/><path class="cls-7" d="M45.28,22.19a3.05,3.05,0,1,0-.68-4.26A3.05,3.05,0,0,0,45.28,22.19Z"/><path class="cls-6" d="M69.33,33.76a1.81,1.81,0,1,0,1.8,1.8A1.81,1.81,0,0,0,69.33,33.76Z"/><path class="cls-6" d="M68.23,26.85A1.8,1.8,0,1,0,66,25.69,1.81,1.81,0,0,0,68.23,26.85Z"/><path class="cls-7" d="M63.94,17.18a1.8,1.8,0,1,0-2.52-.4A1.8,1.8,0,0,0,63.94,17.18Z"/><path class="cls-7" d="M54.35,9.71A1.8,1.8,0,1,0,54,7.19,1.8,1.8,0,0,0,54.35,9.71Z"/><path class="cls-7" d="M45.44,5.17A1.8,1.8,0,1,0,44.28,2.9,1.79,1.79,0,0,0,45.44,5.17Z"/><path class="cls-1" d="M35.56,3.61a1.81,1.81,0,1,0-1.8-1.81A1.81,1.81,0,0,0,35.56,3.61Z"/><path class="cls-1" d="M25.69,5.17A1.8,1.8,0,1,0,23.42,4,1.8,1.8,0,0,0,25.69,5.17Z"/><path class="cls-1" d="M16.78,9.71a1.8,1.8,0,0,0,.4-2.52,1.8,1.8,0,1,0-.4,2.52Z"/><path class="cls-2" d="M7.19,17.18a1.8,1.8,0,1,0-.4-2.52A1.81,1.81,0,0,0,7.19,17.18Z"/><path class="cls-2" d="M4,23.42a1.8,1.8,0,1,0,1.16,2.27A1.8,1.8,0,0,0,4,23.42Z"/><path class="cls-3" d="M3.61,35.56A1.81,1.81,0,1,0,1.8,37.37,1.81,1.81,0,0,0,3.61,35.56Z"/><path class="cls-3" d="M2.9,44.28a1.8,1.8,0,1,0,2.27,1.16A1.8,1.8,0,0,0,2.9,44.28Z"/><path class="cls-3" d="M7.19,54a1.8,1.8,0,1,0,2.52.4A1.8,1.8,0,0,0,7.19,54Z"/><path class="cls-4" d="M16.78,61.42a1.8,1.8,0,1,0,.4,2.52A1.8,1.8,0,0,0,16.78,61.42Z"/><path class="cls-4" d="M25.69,66a1.8,1.8,0,1,0,1.16,2.27A1.79,1.79,0,0,0,25.69,66Z"/><path class="cls-4" d="M35.56,67.52a1.81,1.81,0,1,0,1.81,1.81A1.81,1.81,0,0,0,35.56,67.52Z"/><path class="cls-5" d="M45.44,66a1.8,1.8,0,1,0,2.27,1.16A1.8,1.8,0,0,0,45.44,66Z"/><path class="cls-5" d="M54.35,61.42a1.8,1.8,0,0,0-.4,2.52,1.8,1.8,0,1,0,.4-2.52Z"/><path class="cls-5" d="M63.94,54a1.8,1.8,0,1,0,.4,2.52A1.81,1.81,0,0,0,63.94,54Z"/><path class="cls-6" d="M68.23,44.28a1.8,1.8,0,1,0,1.16,2.27A1.8,1.8,0,0,0,68.23,44.28Z"/><path class="cls-7" d="M56.91,18.07a2.72,2.72,0,1,0-3.85,0A2.71,2.71,0,0,0,56.91,18.07Z"/><path class="cls-7" d="M49.27,8.67a2.72,2.72,0,1,0,1.19,3.66A2.71,2.71,0,0,0,49.27,8.67Z"/><path class="cls-7" d="M39.44,11.13A2.72,2.72,0,1,0,37.17,8,2.72,2.72,0,0,0,39.44,11.13Z"/><path class="cls-1" d="M31.69,11.13a2.72,2.72,0,1,0-3.11-2.27A2.73,2.73,0,0,0,31.69,11.13Z"/><path class="cls-1" d="M24.33,13.52a2.72,2.72,0,1,0-3.66-1.19A2.71,2.71,0,0,0,24.33,13.52Z"/><path class="cls-1" d="M18.07,18.07a2.72,2.72,0,1,0-3.85,0A2.73,2.73,0,0,0,18.07,18.07Z"/><path class="cls-2" d="M8.67,21.86a2.72,2.72,0,1,0,3.66-1.19A2.71,2.71,0,0,0,8.67,21.86Z"/><path class="cls-2" d="M8,34a2.72,2.72,0,1,0-2.26-3.12A2.73,2.73,0,0,0,8,34Z"/><path class="cls-3" d="M8.86,42.55a2.72,2.72,0,1,0-3.11-2.26A2.72,2.72,0,0,0,8.86,42.55Z"/><path class="cls-3" d="M13.52,46.8a2.72,2.72,0,1,0-1.19,3.66A2.71,2.71,0,0,0,13.52,46.8Z"/><circle class="cls-3" cx="16.14" cy="54.99" r="2.72"/><path class="cls-4" d="M25.52,61.27a2.72,2.72,0,1,0-3.66,1.19A2.71,2.71,0,0,0,25.52,61.27Z"/><path class="cls-4" d="M31.69,60A2.72,2.72,0,1,0,34,63.12,2.72,2.72,0,0,0,31.69,60Z"/><path class="cls-4" d="M39.44,60a2.72,2.72,0,1,0,3.11,2.27A2.73,2.73,0,0,0,39.44,60Z"/><path class="cls-5" d="M46.8,57.61a2.72,2.72,0,1,0,3.66,1.19A2.71,2.71,0,0,0,46.8,57.61Z"/><circle class="cls-5" cx="54.99" cy="54.99" r="2.72"/><path class="cls-5" d="M62.46,49.27a2.72,2.72,0,1,0-3.66,1.19A2.71,2.71,0,0,0,62.46,49.27Z"/><path class="cls-6" d="M63.65,37.31a2.74,2.74,0,0,0-3.65,3,2.64,2.64,0,0,0,1.4,1.92,2.73,2.73,0,1,0,2.25-5Z"/><path class="cls-6" d="M62.27,28.58a2.72,2.72,0,1,0,3.11,2.26A2.72,2.72,0,0,0,62.27,28.58Z"/><path class="cls-6" d="M57.61,24.33a2.72,2.72,0,1,0,1.19-3.66A2.71,2.71,0,0,0,57.61,24.33Z"/><path class="cls-1" d="M29.1,16.45a1.8,1.8,0,1,0-2.27-1.16A1.8,1.8,0,0,0,29.1,16.45Z"/><path class="cls-2" d="M16.18,21.78a1.8,1.8,0,1,0,2.52-.4A1.81,1.81,0,0,0,16.18,21.78Z"/><path class="cls-2" d="M11.78,35.81A1.81,1.81,0,1,0,13.58,34,1.81,1.81,0,0,0,11.78,35.81Z"/><path class="cls-3" d="M16.86,47.22a1.8,1.8,0,1,0,2.52.4A1.8,1.8,0,0,0,16.86,47.22Z"/><path class="cls-4" d="M30.72,57.1a1.8,1.8,0,1,0-2.28,1.16A1.81,1.81,0,0,0,30.72,57.1Z"/><path class="cls-4" d="M44.3,55.84a1.8,1.8,0,1,0-1.16,2.27A1.8,1.8,0,0,0,44.3,55.84Z"/><path class="cls-5" d="M55,49.35a1.8,1.8,0,1,0-2.52.4A1.81,1.81,0,0,0,55,49.35Z"/><path class="cls-6" d="M55.74,35.32a1.81,1.81,0,1,0,1.81-1.8A1.81,1.81,0,0,0,55.74,35.32Z"/><path class="cls-6" d="M54.27,23.91a1.8,1.8,0,1,0-2.52-.4A1.81,1.81,0,0,0,54.27,23.91Z"/><path class="cls-7" d="M40.41,14a1.8,1.8,0,1,0,2.28-1.16A1.81,1.81,0,0,0,40.41,14Z"/><path class="cls-7" d="M35.56,12.93A3.06,3.06,0,1,0,38.62,16,3.06,3.06,0,0,0,35.56,12.93Z"/><path class="cls-1" d="M22.26,17.25a3.05,3.05,0,1,0,4.27.68A3.06,3.06,0,0,0,22.26,17.25Z"/><path class="cls-2" d="M17.89,26.61a3.05,3.05,0,1,0,2,3.85A3.06,3.06,0,0,0,17.89,26.61Z"/><path class="cls-2" d="M16,38.71a3.05,3.05,0,1,0,3.85,2A3.05,3.05,0,0,0,16,38.71Z"/><circle class="cls-3" cx="24.06" cy="51.41" r="3.05" transform="translate(-4.41 2.31) rotate(-5.03)"/><path class="cls-4" d="M35.56,52.09a3.06,3.06,0,1,0,3.06,3.06A3.06,3.06,0,0,0,35.56,52.09Z"/><path class="cls-5" d="M48.87,53.88a3.05,3.05,0,1,0-4.27-.68A3.05,3.05,0,0,0,48.87,53.88Z"/><path class="cls-5" d="M53.24,44.52a3.05,3.05,0,1,0-2-3.85A3.06,3.06,0,0,0,53.24,44.52Z"/><path class="cls-6" d="M55.13,32.42a3.05,3.05,0,1,0-3.85-2A3.05,3.05,0,0,0,55.13,32.42Z"/><path class="cls-7" d="M45.28,22.19a3.05,3.05,0,1,0-.68-4.26A3.05,3.05,0,0,0,45.28,22.19Z"/><path class="cls-6" d="M69.33,33.76a1.81,1.81,0,1,0,1.8,1.8A1.81,1.81,0,0,0,69.33,33.76Z"/><path class="cls-6" d="M68.23,26.85A1.8,1.8,0,1,0,66,25.69,1.81,1.81,0,0,0,68.23,26.85Z"/><path class="cls-7" d="M63.94,17.18a1.8,1.8,0,1,0-2.52-.4A1.8,1.8,0,0,0,63.94,17.18Z"/><path class="cls-7" d="M54.35,9.71A1.8,1.8,0,1,0,54,7.19,1.8,1.8,0,0,0,54.35,9.71Z"/><path class="cls-7" d="M45.44,5.17A1.8,1.8,0,1,0,44.28,2.9,1.79,1.79,0,0,0,45.44,5.17Z"/><path class="cls-1" d="M35.56,3.61a1.81,1.81,0,1,0-1.8-1.81A1.81,1.81,0,0,0,35.56,3.61Z"/><path class="cls-1" d="M25.69,5.17A1.8,1.8,0,1,0,23.42,4,1.8,1.8,0,0,0,25.69,5.17Z"/><path class="cls-1" d="M16.78,9.71a1.8,1.8,0,0,0,.4-2.52,1.8,1.8,0,1,0-.4,2.52Z"/><path class="cls-2" d="M7.19,17.18a1.8,1.8,0,1,0-.4-2.52A1.81,1.81,0,0,0,7.19,17.18Z"/><path class="cls-2" d="M4,23.42a1.8,1.8,0,1,0,1.16,2.27A1.8,1.8,0,0,0,4,23.42Z"/><path class="cls-3" d="M3.61,35.56A1.81,1.81,0,1,0,1.8,37.37,1.81,1.81,0,0,0,3.61,35.56Z"/><path class="cls-3" d="M2.9,44.28a1.8,1.8,0,1,0,2.27,1.16A1.8,1.8,0,0,0,2.9,44.28Z"/><path class="cls-3" d="M7.19,54a1.8,1.8,0,1,0,2.52.4A1.8,1.8,0,0,0,7.19,54Z"/><path class="cls-4" d="M16.78,61.42a1.8,1.8,0,1,0,.4,2.52A1.8,1.8,0,0,0,16.78,61.42Z"/><path class="cls-4" d="M25.69,66a1.8,1.8,0,1,0,1.16,2.27A1.79,1.79,0,0,0,25.69,66Z"/><path class="cls-4" d="M35.56,67.52a1.81,1.81,0,1,0,1.81,1.81A1.81,1.81,0,0,0,35.56,67.52Z"/><path class="cls-5" d="M45.44,66a1.8,1.8,0,1,0,2.27,1.16A1.8,1.8,0,0,0,45.44,66Z"/><path class="cls-5" d="M54.35,61.42a1.8,1.8,0,0,0-.4,2.52,1.8,1.8,0,1,0,.4-2.52Z"/><path class="cls-5" d="M63.94,54a1.8,1.8,0,1,0,.4,2.52A1.81,1.81,0,0,0,63.94,54Z"/><path class="cls-6" d="M68.23,44.28a1.8,1.8,0,1,0,1.16,2.27A1.8,1.8,0,0,0,68.23,44.28Z"/><path class="cls-7" d="M56.91,18.07a2.72,2.72,0,1,0-3.85,0A2.71,2.71,0,0,0,56.91,18.07Z"/><path class="cls-7" d="M49.27,8.67a2.72,2.72,0,1,0,1.19,3.66A2.71,2.71,0,0,0,49.27,8.67Z"/><path class="cls-7" d="M39.44,11.13A2.72,2.72,0,1,0,37.17,8,2.72,2.72,0,0,0,39.44,11.13Z"/><path class="cls-1" d="M31.69,11.13a2.72,2.72,0,1,0-3.11-2.27A2.73,2.73,0,0,0,31.69,11.13Z"/><path class="cls-1" d="M24.33,13.52a2.72,2.72,0,1,0-3.66-1.19A2.71,2.71,0,0,0,24.33,13.52Z"/><path class="cls-1" d="M18.07,18.07a2.72,2.72,0,1,0-3.85,0A2.73,2.73,0,0,0,18.07,18.07Z"/><path class="cls-2" d="M8.67,21.86a2.72,2.72,0,1,0,3.66-1.19A2.71,2.71,0,0,0,8.67,21.86Z"/><path class="cls-2" d="M8,34a2.72,2.72,0,1,0-2.26-3.12A2.73,2.73,0,0,0,8,34Z"/><path class="cls-3" d="M8.86,42.55a2.72,2.72,0,1,0-3.11-2.26A2.72,2.72,0,0,0,8.86,42.55Z"/><path class="cls-3" d="M13.52,46.8a2.72,2.72,0,1,0-1.19,3.66A2.71,2.71,0,0,0,13.52,46.8Z"/><circle class="cls-3" cx="16.14" cy="54.99" r="2.72"/><path class="cls-4" d="M25.52,61.27a2.72,2.72,0,1,0-3.66,1.19A2.71,2.71,0,0,0,25.52,61.27Z"/><path class="cls-4" d="M31.69,60A2.72,2.72,0,1,0,34,63.12,2.72,2.72,0,0,0,31.69,60Z"/><path class="cls-4" d="M39.44,60a2.72,2.72,0,1,0,3.11,2.27A2.73,2.73,0,0,0,39.44,60Z"/><path class="cls-5" d="M46.8,57.61a2.72,2.72,0,1,0,3.66,1.19A2.71,2.71,0,0,0,46.8,57.61Z"/><circle class="cls-5" cx="54.99" cy="54.99" r="2.72"/><path class="cls-5" d="M62.46,49.27a2.72,2.72,0,1,0-3.66,1.19A2.71,2.71,0,0,0,62.46,49.27Z"/><path class="cls-6" d="M63.65,37.31a2.74,2.74,0,0,0-3.65,3,2.64,2.64,0,0,0,1.4,1.92,2.73,2.73,0,1,0,2.25-5Z"/><path class="cls-6" d="M62.27,28.58a2.72,2.72,0,1,0,3.11,2.26A2.72,2.72,0,0,0,62.27,28.58Z"/><path class="cls-6" d="M57.61,24.33a2.72,2.72,0,1,0,1.19-3.66A2.71,2.71,0,0,0,57.61,24.33Z"/><path class="cls-1" d="M29.1,16.45a1.8,1.8,0,1,0-2.27-1.16A1.8,1.8,0,0,0,29.1,16.45Z"/><path class="cls-2" d="M16.18,21.78a1.8,1.8,0,1,0,2.52-.4A1.81,1.81,0,0,0,16.18,21.78Z"/><path class="cls-2" d="M11.78,35.81A1.81,1.81,0,1,0,13.58,34,1.81,1.81,0,0,0,11.78,35.81Z"/><path class="cls-3" d="M16.86,47.22a1.8,1.8,0,1,0,2.52.4A1.8,1.8,0,0,0,16.86,47.22Z"/><path class="cls-4" d="M30.72,57.1a1.8,1.8,0,1,0-2.28,1.16A1.81,1.81,0,0,0,30.72,57.1Z"/><path class="cls-4" d="M44.3,55.84a1.8,1.8,0,1,0-1.16,2.27A1.8,1.8,0,0,0,44.3,55.84Z"/><path class="cls-5" d="M55,49.35a1.8,1.8,0,1,0-2.52.4A1.81,1.81,0,0,0,55,49.35Z"/><path class="cls-6" d="M55.74,35.32a1.81,1.81,0,1,0,1.81-1.8A1.81,1.81,0,0,0,55.74,35.32Z"/><path class="cls-6" d="M54.27,23.91a1.8,1.8,0,1,0-2.52-.4A1.81,1.81,0,0,0,54.27,23.91Z"/><path class="cls-7" d="M40.41,14a1.8,1.8,0,1,0,2.28-1.16A1.81,1.81,0,0,0,40.41,14Z"/><path class="cls-7" d="M35.56,12.93A3.06,3.06,0,1,0,38.62,16,3.06,3.06,0,0,0,35.56,12.93Z"/><path class="cls-1" d="M22.26,17.25a3.05,3.05,0,1,0,4.27.68A3.06,3.06,0,0,0,22.26,17.25Z"/><path class="cls-2" d="M17.89,26.61a3.05,3.05,0,1,0,2,3.85A3.06,3.06,0,0,0,17.89,26.61Z"/><path class="cls-2" d="M16,38.71a3.05,3.05,0,1,0,3.85,2A3.05,3.05,0,0,0,16,38.71Z"/><circle class="cls-3" cx="24.06" cy="51.41" r="3.05" transform="translate(-4.41 2.31) rotate(-5.03)"/><path class="cls-4" d="M35.56,52.09a3.06,3.06,0,1,0,3.06,3.06A3.06,3.06,0,0,0,35.56,52.09Z"/><path class="cls-5" d="M48.87,53.88a3.05,3.05,0,1,0-4.27-.68A3.05,3.05,0,0,0,48.87,53.88Z"/><path class="cls-5" d="M53.24,44.52a3.05,3.05,0,1,0-2-3.85A3.06,3.06,0,0,0,53.24,44.52Z"/><path class="cls-6" d="M55.13,32.42a3.05,3.05,0,1,0-3.85-2A3.05,3.05,0,0,0,55.13,32.42Z"/><path class="cls-7" d="M45.28,22.19a3.05,3.05,0,1,0-.68-4.26A3.05,3.05,0,0,0,45.28,22.19Z"/><path class="cls-6" d="M69.33,33.76a1.81,1.81,0,1,0,1.8,1.8A1.81,1.81,0,0,0,69.33,33.76Z"/><path class="cls-6" d="M68.23,26.85A1.8,1.8,0,1,0,66,25.69,1.81,1.81,0,0,0,68.23,26.85Z"/><path class="cls-7" d="M63.94,17.18a1.8,1.8,0,1,0-2.52-.4A1.8,1.8,0,0,0,63.94,17.18Z"/><path class="cls-7" d="M54.35,9.71A1.8,1.8,0,1,0,54,7.19,1.8,1.8,0,0,0,54.35,9.71Z"/><path class="cls-7" d="M45.44,5.17A1.8,1.8,0,1,0,44.28,2.9,1.79,1.79,0,0,0,45.44,5.17Z"/><path class="cls-1" d="M35.56,3.61a1.81,1.81,0,1,0-1.8-1.81A1.81,1.81,0,0,0,35.56,3.61Z"/><path class="cls-1" d="M25.69,5.17A1.8,1.8,0,1,0,23.42,4,1.8,1.8,0,0,0,25.69,5.17Z"/><path class="cls-1" d="M16.78,9.71a1.8,1.8,0,0,0,.4-2.52,1.8,1.8,0,1,0-.4,2.52Z"/><path class="cls-2" d="M7.19,17.18a1.8,1.8,0,1,0-.4-2.52A1.81,1.81,0,0,0,7.19,17.18Z"/><path class="cls-2" d="M4,23.42a1.8,1.8,0,1,0,1.16,2.27A1.8,1.8,0,0,0,4,23.42Z"/><path class="cls-3" d="M3.61,35.56A1.81,1.81,0,1,0,1.8,37.37,1.81,1.81,0,0,0,3.61,35.56Z"/><path class="cls-3" d="M2.9,44.28a1.8,1.8,0,1,0,2.27,1.16A1.8,1.8,0,0,0,2.9,44.28Z"/><path class="cls-3" d="M7.19,54a1.8,1.8,0,1,0,2.52.4A1.8,1.8,0,0,0,7.19,54Z"/><path class="cls-4" d="M16.78,61.42a1.8,1.8,0,1,0,.4,2.52A1.8,1.8,0,0,0,16.78,61.42Z"/><path class="cls-4" d="M25.69,66a1.8,1.8,0,1,0,1.16,2.27A1.79,1.79,0,0,0,25.69,66Z"/><path class="cls-4" d="M35.56,67.52a1.81,1.81,0,1,0,1.81,1.81A1.81,1.81,0,0,0,35.56,67.52Z"/><path class="cls-5" d="M45.44,66a1.8,1.8,0,1,0,2.27,1.16A1.8,1.8,0,0,0,45.44,66Z"/><path class="cls-5" d="M54.35,61.42a1.8,1.8,0,0,0-.4,2.52,1.8,1.8,0,1,0,.4-2.52Z"/><path class="cls-5" d="M63.94,54a1.8,1.8,0,1,0,.4,2.52A1.81,1.81,0,0,0,63.94,54Z"/><path class="cls-6" d="M68.23,44.28a1.8,1.8,0,1,0,1.16,2.27A1.8,1.8,0,0,0,68.23,44.28Z"/><path class="cls-7" d="M56.91,18.07a2.72,2.72,0,1,0-3.85,0A2.71,2.71,0,0,0,56.91,18.07Z"/><path class="cls-7" d="M49.27,8.67a2.72,2.72,0,1,0,1.19,3.66A2.71,2.71,0,0,0,49.27,8.67Z"/><path class="cls-7" d="M39.44,11.13A2.72,2.72,0,1,0,37.17,8,2.72,2.72,0,0,0,39.44,11.13Z"/><path class="cls-1" d="M31.69,11.13a2.72,2.72,0,1,0-3.11-2.27A2.73,2.73,0,0,0,31.69,11.13Z"/><path class="cls-1" d="M24.33,13.52a2.72,2.72,0,1,0-3.66-1.19A2.71,2.71,0,0,0,24.33,13.52Z"/><path class="cls-1" d="M18.07,18.07a2.72,2.72,0,1,0-3.85,0A2.73,2.73,0,0,0,18.07,18.07Z"/><path class="cls-2" d="M8.67,21.86a2.72,2.72,0,1,0,3.66-1.19A2.71,2.71,0,0,0,8.67,21.86Z"/><path class="cls-2" d="M8,34a2.72,2.72,0,1,0-2.26-3.12A2.73,2.73,0,0,0,8,34Z"/><path class="cls-3" d="M8.86,42.55a2.72,2.72,0,1,0-3.11-2.26A2.72,2.72,0,0,0,8.86,42.55Z"/><path class="cls-3" d="M13.52,46.8a2.72,2.72,0,1,0-1.19,3.66A2.71,2.71,0,0,0,13.52,46.8Z"/><circle class="cls-3" cx="16.14" cy="54.99" r="2.72"/><path class="cls-4" d="M25.52,61.27a2.72,2.72,0,1,0-3.66,1.19A2.71,2.71,0,0,0,25.52,61.27Z"/><path class="cls-4" d="M31.69,60A2.72,2.72,0,1,0,34,63.12,2.72,2.72,0,0,0,31.69,60Z"/><path class="cls-4" d="M39.44,60a2.72,2.72,0,1,0,3.11,2.27A2.73,2.73,0,0,0,39.44,60Z"/><path class="cls-5" d="M46.8,57.61a2.72,2.72,0,1,0,3.66,1.19A2.71,2.71,0,0,0,46.8,57.61Z"/><circle class="cls-5" cx="54.99" cy="54.99" r="2.72"/><path class="cls-5" d="M62.46,49.27a2.72,2.72,0,1,0-3.66,1.19A2.71,2.71,0,0,0,62.46,49.27Z"/><path class="cls-6" d="M63.65,37.31a2.74,2.74,0,0,0-3.65,3,2.64,2.64,0,0,0,1.4,1.92,2.73,2.73,0,1,0,2.25-5Z"/><path class="cls-6" d="M62.27,28.58a2.72,2.72,0,1,0,3.11,2.26A2.72,2.72,0,0,0,62.27,28.58Z"/><path class="cls-6" d="M57.61,24.33a2.72,2.72,0,1,0,1.19-3.66A2.71,2.71,0,0,0,57.61,24.33Z"/></g></g></svg>