<svg id="Layer_1" data-name="Layer 1" xmlns="http://www.w3.org/2000/svg" xmlns:xlink="http://www.w3.org/1999/xlink" viewBox="0 0 46 38"><defs><style>.cls-1,.cls-2,.cls-3{fill:none;stroke-linecap:square;stroke-miterlimit:10;stroke-width:2px;}.cls-1{stroke:url(#linear-gradient);}.cls-2{stroke:url(#linear-gradient-2);}.cls-3{stroke:url(#linear-gradient-3);}</style><linearGradient id="linear-gradient" x1="24" y1="5" x2="24" y2="30" gradientUnits="userSpaceOnUse"><stop offset="0" stop-color="#934d8d"/><stop offset="1" stop-color="#704e95"/></linearGradient><linearGradient id="linear-gradient-2" x1="24" y1="33" x2="24" y2="43" xlink:href="#linear-gradient"/><linearGradient id="linear-gradient-3" x1="24.44" y1="8.2" x2="24.44" y2="21.8" xlink:href="#linear-gradient"/></defs><title>icon-training</title><path class="cls-1" d="M6,29V10a4,4,0,0,1,4-4H38a4,4,0,0,1,4,4V29" transform="translate(-1 -5)"/><path class="cls-2" d="M31,34v3H17V34H2v1a7,7,0,0,0,7,7H39a7,7,0,0,0,7-7V34Z" transform="translate(-1 -5)"/><polygon class="cls-3" points="20 10 20 20 28 15 20 10"/></svg>