<svg xmlns:dc="http://purl.org/dc/elements/1.1/" xmlns:cc="http://creativecommons.org/ns#" xmlns:rdf="http://www.w3.org/1999/02/22-rdf-syntax-ns#" xmlns:svg="http://www.w3.org/2000/svg" xmlns="http://www.w3.org/2000/svg" xmlns:sodipodi="http://sodipodi.sourceforge.net/DTD/sodipodi-0.dtd" xmlns:inkscape="http://www.inkscape.org/namespaces/inkscape" version="1.1" x="0px" y="0px" viewBox="0 0 100 100"><g transform="translate(0,-952.36218)"><g><path d="m 46,972.3622 -18,19.28121 0,-0.2812 -20,0 0,21.99999 20,0 0,-0.2813 18,19.2813 0,-60 z" style="opacity:1;fill:none;stroke:#000000;stroke-width:4;stroke-linecap:round;stroke-linejoin:round;stroke-miterlimit:4;stroke-opacity:1;stroke-dasharray:none"></path><path d="m 80,1027.3622 c 7.33905,-5.9935 12,-14.9688 12,-25 0,-10.03118 -4.66095,-19.00648 -12,-25" style="opacity:1;fill:none;stroke:#000000;stroke-width:4;stroke-linecap:round;stroke-linejoin:round;stroke-miterlimit:4;stroke-opacity:1;stroke-dasharray:none"></path><path d="m 74,1020.3622 c 6.0721,-4.1804 10,-10.6828 10,-18 0,-7.31727 -3.9279,-13.81963 -10,-18" style="opacity:1;fill:none;stroke:#000000;stroke-width:4;stroke-linecap:round;stroke-linejoin:round;stroke-miterlimit:4;stroke-opacity:1;stroke-dasharray:none"></path><path d="m 67,1015.3622 c 5.018886,-3.6896 8,-8.1629 8,-12.9999 0,-4.83733 -2.981114,-9.31049 -8,-13.00009" style="opacity:1;fill:none;stroke:#000000;stroke-width:3.99999976000000010;stroke-linecap:round;stroke-linejoin:round;stroke-miterlimit:4;stroke-opacity:1;stroke-dasharray:none"></path></g></g></svg>