<svg xmlns="http://www.w3.org/2000/svg" xmlns:xlink="http://www.w3.org/1999/xlink" version="1.1" x="0px" y="0px" viewBox="0 0 24 24" style="enable-background:new 0 0 24 24;" xml:space="preserve"><g><path d="M18.918,0.68H5.082c-1.734,0-3.145,1.411-3.145,3.145v16.352c0,1.734,1.411,3.145,3.145,3.145h8.315   c0.473,0,0.926-0.176,1.275-0.496l6.779-6.214c0.389-0.357,0.612-0.864,0.612-1.391V3.824C22.063,2.09,20.652,0.68,18.918,0.68z    M14.516,21.262v-2.973c0-1.04,0.846-1.887,1.887-1.887h3.415L14.516,21.262z M20.805,15.145h-4.402   c-1.734,0-3.145,1.411-3.145,3.145v3.773H5.082c-1.04,0-1.887-0.846-1.887-1.887V3.824c0-1.04,0.846-1.887,1.887-1.887h13.836   c1.04,0,1.887,0.846,1.887,1.887V15.145z"></path><rect x="5.711" y="5.082" width="10.063" height="1.258"></rect><rect x="5.711" y="18.289" width="5.031" height="1.258"></rect><rect x="5.711" y="13.887" width="7.547" height="1.258"></rect><rect x="5.711" y="9.484" width="12.578" height="1.258"></rect></g></svg>