<?xml version="1.0" encoding="utf-8"?>
<!-- Generator: Adobe Illustrator 21.0.2, SVG Export Plug-In . SVG Version: 6.00 Build 0)  -->
<svg version="1.1"
	 id="Layer_1" xmlns:cc="http://creativecommons.org/ns#" xmlns:dc="http://purl.org/dc/elements/1.1/" xmlns:inkscape="http://www.inkscape.org/namespaces/inkscape" xmlns:rdf="http://www.w3.org/1999/02/22-rdf-syntax-ns#" xmlns:sodipodi="http://sodipodi.sourceforge.net/DTD/sodipodi-0.dtd" xmlns:svg="http://www.w3.org/2000/svg"
	 xmlns="http://www.w3.org/2000/svg" xmlns:xlink="http://www.w3.org/1999/xlink" x="0px" y="0px" viewBox="0 0 100 100"
	 style="enable-background:new 0 0 100 100;" xml:space="preserve">
<style type="text/css">
	.st0{fill:#FFFFFF;}
</style>
<g transform="translate(0,-952.36218)">
	<path class="st0" d="M19,983.4c-10.5,0-19,8.5-19,19c0,10.5,8.5,19,19,19h19c1.7,0,3-1.3,3-3c0-1.7-1.3-3-3-3c0,0-0.1,0-0.1,0H19
		c-7.3,0-13-5.7-13-13c0-7.3,5.7-13,13-13h21c7.3,0,13,5.7,13,13c0,1.7,1.3,3,3,3c1.7,0,3-1.3,3-3c0,0,0-0.1,0-0.1
		c0-10.5-8.5-19-19-19C40,983.4,19,983.4,19,983.4z M61.8,983.4c-1.7,0.1-3,1.5-2.9,3.1c0.1,1.7,1.5,3,3.1,2.9l0,0h19
		c7.3,0,13,5.7,13,13c0,7.3-5.7,13-13,13H60c-7.3,0-13-5.7-13-13c0-1.7-1.3-3-3-3c-1.7,0-3,1.3-3,3c0,0,0,0.1,0,0.1
		c0,10.5,8.5,19,19,19h21c10.5,0,19-8.5,19-19c0-10.5-8.5-19-19-19H62C61.9,983.4,61.9,983.4,61.8,983.4z"/>
</g>
</svg>
