<svg id="Layer_1" xmlns="http://www.w3.org/2000/svg" viewBox="0 0 100 100"><style>.st0{fill:#fff}</style><path class="st0" d="M76.5 27.6c-2.2-.7-4.4-1-6.5-.9.2 1.2.4 2.4.4 3.6 1.7 0 3.4.2 5 .8 8.1 2.6 12.6 11.4 9.9 19.5-1.1 3.3-3.2 6-5.8 7.9-.4.3-.9.6-1.3.8-1.1.6-2.2 1.1-3.4 1.4-.6.2-1.1.3-1.7.4-2.3.4-4.8.2-7.2-.6-2.4-.8-4.5-2.1-6.2-3.8-.4-.4-.8-.8-1.2-1.3.6-.2 1.1-.3 1.7-.4 2.4-.4 4.9-.2 7.3.6 2.4.8 4.5 2.1 6.2 3.8 1.3-.3 2.5-.7 3.6-1.3-2.2-2.6-5.2-4.7-8.7-5.9-3.4-1.1-7.1-1.2-10.5-.4-.5.1-1 .3-1.5.4-.9.3-1.7.7-2.6 1.1-.2.1-.5.3-.7.4.1.2.2.5.3.7.4.8.9 1.6 1.4 2.4.3.4.6.8 1 1.2 2.3 2.7 5.3 4.7 8.7 5.9 3.5 1.1 7.1 1.2 10.5.4.5-.1 1-.3 1.5-.4 1.1-.4 2.2-.9 3.3-1.5.5-.2.9-.5 1.3-.8 3.4-2.3 6.1-5.7 7.5-9.9 3.2-10.1-2.3-20.9-12.3-24.1z"/><path class="st0" d="M77.3 65.2c1.1 3.1 1.2 6.5.1 9.8-2.6 8.2-11.4 12.6-19.5 10-1.7-.5-3.2-1.3-4.5-2.3-.4-.3-.8-.6-1.2-1-.9-.8-1.7-1.8-2.4-2.8l-.9-1.5c-1.1-2.1-1.7-4.6-1.7-7.1 0-1.6.3-3.2.8-4.8.3-.8.6-1.6 1-2.3l.9-1.5.9 1.5c1.9 3.7 2.2 7.9.9 11.8-.3.8-.6 1.6-1 2.3.7 1.1 1.5 2.1 2.4 3 .8-1.3 1.5-2.7 2-4.2 1.6-4.8 1.2-10-1.1-14.5-.2-.5-.5-1-.8-1.4-.3-.4-.6-.9-.9-1.3-.7-1-1.5-1.9-2.4-2.7-.9.8-1.7 1.7-2.4 2.7-.3.4-.6.8-.9 1.3-.8 1.3-1.5 2.7-2 4.2-.6 1.9-.9 3.9-.9 5.9 0 3.7 1 7.2 2.9 10.1.3.4.6.9.9 1.3.7 1 1.5 1.8 2.4 2.6.4.4.8.7 1.2 1 1.7 1.3 3.7 2.4 5.8 3.1 10 3.2 20.8-2.2 24-12.2 1.4-4.2 1.2-8.5-.2-12.4-1.2.6-2.3 1-3.4 1.4z"/><path class="st0" d="M46.2 82.6c-3.9 2.9-9.1 4-14.1 2.4-3.9-1.3-7.1-4-9-7.7-1.9-3.7-2.2-7.9-.9-11.8 0-.1.1-.2.1-.2.2-.5.4-1 .6-1.4.5-1.1 1.2-2.2 1.9-3.2.4-.5.8-.9 1.2-1.3 3.4-3.5 8.5-5.2 13.5-4.4.6.1 1.1.2 1.7.4-.4.5-.7.9-1.2 1.3-1.1 1.2-2.5 2.1-4 2.9-3 1.5-6.3 2-9.5 1.5-.9 1-1.6 2-2.1 3.2 4.5 1.1 9.1.6 13.3-1.5 2.3-1.2 4.3-2.8 5.9-4.7.3-.4.7-.8 1-1.2.7-1 1.3-2 1.8-3.1-1-.6-2.1-1.1-3.3-1.5-.1 0-.1 0-.2-.1-.4-.1-.9-.3-1.3-.4-7.3-1.8-14.8.8-19.3 6.2-.3.4-.7.8-1 1.2-.7 1-1.3 2-1.8 3.1-.2.5-.4.9-.6 1.4-.1.2-.1.4-.2.6-1.6 4.8-1.2 10 1.2 14.5 2.3 4.5 6.3 7.9 11.1 9.5 6.2 2 12.8.6 17.6-3.1-.9-.7-1.7-1.6-2.4-2.6z"/><path class="st0" d="M20 58.4c-2-1.4-3.7-3.4-4.9-5.7-1.9-3.7-2.2-7.9-.9-11.8 2.1-6.6 8.3-10.8 15-10.7.5 0 1 0 1.5.1 1 .1 2 .3 3 .7.2.1.4.1.6.2.6.2 1.1.4 1.6.7 4.5 2.3 7.6 6.6 8.3 11.4.1.6.1 1.1.2 1.7-.5-.2-1.1-.4-1.6-.7-2.9-1.5-5.3-3.8-6.8-6.8-.8-1.5-1.3-3.1-1.5-4.7-.4-.2-.8-.3-1.2-.5-.8-.3-1.7-.5-2.5-.6.2 2.5.9 5 2 7.3 2.1 4.1 5.6 7.3 9.8 9 .4.2.8.3 1.3.5.1 0 .1 0 .2.1 1.2.4 2.3.6 3.5.7.2-1.2.4-2.4.4-3.6 0-.5 0-1-.1-1.6-.5-7.1-5-13.6-11.9-16.3-.4-.2-.8-.3-1.3-.5-.1 0-.1 0-.2-.1-1.2-.4-2.3-.6-3.5-.7-.5-.1-1-.1-1.6-.1-8.3-.3-16.1 4.9-18.8 13.2-1.6 4.8-1.2 10 1.1 14.5 1.5 2.9 3.6 5.4 6.3 7.1.7-.8 1.3-1.8 2-2.8z"/><path class="st0" d="M35 25.8c2.6-8.1 11.4-12.6 19.5-10 5 1.6 8.6 5.5 10 10.2.2.5.3 1 .4 1.5.2 1.2.3 2.4.3 3.7 0 .6-.1 1.2-.2 1.7-.1.8-.3 1.6-.6 2.4-1.3 3.9-4 7.1-7.7 9-.5.3-1.1.5-1.6.7 0-.6.1-1.2.2-1.7.1-.8.3-1.6.6-2.4 1.3-4.1 4.2-7.2 7.7-9 .1-1.3.1-2.6-.2-3.9-5 2-9.2 6.2-11 11.8-.5 1.5-.8 3-.9 4.6 0 .5-.1.9-.1 1.4v.2c0 1.2.1 2.4.4 3.6 1.2-.1 2.4-.4 3.5-.7.5-.2 1-.3 1.5-.5s1-.4 1.5-.7c4.5-2.3 7.9-6.2 9.5-11.1.5-1.5.8-3 .9-4.6 0-.5.1-1 0-1.6 0-1.2-.1-2.4-.4-3.6-.1-.5-.2-1-.4-1.5-1.7-5.9-6.2-10.8-12.4-12.8-10-3.3-20.8 2.2-24 12.2-.1.2-.1.4-.2.6 1.2.2 2.4.4 3.5.8.2-.2.2-.2.2-.3z"/></svg>