<svg xmlns="http://www.w3.org/2000/svg" viewBox="0 0 3209.05 1718.69"><title>Asset 3</title><g id="Layer_2" data-name="Layer 2"><g id="Layer_1-2" data-name="Layer 1"><rect x="1173.98" width="1001.79" height="1479.82" rx="12.25" style="fill:#7858c6"/><path d="M1174,1467.82a12,12,0,0,0,12,12h977.79a12,12,0,0,0,12-12V1293.9H1174Z" style="fill:#906adb"/><rect x="820.6" y="646.16" width="642.08" height="72.25" rx="13.74" transform="translate(-148.07 1007.1) rotate(-45)" style="fill:#27bcc4"/><path d="M953,867.71l-247-8.39s-8.33,41.33-3.37,95.09,35.63,128.21,28.19,158.82-141.41,258.89-145.55,295.29c33.92.83,83.56,0,83.56,0s60.39-86,99.26-141.44,81.06-100.91,87.68-141.44c16.54,72,22.34,76.07,19,134.79s-19.85,148.39-19.85,148.39H933s42.68-163.24,41-252.57S953,867.71,953,867.71Z" style="fill:#ffc04d"/><rect x="2642.17" y="1200.45" width="403.01" height="279.37" rx="12.08" style="fill:#906adb"/><path d="M1156.54,616.3s-106.28-1.43-118.07-17.46S953.91,478.61,918.62,467.05,809.83,419.9,768.07,433c0,0-37.65,1.78-54.36,39.38s-20,68.71-10.8,109.65,15.85,109.26,15.85,137.75-12.55,139.59-12.55,139.59,76.2,40.94,139.69,36.76S953,867.71,953,867.71V749.82l159-20.36-3-66.19,2.44-1.88Zm-209.1,49.27c-6.24-6.24-3.32-57.64-3.32-57.64l58.47,58.89S953.69,671.82,947.44,665.57Z" style="fill:#55a3ea"/><path d="M2989.53,1185.65c-12.54-2.75-31.57-11.11-36-18.94-10.88-19.29-18.65-66.51-18.65-66.51l-39.18,18.4s15.33,58.53,29.19,74.37c6.56,7.48,22.91,7.85,33.6,7.85H3004S3002.06,1188.4,2989.53,1185.65Z" style="fill:#ffd2cc"/><path d="M2470.88,1418.51l55.72,5.36s48.77-194,58.41-209.52,174.16-11.29,174.16-11.29-152.19-95.34-213.28-95.88S2470.88,1418.51,2470.88,1418.51Z" style="fill:#ce4163"/><path d="M2635.49,1013.12s1.86,16.86-11,28-52.17-12-89.81-17.11-62.44-1.71-86.39,36.78-137.71,329.32-137.71,329.32l56.86,18.73S2488.9,1144.23,2518,1132.26s186.94,67.08,232.27,70.5,70.14-22.24,88.1-70.14,9.79-148.13,9.79-148.13Z" style="fill:#e2506c"/><path d="M430.88,1664.06c277.78,47.52,427.64-65.79,555.56-76.75s223,109.65,449.56,127.92,233.92-122.1,354.53-117.7,203.73,138.16,403.2,119.34,137-108.27,293.2-117.62S2674.38,1676.43,2821,1674s355-194.21,355-194.21H0S153.11,1616.55,430.88,1664.06Z" style="fill:#c6dbf6"/><path d="M2838.8,719.76c-61.93-41.41-192.33,7.55-192.33,7.55s-35.52-5.14-47.21,44.52-28,112.17-28,112.17l-54.92-81.21-37.39,39.15s71.63,144.31,96.28,145.48,65-40.32,65-40.32l-4.67,66s77.12,24,131.45,8.18,81.21-36.81,81.21-36.81l47.48,159.72,49.08-22.79S2913.59,929,2898.4,864.14,2864.37,736.86,2838.8,719.76Z" style="fill:#ffc04d"/><path d="M2672.06,513.36c-66,1.34-67.33,58.42-64.65,92.3s39.06,121.65,39.06,121.65,12.22,23.71,38.08,26.39,78.91-2.29,76.23-59.81S2738.06,512,2672.06,513.36Z" style="fill:#ffd2cc"/><path d="M918.62,250.85c-10.33-9-127.48,37.47-121.88,119.3,0,0-8.18,50-28.86,62.88,18.52.86,48.24-1.72,69.77,15.5s36.18,42.21,56.85,40.92,24.12-22.4,24.12-22.4S879.43,449,881.15,427.86s15.08-22,32.3-25.41,25.84-43.07,25.41-73.65S929,259.89,918.62,250.85Z" style="fill:#ffd2cc"/><path d="M2824.44,669.66c-16.49-15.77-15.06-52.33-17.21-77.42S2777.84,484.35,2708,474.67s-120.44-3.23-130.83,30.83,24.73,46.59,24.73,46.59-17.56,35.49-12.55,68.46,24.74,45.88,24,81.73-7.17,57.71-7.17,57.71,8.6-24.74,31.18-30.11,38.72-15.42,39.79-33-8.6-17.2-22.94-14.7-27.24-15.41-32.62-43.37-.76-84.44-.76-84.44,13.4,6.09,37.77,4.26,37.15-11.92,37.15-11.92,12.59,20.78,9.72,47.3-14.41,41.22-9.72,65.23,15.81,48.75,31.22,52c25.09-1.08,91-.36,126.89,26.88C2852.4,713,2840.93,685.43,2824.44,669.66Z" style="fill:#442761"/><path d="M917.15,181.46c-54.79-6.14-120.21,4.9-133.71,34.75s-8.17,55.2-8.17,55.2-11.45.41-16.36,20.44-17.17,76,22.08,92,76.46,4.91,82.59-2.86S866,358.5,866,358.5s-20.85-3.27-21.26-18,23.3-19.63,23.3-19.63,0-28.62,14.72-30.66,40.89-2.46,55.61-27S971.94,187.59,917.15,181.46Z" style="fill:#442761"/><path d="M2470.88,1418.51c-.88,16-19.33,34.19-48.79,36.2s-33.09,25.11-33.09,25.11h134.55a154.72,154.72,0,0,0,4.89-28.63,109.44,109.44,0,0,0-1.64-27.32Z" style="fill:#3c4787"/><path d="M2250.64,1403.86c-24.67-2.27-30,18.12-30,18.12l128.15,43.81s10.32-14.6,12.84-26.69,5.8-30.28,5.8-30.28-22.42-10.25-56.86-18.73C2292,1410.56,2275.32,1406.12,2250.64,1403.86Z" style="fill:#3c4787"/><path d="M2818.72,838.52a3,3,0,0,0-5.86,1.31l32.36,145.32a3,3,0,0,0,2.93,2.35,2.89,2.89,0,0,0,.65-.08,3,3,0,0,0,2.28-3.58Z" style="fill:#49395b"/><path d="M2644.69,785.46a3,3,0,0,0-5-3.28c-.54.82-13.12,20.33-16.52,42.16s9.24,55.13,14,67.65l.22.58c3.5,9.22,1,42.27-.18,54.22a3,3,0,0,0,2.67,3.3h.31a3,3,0,0,0,3-2.69c.19-1.81,4.55-44.54-.18-57l-.22-.58c-4.6-12.11-16.83-44.28-13.67-64.6C2632.26,804.74,2644.56,785.65,2644.69,785.46Z" style="fill:#49395b"/><path d="M2490.79,672.71a8.42,8.42,0,0,0-10-6.34L2428,678.27a8.41,8.41,0,0,0-6.34,10l22.78,101a8.39,8.39,0,0,0,10,6.33l52.79-11.9a8.39,8.39,0,0,0,6.33-10Z" style="fill:#906adb"/><path d="M2468.19,742c-17.54-7.51-26.31,10-19.63,28.82s30.35,71.13,30.35,71.13l37.39-39.15S2485.73,749.51,2468.19,742Z" style="fill:#ffd2cc"/><circle cx="1495.33" cy="321.85" r="193.15" transform="translate(210.39 1151.62) rotate(-45)" style="fill:#fff"/><path d="M2786.71,1153.86a3,3,0,0,0-4.15.87c-11.93,18.24-59.4,5.34-76.69-1.17a3,3,0,1,0-2.12,5.62c1.77.66,29.44,10.93,53.27,10.93,12.86,0,24.61-3,30.56-12.1A3,3,0,0,0,2786.71,1153.86Z" style="fill:#fff"/><path d="M2504,1043.42c-27.81,0-40.47,33.51-41,34.94a3,3,0,0,0,1.78,3.85,2.9,2.9,0,0,0,1,.19,3,3,0,0,0,2.81-2c.12-.31,11.7-31,35.37-31a3,3,0,0,0,0-6Z" style="fill:#fff"/><path d="M2666.26,681c21.68,21.82-7,39.09-20.75,45.86,5.37,15.17,25.59,23.29,25.59,23.29s5-19.79,15.72-30.36,10.26-31,3.26-37.5S2666.26,681,2666.26,681Z" style="fill:#edbdb9"/><circle cx="2461.33" cy="707.18" r="12.47" transform="translate(-81.5 403.39) rotate(-9.22)" style="fill:#fff"/><path d="M942.65,532.36a3,3,0,0,0-2.11,3.68c5.3,19.47.64,71.09.59,71.61a3,3,0,0,0,2.71,3.26l.28,0a3,3,0,0,0,3-2.73c.2-2.16,4.81-53.23-.77-73.74A3,3,0,0,0,942.65,532.36Z" style="fill:#fff"/><path d="M947,661.3c-.26,0-27-4.15-70.17-57-20.77-25.42-44-58.94-44.28-59.28a3,3,0,0,0-4.93,3.42c.23.34,23.65,34,44.57,59.65,44.66,54.68,72.84,59,74,59.16a2.6,2.6,0,0,0,.4,0,3,3,0,0,0,.39-6Z" style="fill:#fff"/><path d="M953,746.82c-.5,0-51.13.53-77.08-19.33-26.56-20.34-120.18-127.27-121.12-128.35a3,3,0,0,0-4.52,4c3.87,4.42,95,108.46,122,129.16C898,752,944.1,752.83,952,752.83h1.09a3,3,0,0,0,3-3A3.05,3.05,0,0,0,953,746.82Z" style="fill:#fff"/><path d="M1108.9,660.27l-106.41,3.55a3,3,0,0,0,.1,6h.1l106.41-3.55a3,3,0,0,0-.2-6Z" style="fill:#fff"/><path d="M876.58,967.58a3,3,0,0,0-2.86,3.13c3.27,72.68-20.61,153.27-20.85,154.07a3,3,0,0,0,2,3.74,3.24,3.24,0,0,0,.86.12,3,3,0,0,0,2.88-2.13c.24-.82,24.41-82.36,21.09-156.07A3,3,0,0,0,876.58,967.58Z" style="fill:#49395b"/><path d="M668.74,1408.52s-41.13.36-83.5,0c-16.58,34.75-4.24,71.3-4.24,71.3H686.54c-1.38-24.69-11.08-30.55-17.77-45.28S668.74,1408.52,668.74,1408.52Z" style="fill:#3c4787"/><path d="M981.18,1447c-27.16-5.07-46.64-11.38-48.18-38.15H854.84s-7.21,23.35-8.59,35.35-3.18,35.65-3.18,35.65H1022S1008.35,1452,981.18,1447Z" style="fill:#3c4787"/><path d="M1180.23,668.71c-34.15-10.91-71.23-5.44-71.23-5.44l3,66.19s38.84-12.69,68.2-21.68S1214.38,679.63,1180.23,668.71Z" style="fill:#ffd2cc"/><path d="M3197.05,140.91H2792.77a12,12,0,0,0-12,12v246.2a12,12,0,0,0,12,12h404.28a12,12,0,0,0,12-12V152.91A12,12,0,0,0,3197.05,140.91Z" style="fill:#27bcc4"/><path d="M2852.46,451.07a5.87,5.87,0,0,0,10,4.15l44.11-44.11L2852.46,357Z" style="fill:#27bcc4"/><path d="M3068.71,319.55h-87.52a5,5,0,0,0,0,10h87.52a5,5,0,0,0,0-10Z" style="fill:#fff"/><path d="M3029.19,221.63h-10a5,5,0,0,0,0,10h10a5,5,0,0,0,0-10Z" style="fill:#fff"/><path d="M2991.19,221.63h-10a5,5,0,0,0,0,10h10a5,5,0,0,0,0-10Z" style="fill:#fff"/><path d="M3105.19,221.63h-10a5,5,0,0,0,0,10h10a5,5,0,0,0,0-10Z" style="fill:#fff"/><path d="M3143.19,221.63h-10a5,5,0,0,0,0,10h10a5,5,0,0,0,0-10Z" style="fill:#fff"/><path d="M3067.19,221.63h-10a5,5,0,0,0,0,10h10a5,5,0,0,0,0-10Z" style="fill:#fff"/><path d="M3149,270.59H2981.19a5,5,0,0,0,0,10H3149a5,5,0,0,0,0-10Z" style="fill:#fff"/><path d="M2891.08,277.82H2867.7a38.83,38.83,0,0,0-38.25,31.62L2825,332.93a88.94,88.94,0,0,0,108.73,0l-4.42-23.44A38.83,38.83,0,0,0,2891.08,277.82Z" style="fill:#fff"/><path d="M211.23,1134.1s0,68.62,36.29,185.05C280.69,1425.53,417,1479.82,417,1479.82h43.4s26.8-44.79-12.06-180.38S211.23,1134.1,211.23,1134.1Z" style="fill:#906adb"/><circle cx="2875.87" cy="233.99" r="24.43" transform="translate(1004.5 2430.2) rotate(-54.22)" style="fill:#fff"/><rect x="2932.61" y="1252.62" width="71.39" height="191.5" rx="12" style="fill:#fff"/><path d="M560.12,978.91C510.59,963.1,504.26,1058,471.59,1039S483,850.33,343,885.11s12.64,262.43,17.91,327.78-39,90.64-19,161.26,74.83,105.67,74.83,105.67h54.81s61.13-41.38,73.78-140.46-21.08-158.62,14.75-205.26S609.66,994.72,560.12,978.91Z" style="fill:#27bcc4"/><path d="M364.93,945.66a3,3,0,1,0-5.25,2.89c.46.85,46.86,86.8,75.57,275.68,28.38,186.76,10.16,223.13,10,223.43a3,3,0,0,0,1.09,4.1,2.92,2.92,0,0,0,1.5.41,3,3,0,0,0,2.6-1.5c.82-1.41,19.71-36.72-9.26-227.34C412.29,1033.23,365.4,946.51,364.93,945.66Z" style="fill:#fff"/><path d="M913.45,402.45s-37.73,4.16-53.45-4.3-22.76,12.77-12.22,21.93,22.49,29.14,35.53,41.91a129.86,129.86,0,0,0,27.47,20.26s7.07-3.2,7.84-15.2C913.22,464.28,867.82,421.18,913.45,402.45Z" style="fill:#edbdb9"/><path d="M2321.5,284.39h-10a5,5,0,0,0,0,10h10a5,5,0,0,0,0-10Z" style="fill:#a2badb"/><path d="M2359.5,284.39h-10a5,5,0,0,0,0,10h10a5,5,0,0,0,0-10Z" style="fill:#a2badb"/><path d="M2397.5,284.39h-10a5,5,0,0,0,0,10h10a5,5,0,0,0,0-10Z" style="fill:#a2badb"/><path d="M2435.5,284.39h-10a5,5,0,0,0,0,10h10a5,5,0,0,0,0-10Z" style="fill:#a2badb"/><path d="M2207.5,284.39h-10a5,5,0,0,0,0,10h10a5,5,0,0,0,0-10Z" style="fill:#a2badb"/><path d="M2452.92,637a5,5,0,0,0-5,5v10a5,5,0,0,0,10,0V642A5,5,0,0,0,2452.92,637Z" style="fill:#a2badb"/><path d="M2245.5,284.39h-10a5,5,0,0,0,0,10h10a5,5,0,0,0,0-10Z" style="fill:#a2badb"/><path d="M2283.5,284.39h-10a5,5,0,0,0,0,10h10a5,5,0,0,0,0-10Z" style="fill:#a2badb"/><path d="M2452.92,333a5,5,0,0,0-5,5v10a5,5,0,1,0,10,0V338A5,5,0,0,0,2452.92,333Z" style="fill:#a2badb"/><path d="M2452.92,371a5,5,0,0,0-5,5v10a5,5,0,1,0,10,0V376A5,5,0,0,0,2452.92,371Z" style="fill:#a2badb"/><path d="M2452.92,599a5,5,0,0,0-5,5v10a5,5,0,0,0,10,0V604A5,5,0,0,0,2452.92,599Z" style="fill:#a2badb"/><path d="M2452.92,447a5,5,0,0,0-5,5v10a5,5,0,1,0,10,0V452A5,5,0,0,0,2452.92,447Z" style="fill:#a2badb"/><path d="M2452.92,295a5,5,0,0,0-5,5v10a5,5,0,1,0,10,0V300A5,5,0,0,0,2452.92,295Z" style="fill:#a2badb"/><path d="M2452.92,409a5,5,0,0,0-5,5v10a5,5,0,1,0,10,0V414A5,5,0,0,0,2452.92,409Z" style="fill:#a2badb"/><path d="M2452.92,485a5,5,0,0,0-5,5v10a5,5,0,1,0,10,0V490A5,5,0,0,0,2452.92,485Z" style="fill:#a2badb"/><path d="M2452.92,561a5,5,0,0,0-5,5v10a5,5,0,0,0,10,0V566A5,5,0,0,0,2452.92,561Z" style="fill:#a2badb"/><path d="M2452.92,523a5,5,0,0,0-5,5v10a5,5,0,0,0,10,0V528A5,5,0,0,0,2452.92,523Z" style="fill:#a2badb"/><circle cx="1674.88" cy="1386.86" r="63.99" transform="translate(-247.36 2403.52) rotate(-67.5)" style="fill:#7858c6"/><path d="M1865.32,333.35h-61.86a5,5,0,0,0,0,10h61.86a5,5,0,0,0,0-10Z" style="fill:#fff"/><path d="M1942,333.35h-10a5,5,0,0,0,0,10h10a5,5,0,0,0,0-10Z" style="fill:#fff"/><path d="M2018,333.35h-10a5,5,0,0,0,0,10h10a5,5,0,0,0,0-10Z" style="fill:#fff"/><path d="M1980,333.35h-10a5,5,0,0,0,0,10h10a5,5,0,0,0,0-10Z" style="fill:#fff"/><path d="M2031.78,235.43H1803.46a5,5,0,0,0,0,10h228.32a5,5,0,0,0,0-10Z" style="fill:#fff"/><path d="M1971.27,284.39H1803.46a5,5,0,0,0,0,10h167.81a5,5,0,0,0,0-10Z" style="fill:#fff"/><rect x="1801.87" y="414.65" width="229.91" height="156.47" rx="12" style="fill:#906adb"/><circle cx="1916.82" cy="492.89" r="28.83" transform="translate(-61.97 453.58) rotate(-13.28)" style="fill:#fff"/><rect x="1791" y="72.58" width="253.24" height="72.71" rx="12" style="fill:#fff"/><path d="M1491.78,903.05h-11.86a5.93,5.93,0,0,0,0,11.86h11.86a5.93,5.93,0,1,0,0-11.86Z" style="fill:#fff"/><path d="M1446.7,903.05h-11.87a5.93,5.93,0,1,0,0,11.86h11.87a5.93,5.93,0,1,0,0-11.86Z" style="fill:#fff"/><path d="M1536.87,903.05H1525a5.93,5.93,0,1,0,0,11.86h11.86a5.93,5.93,0,1,0,0-11.86Z" style="fill:#fff"/><path d="M1582,903.05h-11.87a5.93,5.93,0,1,0,0,11.86H1582a5.93,5.93,0,1,0,0-11.86Z" style="fill:#fff"/><path d="M1672.13,903.05h-11.86a5.93,5.93,0,0,0,0,11.86h11.86a5.93,5.93,0,1,0,0-11.86Z" style="fill:#fff"/><path d="M1627.05,903.05h-11.87a5.93,5.93,0,0,0,0,11.86h11.87a5.93,5.93,0,1,0,0-11.86Z" style="fill:#fff"/><path d="M1665.29,786.86H1434.83a5.94,5.94,0,0,0,0,11.87h230.46a5.94,5.94,0,0,0,0-11.87Z" style="fill:#fff"/><path d="M1756.47,786.86h-11.86a5.94,5.94,0,1,0,0,11.87h11.86a5.94,5.94,0,0,0,0-11.87Z" style="fill:#fff"/><path d="M1801.56,786.86h-11.87a5.94,5.94,0,0,0,0,11.87h11.87a5.94,5.94,0,0,0,0-11.87Z" style="fill:#fff"/><path d="M1882.93,786.86h-3.06a5.94,5.94,0,0,0,0,11.87h3.06a5.94,5.94,0,0,0,0-11.87Z" style="fill:#fff"/><path d="M1846.65,786.86h-11.87a5.94,5.94,0,0,0,0,11.87h11.87a5.94,5.94,0,0,0,0-11.87Z" style="fill:#fff"/><path d="M1947.09,845H1434.83a5.93,5.93,0,1,0,0,11.86h512.26a5.93,5.93,0,1,0,0-11.86Z" style="fill:#fff"/><rect x="1418.17" y="637.32" width="497.78" height="86.28" rx="18.33" style="fill:#ffc04d"/><path d="M1672.13,1143.78h-11.86a5.93,5.93,0,0,0,0,11.86h11.86a5.93,5.93,0,1,0,0-11.86Z" style="fill:#fff"/><path d="M1582,1143.78h-11.87a5.93,5.93,0,1,0,0,11.86H1582a5.93,5.93,0,0,0,0-11.86Z" style="fill:#fff"/><path d="M1627.05,1143.78h-11.87a5.93,5.93,0,0,0,0,11.86h11.87a5.93,5.93,0,0,0,0-11.86Z" style="fill:#fff"/><path d="M1536.87,1143.78H1525a5.93,5.93,0,1,0,0,11.86h11.86a5.93,5.93,0,0,0,0-11.86Z" style="fill:#fff"/><path d="M1491.78,1143.78h-11.86a5.93,5.93,0,0,0,0,11.86h11.86a5.93,5.93,0,1,0,0-11.86Z" style="fill:#fff"/><path d="M1446.7,1143.78h-11.87a5.93,5.93,0,1,0,0,11.86h11.87a5.93,5.93,0,0,0,0-11.86Z" style="fill:#fff"/><path d="M1942.66,1143.78h-11.87a5.93,5.93,0,0,0,0,11.86h11.87a5.93,5.93,0,0,0,0-11.86Z" style="fill:#fff"/><path d="M1852.48,1143.78h-11.86a5.93,5.93,0,1,0,0,11.86h11.86a5.93,5.93,0,1,0,0-11.86Z" style="fill:#fff"/><path d="M1897.57,1143.78h-11.86a5.93,5.93,0,1,0,0,11.86h11.86a5.93,5.93,0,0,0,0-11.86Z" style="fill:#fff"/><path d="M1807.4,1143.78h-11.87a5.93,5.93,0,0,0,0,11.86h11.87a5.93,5.93,0,0,0,0-11.86Z" style="fill:#fff"/><path d="M1717.22,1143.78h-11.86a5.93,5.93,0,1,0,0,11.86h11.86a5.93,5.93,0,0,0,0-11.86Z" style="fill:#fff"/><path d="M1762.31,1143.78h-11.87a5.93,5.93,0,0,0,0,11.86h11.87a5.93,5.93,0,0,0,0-11.86Z" style="fill:#fff"/><path d="M1568.41,1201.87H1434.83a5.93,5.93,0,1,0,0,11.86h133.58a5.93,5.93,0,0,0,0-11.86Z" style="fill:#fff"/><path d="M1882.93,1201.87H1643.16a5.93,5.93,0,1,0,0,11.86h239.77a5.93,5.93,0,0,0,0-11.86Z" style="fill:#fff"/><rect x="1418.17" y="1000.69" width="497.78" height="86.28" rx="18.33" style="fill:#55a3ea"/><path d="M947.66,1135.84a3,3,0,0,0-2.14,3.67c.06.2,5.22,20.39-.06,52.73a3,3,0,0,0,2.48,3.44,2.7,2.7,0,0,0,.49,0,3,3,0,0,0,3-2.52c5.5-33.71.16-54.37-.07-55.23A3,3,0,0,0,947.66,1135.84Z" style="fill:#49395b"/><path d="M1498.78,72.58c-137.67,0-249.27,111.61-249.27,249.27s111.6,249.27,249.27,249.27,249.27-111.6,249.27-249.27S1636.44,72.58,1498.78,72.58Zm0,425.83a176.56,176.56,0,1,1,176.55-176.56A176.56,176.56,0,0,1,1498.78,498.41Z" style="fill:#27bcc4"/></g></g></svg>