<svg xmlns="http://www.w3.org/2000/svg" viewBox="0 0 1549 869"><title>bg-network-particles</title><g id="lines"><line x1="48" y1="848" x2="89" y2="833" style="fill:none;stroke:#fff;stroke-miterlimit:10;opacity:0.1"/><line x1="136.5" y1="799.5" x2="90.5" y2="831.5" style="fill:none;stroke:#fff;stroke-miterlimit:10;opacity:0.1"/><line x1="48.5" y1="755.5" x2="48.5" y2="848.5" style="fill:none;stroke:#fff;stroke-miterlimit:10;opacity:0.1"/><line x1="49.5" y1="756.5" x2="90.5" y2="832.5" style="fill:none;stroke:#fff;stroke-miterlimit:10;opacity:0.1"/><line x1="49.5" y1="756.5" x2="134.5" y2="798.5" style="fill:none;stroke:#fff;stroke-miterlimit:10;opacity:0.1"/><line x1="117.5" y1="667.5" x2="134.5" y2="800.5" style="fill:none;stroke:#fff;stroke-miterlimit:10;opacity:0.1"/><line x1="171.5" y1="583.5" x2="114.5" y2="671.5" style="fill:none;stroke:#fff;stroke-miterlimit:10;opacity:0.1"/><line x1="205.5" y1="619.5" x2="114.5" y2="671.5" style="fill:none;stroke:#fff;stroke-miterlimit:10;opacity:0.1"/><line x1="49.5" y1="758.5" x2="116.5" y2="668.5" style="fill:none;stroke:#fff;stroke-miterlimit:10;opacity:0.1"/><line x1="90.5" y1="832.5" x2="116.5" y2="664.5" style="fill:none;stroke:#fff;stroke-miterlimit:10;opacity:0.1"/><line x1="47.5" y1="847.5" x2="135.5" y2="798.5" style="fill:none;stroke:#fff;stroke-miterlimit:10;opacity:0.1"/><line x1="150.5" y1="505.5" x2="205.5" y2="619.5" style="fill:none;stroke:#fff;stroke-miterlimit:10;opacity:0.1"/><line x1="116.5" y1="668.5" x2="150.5" y2="505.5" style="fill:none;stroke:#fff;stroke-miterlimit:10;opacity:0.1"/><line x1="171.5" y1="583.5" x2="150.5" y2="505.5" style="fill:none;stroke:#fff;stroke-miterlimit:10;opacity:0.1"/><line x1="205.5" y1="619.5" x2="173.5" y2="583.5" style="fill:none;stroke:#fff;stroke-miterlimit:10;opacity:0.1"/><line x1="151.5" y1="508.5" x2="132.5" y2="413.5" style="fill:none;stroke:#fff;stroke-miterlimit:10;opacity:0.1"/><line x1="258.5" y1="356.5" x2="150.5" y2="511.5" style="fill:none;stroke:#fff;stroke-miterlimit:10;opacity:0.1"/><line x1="87.5" y1="346.5" x2="150.5" y2="511.5" style="fill:none;stroke:#fff;stroke-miterlimit:10;opacity:0.1"/><line x1="132.5" y1="413.5" x2="88.5" y2="348.5" style="fill:none;stroke:#fff;stroke-miterlimit:10;opacity:0.1"/><line x1="23.5" y1="251.5" x2="88.5" y2="348.5" style="fill:none;stroke:#fff;stroke-miterlimit:10;opacity:0.1"/><line x1="6.5" y1="226.5" x2="93.5" y2="94.5" style="fill:none;stroke:#fff;stroke-miterlimit:10;opacity:0.1"/><line x1="133.5" y1="165.5" x2="91.5" y2="94.5" style="fill:none;stroke:#fff;stroke-miterlimit:10;opacity:0.1"/><line x1="208.5" y1="70.5" x2="202.5" y2="155.5" style="fill:none;stroke:#fff;stroke-miterlimit:10;opacity:0.1"/><line x1="135.5" y1="164.5" x2="202.5" y2="155.5" style="fill:none;stroke:#fff;stroke-miterlimit:10;opacity:0.1"/><line x1="91.5" y1="96.5" x2="208.5" y2="72.5" style="fill:none;stroke:#fff;stroke-miterlimit:10;opacity:0.1"/><line x1="133.5" y1="164.5" x2="208.5" y2="72.5" style="fill:none;stroke:#fff;stroke-miterlimit:10;opacity:0.1"/><line x1="91.5" y1="97.5" x2="202.5" y2="155.5" style="fill:none;stroke:#fff;stroke-miterlimit:10;opacity:0.1"/><line x1="8.5" y1="223.5" x2="23.5" y2="253.5" style="fill:none;stroke:#fff;stroke-miterlimit:10;opacity:0.1"/><line x1="134.5" y1="163.5" x2="23.5" y2="251.5" style="fill:none;stroke:#fff;stroke-miterlimit:10;opacity:0.1"/><line x1="216.5" y1="258.5" x2="134.5" y2="164.5" style="fill:none;stroke:#fff;stroke-miterlimit:10;opacity:0.1"/><line x1="202.5" y1="155.5" x2="216.5" y2="258.5" style="fill:none;stroke:#fff;stroke-miterlimit:10;opacity:0.1"/><line x1="8.5" y1="223.5" x2="134.5" y2="164.5" style="fill:none;stroke:#fff;stroke-miterlimit:10;opacity:0.1"/><line x1="216.5" y1="258.5" x2="87.5" y2="346.5" style="fill:none;stroke:#fff;stroke-miterlimit:10;opacity:0.1"/><line x1="258.5" y1="356.5" x2="87.5" y2="346.5" style="fill:none;stroke:#fff;stroke-miterlimit:10;opacity:0.1"/><line x1="216.5" y1="260.5" x2="259.5" y2="355.5" style="fill:none;stroke:#fff;stroke-miterlimit:10;opacity:0.1"/><line x1="383.5" y1="373.5" x2="329.5" y2="375.5" style="fill:none;stroke:#fff;stroke-miterlimit:10;opacity:0.1"/><line x1="259.5" y1="355.5" x2="331.5" y2="375.5" style="fill:none;stroke:#fff;stroke-miterlimit:10;opacity:0.1"/><line x1="216.5" y1="257.5" x2="331.5" y2="376.5" style="fill:none;stroke:#fff;stroke-miterlimit:10;opacity:0.1"/><line x1="133.5" y1="412.5" x2="259.5" y2="355.5" style="fill:none;stroke:#fff;stroke-miterlimit:10;opacity:0.1"/><line x1="216.5" y1="258.5" x2="133.5" y2="412.5" style="fill:none;stroke:#fff;stroke-miterlimit:10;opacity:0.1"/><line x1="331.5" y1="376.5" x2="478.5" y2="316.5" style="fill:none;stroke:#fff;stroke-miterlimit:10;opacity:0.1"/><line x1="384.5" y1="375.5" x2="477.5" y2="318.5" style="fill:none;stroke:#fff;stroke-miterlimit:10;opacity:0.1"/><line x1="554.5" y1="215.5" x2="476.5" y2="319.5" style="fill:none;stroke:#fff;stroke-miterlimit:10;opacity:0.1"/><line x1="471.5" y1="118.5" x2="554.5" y2="215.5" style="fill:none;stroke:#fff;stroke-miterlimit:10;opacity:0.1"/><line x1="370.5" y1="66.5" x2="472.5" y2="118.5" style="fill:none;stroke:#fff;stroke-miterlimit:10;opacity:0.1"/><line x1="208.5" y1="72.5" x2="370.5" y2="66.5" style="fill:none;stroke:#fff;stroke-miterlimit:10;opacity:0.1"/><line x1="471.5" y1="117.5" x2="603.5" y2="9.5" style="fill:none;stroke:#fff;stroke-miterlimit:10;opacity:0.1"/><line x1="624.5" y1="33.5" x2="472.5" y2="118.5" style="fill:none;stroke:#fff;stroke-miterlimit:10;opacity:0.1"/><line x1="603.5" y1="7.5" x2="624.5" y2="33.5" style="fill:none;stroke:#fff;stroke-miterlimit:10;opacity:0.1"/><line x1="634.5" y1="164.5" x2="624.5" y2="33.5" style="fill:none;stroke:#fff;stroke-miterlimit:10;opacity:0.1"/><line x1="553.5" y1="216.5" x2="634.5" y2="164.5" style="fill:none;stroke:#fff;stroke-miterlimit:10;opacity:0.1"/><line x1="472.5" y1="118.5" x2="634.5" y2="164.5" style="fill:none;stroke:#fff;stroke-miterlimit:10;opacity:0.1"/><line x1="714.5" y1="126.5" x2="634.5" y2="164.5" style="fill:none;stroke:#fff;stroke-miterlimit:10;opacity:0.1"/><line x1="624.5" y1="33.5" x2="726.5" y2="70.5" style="fill:none;stroke:#fff;stroke-miterlimit:10;opacity:0.1"/><line x1="780.5" y1="55.5" x2="726.5" y2="70.5" style="fill:none;stroke:#fff;stroke-miterlimit:10;opacity:0.1"/><line x1="624.5" y1="33.5" x2="780.5" y2="55.5" style="fill:none;stroke:#fff;stroke-miterlimit:10;opacity:0.1"/><line x1="603.5" y1="7.5" x2="780.5" y2="55.5" style="fill:none;stroke:#fff;stroke-miterlimit:10;opacity:0.1"/><line x1="623.5" y1="34.5" x2="714.5" y2="128.5" style="fill:none;stroke:#fff;stroke-miterlimit:10;opacity:0.1"/><line x1="726.5" y1="70.5" x2="634.5" y2="164.5" style="fill:none;stroke:#fff;stroke-miterlimit:10;opacity:0.1"/><line x1="729.5" y1="182.5" x2="634.5" y2="164.5" style="fill:none;stroke:#fff;stroke-miterlimit:10;opacity:0.1"/><line x1="726.5" y1="70.5" x2="729.5" y2="184.5" style="fill:none;stroke:#fff;stroke-miterlimit:10;opacity:0.1"/><line x1="780.5" y1="55.5" x2="729.5" y2="182.5" style="fill:none;stroke:#fff;stroke-miterlimit:10;opacity:0.1"/><line x1="714.5" y1="127.5" x2="692.5" y2="152.5" style="fill:none;stroke:#fff;stroke-miterlimit:10;opacity:0.1"/><line x1="634.5" y1="164.5" x2="692.5" y2="152.5" style="fill:none;stroke:#fff;stroke-miterlimit:10;opacity:0.1"/><line x1="729.5" y1="182.5" x2="692.5" y2="152.5" style="fill:none;stroke:#fff;stroke-miterlimit:10;opacity:0.1"/><line x1="726.5" y1="70.5" x2="692.5" y2="152.5" style="fill:none;stroke:#fff;stroke-miterlimit:10;opacity:0.1"/><line x1="714.5" y1="127.5" x2="726.5" y2="70.5" style="fill:none;stroke:#fff;stroke-miterlimit:10;opacity:0.1"/><line x1="780.5" y1="56.5" x2="713.5" y2="127.5" style="fill:none;stroke:#fff;stroke-miterlimit:10;opacity:0.1"/><line x1="605.5" y1="5.5" x2="634.5" y2="164.5" style="fill:none;stroke:#fff;stroke-miterlimit:10;opacity:0.1"/><line x1="553.5" y1="216.5" x2="692.5" y2="152.5" style="fill:none;stroke:#fff;stroke-miterlimit:10;opacity:0.1"/><line x1="624.5" y1="34.5" x2="692.5" y2="152.5" style="fill:none;stroke:#fff;stroke-miterlimit:10;opacity:0.1"/><line x1="714.5" y1="126.5" x2="729.5" y2="182.5" style="fill:none;stroke:#fff;stroke-miterlimit:10;opacity:0.1"/><line x1="692.5" y1="155.5" x2="792.5" y2="283.5" style="fill:none;stroke:#fff;stroke-miterlimit:10;opacity:0.1"/><line x1="729.5" y1="182.5" x2="792.5" y2="283.5" style="fill:none;stroke:#fff;stroke-miterlimit:10;opacity:0.1"/><line x1="714.5" y1="126.5" x2="792.5" y2="283.5" style="fill:none;stroke:#fff;stroke-miterlimit:10;opacity:0.1"/><line x1="907.5" y1="226.5" x2="728.5" y2="180.5" style="fill:none;stroke:#fff;stroke-miterlimit:10;opacity:0.1"/><line x1="554.5" y1="215.5" x2="729.5" y2="182.5" style="fill:none;stroke:#fff;stroke-miterlimit:10;opacity:0.1"/><line x1="792.5" y1="283.5" x2="907.5" y2="226.5" style="fill:none;stroke:#fff;stroke-miterlimit:10;opacity:0.1"/><line x1="939.5" y1="171.5" x2="907.5" y2="226.5" style="fill:none;stroke:#fff;stroke-miterlimit:10;opacity:0.1"/><line x1="792.5" y1="283.5" x2="939.5" y2="171.5" style="fill:none;stroke:#fff;stroke-miterlimit:10;opacity:0.1"/><line x1="806.5" y1="412.5" x2="792.5" y2="280.5" style="fill:none;stroke:#fff;stroke-miterlimit:10;opacity:0.1"/><line x1="767.5" y1="366.5" x2="792.5" y2="283.5" style="fill:none;stroke:#fff;stroke-miterlimit:10;opacity:0.1"/><line x1="934.5" y1="431.5" x2="767.5" y2="366.5" style="fill:none;stroke:#fff;stroke-miterlimit:10;opacity:0.1"/><line x1="708.5" y1="432.5" x2="767.5" y2="366.5" style="fill:none;stroke:#fff;stroke-miterlimit:10;opacity:0.1"/><line x1="806.5" y1="412.5" x2="767.5" y2="366.5" style="fill:none;stroke:#fff;stroke-miterlimit:10;opacity:0.1"/><line x1="624.5" y1="451.5" x2="708.5" y2="432.5" style="fill:none;stroke:#fff;stroke-miterlimit:10;opacity:0.1"/><line x1="806.5" y1="412.5" x2="707.5" y2="432.5" style="fill:none;stroke:#fff;stroke-miterlimit:10;opacity:0.1"/><line x1="933.5" y1="431.5" x2="806.5" y2="412.5" style="fill:none;stroke:#fff;stroke-miterlimit:10;opacity:0.1"/><line x1="850.5" y1="533.5" x2="806.5" y2="412.5" style="fill:none;stroke:#fff;stroke-miterlimit:10;opacity:0.1"/><line x1="933.5" y1="431.5" x2="850.5" y2="533.5" style="fill:none;stroke:#fff;stroke-miterlimit:10;opacity:0.1"/><line x1="708.5" y1="432.5" x2="850.5" y2="533.5" style="fill:none;stroke:#fff;stroke-miterlimit:10;opacity:0.1"/><line x1="806.5" y1="412.5" x2="750.5" y2="539.5" style="fill:none;stroke:#fff;stroke-miterlimit:10;opacity:0.1"/><line x1="657.5" y1="489.5" x2="624.5" y2="451.5" style="fill:none;stroke:#fff;stroke-miterlimit:10;opacity:0.1"/><line x1="708.5" y1="432.5" x2="657.5" y2="489.5" style="fill:none;stroke:#fff;stroke-miterlimit:10;opacity:0.1"/><line x1="750.5" y1="539.5" x2="708.5" y2="432.5" style="fill:none;stroke:#fff;stroke-miterlimit:10;opacity:0.1"/><line x1="657.5" y1="489.5" x2="750.5" y2="541.5" style="fill:none;stroke:#fff;stroke-miterlimit:10;opacity:0.1"/><line x1="624.5" y1="451.5" x2="750.5" y2="539.5" style="fill:none;stroke:#fff;stroke-miterlimit:10;opacity:0.1"/><line x1="850.5" y1="533.5" x2="750.5" y2="539.5" style="fill:none;stroke:#fff;stroke-miterlimit:10;opacity:0.1"/><line x1="736.5" y1="633.5" x2="850.5" y2="533.5" style="fill:none;stroke:#fff;stroke-miterlimit:10;opacity:0.1"/><line x1="750.5" y1="539.5" x2="736.5" y2="633.5" style="fill:none;stroke:#fff;stroke-miterlimit:10;opacity:0.1"/><line x1="657.5" y1="489.5" x2="736.5" y2="635.5" style="fill:none;stroke:#fff;stroke-miterlimit:10;opacity:0.1"/><line x1="558.5" y1="624.5" x2="657.5" y2="489.5" style="fill:none;stroke:#fff;stroke-miterlimit:10;opacity:0.1"/><line x1="736.5" y1="633.5" x2="559.5" y2="623.5" style="fill:none;stroke:#fff;stroke-miterlimit:10;opacity:0.1"/><line x1="521.5" y1="533.5" x2="559.5" y2="623.5" style="fill:none;stroke:#fff;stroke-miterlimit:10;opacity:0.1"/><line x1="657.5" y1="489.5" x2="521.5" y2="533.5" style="fill:none;stroke:#fff;stroke-miterlimit:10;opacity:0.1"/><line x1="623.5" y1="451.5" x2="521.5" y2="533.5" style="fill:none;stroke:#fff;stroke-miterlimit:10;opacity:0.1"/><line x1="736.5" y1="635.5" x2="746.5" y2="740.5" style="fill:none;stroke:#fff;stroke-miterlimit:10;opacity:0.1"/><line x1="910.5" y1="723.5" x2="746.5" y2="740.5" style="fill:none;stroke:#fff;stroke-miterlimit:10;opacity:0.1"/><line x1="625.5" y1="813.5" x2="746.5" y2="740.5" style="fill:none;stroke:#fff;stroke-miterlimit:10;opacity:0.1"/><line x1="472.5" y1="753.5" x2="625.5" y2="813.5" style="fill:none;stroke:#fff;stroke-miterlimit:10;opacity:0.1"/><line x1="559.5" y1="623.5" x2="472.5" y2="753.5" style="fill:none;stroke:#fff;stroke-miterlimit:10;opacity:0.1"/><line x1="388.5" y1="744.5" x2="472.5" y2="753.5" style="fill:none;stroke:#fff;stroke-miterlimit:10;opacity:0.1"/><line x1="451.5" y1="659.5" x2="472.5" y2="753.5" style="fill:none;stroke:#fff;stroke-miterlimit:10;opacity:0.1"/><line x1="388.5" y1="744.5" x2="451.5" y2="659.5" style="fill:none;stroke:#fff;stroke-miterlimit:10;opacity:0.1"/><line x1="436.5" y1="559.5" x2="388.5" y2="746.5" style="fill:none;stroke:#fff;stroke-miterlimit:10;opacity:0.1"/><line x1="451.5" y1="659.5" x2="436.5" y2="559.5" style="fill:none;stroke:#fff;stroke-miterlimit:10;opacity:0.1"/><line x1="559.5" y1="623.5" x2="436.5" y2="559.5" style="fill:none;stroke:#fff;stroke-miterlimit:10;opacity:0.1"/><line x1="451.5" y1="659.5" x2="559.5" y2="623.5" style="fill:none;stroke:#fff;stroke-miterlimit:10;opacity:0.1"/><line x1="521.5" y1="533.5" x2="451.5" y2="659.5" style="fill:none;stroke:#fff;stroke-miterlimit:10;opacity:0.1"/><line x1="436.5" y1="559.5" x2="522.5" y2="532.5" style="fill:none;stroke:#fff;stroke-miterlimit:10;opacity:0.1"/><line x1="907.5" y1="226.5" x2="1064.5" y2="296.5" style="fill:none;stroke:#fff;stroke-miterlimit:10;opacity:0.1"/><line x1="939.5" y1="171.5" x2="1064.5" y2="297.5" style="fill:none;stroke:#fff;stroke-miterlimit:10;opacity:0.1"/><line x1="1119.5" y1="239.5" x2="939.5" y2="171.5" style="fill:none;stroke:#fff;stroke-miterlimit:10;opacity:0.1"/><line x1="1064.5" y1="296.5" x2="1119.5" y2="239.5" style="fill:none;stroke:#fff;stroke-miterlimit:10;opacity:0.1"/><line x1="1190.5" y1="300.5" x2="1119.5" y2="239.5" style="fill:none;stroke:#fff;stroke-miterlimit:10;opacity:0.1"/><line x1="1139.5" y1="386.5" x2="1190.5" y2="300.5" style="fill:none;stroke:#fff;stroke-miterlimit:10;opacity:0.1"/><line x1="1065.5" y1="296.5" x2="1139.5" y2="386.5" style="fill:none;stroke:#fff;stroke-miterlimit:10;opacity:0.1"/><line x1="1119.5" y1="239.5" x2="1139.5" y2="386.5" style="fill:none;stroke:#fff;stroke-miterlimit:10;opacity:0.1"/><line x1="1064.5" y1="296.5" x2="1190.5" y2="300.5" style="fill:none;stroke:#fff;stroke-miterlimit:10;opacity:0.1"/><line x1="1178.5" y1="226.5" x2="1064.5" y2="297.5" style="fill:none;stroke:#fff;stroke-miterlimit:10;opacity:0.1"/><line x1="1190.5" y1="300.5" x2="1178.5" y2="226.5" style="fill:none;stroke:#fff;stroke-miterlimit:10;opacity:0.1"/><line x1="1224.5" y1="222.5" x2="1178.5" y2="226.5" style="fill:none;stroke:#fff;stroke-miterlimit:10;opacity:0.1"/><line x1="1119.5" y1="239.5" x2="1178.5" y2="226.5" style="fill:none;stroke:#fff;stroke-miterlimit:10;opacity:0.1"/><line x1="1065.5" y1="296.5" x2="1224.5" y2="224.5" style="fill:none;stroke:#fff;stroke-miterlimit:10;opacity:0.1"/><line x1="1189.5" y1="302.5" x2="1224.5" y2="224.5" style="fill:none;stroke:#fff;stroke-miterlimit:10;opacity:0.1"/><line x1="934.5" y1="431.5" x2="1031.5" y2="555.5" style="fill:none;stroke:#fff;stroke-miterlimit:10;opacity:0.1"/><line x1="1149.5" y1="697.5" x2="1031.5" y2="555.5" style="fill:none;stroke:#fff;stroke-miterlimit:10;opacity:0.1"/><line x1="1274.5" y1="515.5" x2="1306.5" y2="501.5" style="fill:none;stroke:#fff;stroke-miterlimit:10;opacity:0.1"/><line x1="1139.5" y1="386.5" x2="1274.5" y2="515.5" style="fill:none;stroke:#fff;stroke-miterlimit:10;opacity:0.1"/><line x1="934.5" y1="431.5" x2="1064.5" y2="297.5" style="fill:none;stroke:#fff;stroke-miterlimit:10;opacity:0.1"/><line x1="388.5" y1="744.5" x2="429.5" y2="862.5" style="fill:none;stroke:#fff;stroke-miterlimit:10;opacity:0.1"/><line x1="472.5" y1="753.5" x2="429.5" y2="866.5" style="fill:none;stroke:#fff;stroke-miterlimit:10;opacity:0.1"/><line x1="1354.5" y1="39.5" x2="1391.5" y2="217.5" style="fill:none;stroke:#fff;stroke-miterlimit:10;opacity:0.1"/><line x1="1409.5" y1="34.5" x2="1354.5" y2="39.5" style="fill:none;stroke:#fff;stroke-miterlimit:10;opacity:0.1"/><line x1="1426.5" y1="95.5" x2="1405.5" y2="34.5" style="fill:none;stroke:#fff;stroke-miterlimit:10;opacity:0.1"/><line x1="1354.5" y1="39.5" x2="1426.5" y2="95.5" style="fill:none;stroke:#fff;stroke-miterlimit:10;opacity:0.1"/><line x1="1391.5" y1="217.5" x2="1426.5" y2="95.5" style="fill:none;stroke:#fff;stroke-miterlimit:10;opacity:0.1"/><line x1="1224.5" y1="224.5" x2="1391.5" y2="217.5" style="fill:none;stroke:#fff;stroke-miterlimit:10;opacity:0.1"/><line x1="1274.5" y1="518.5" x2="1299.5" y2="616.5" style="fill:none;stroke:#fff;stroke-miterlimit:10;opacity:0.1"/><line x1="1148.5" y1="697.5" x2="1231.5" y2="678.5" style="fill:none;stroke:#fff;stroke-miterlimit:10;opacity:0.1"/><line x1="1299.5" y1="616.5" x2="1231.5" y2="678.5" style="fill:none;stroke:#fff;stroke-miterlimit:10;opacity:0.1"/><line x1="1148.5" y1="696.5" x2="1299.5" y2="616.5" style="fill:none;stroke:#fff;stroke-miterlimit:10;opacity:0.1"/><line x1="1306.5" y1="501.5" x2="1299.5" y2="616.5" style="fill:none;stroke:#fff;stroke-miterlimit:10;opacity:0.1"/><line x1="1484.5" y1="543.5" x2="1306.5" y2="501.5" style="fill:none;stroke:#fff;stroke-miterlimit:10;opacity:0.1"/><line x1="1539.5" y1="406.5" x2="1484.5" y2="543.5" style="fill:none;stroke:#fff;stroke-miterlimit:10;opacity:0.1"/><line x1="1547.5" y1="659.5" x2="1484.5" y2="543.5" style="fill:none;stroke:#fff;stroke-miterlimit:10;opacity:0.1"/><line x1="10.5" y1="32.5" x2="91.5" y2="97.5" style="fill:none;stroke:#fff;stroke-miterlimit:10;opacity:0.1"/></g><g id="dots"><circle cx="259" cy="356" r="8" style="fill:#00abf7"/><circle cx="134" cy="165" r="6" style="fill:#00abf7"/><circle cx="91.5" cy="96.5" r="4.5" style="fill:#00abf7"/><circle cx="208.5" cy="72.5" r="1.5" style="fill:#00abf7"/><circle cx="7" cy="224" r="7" style="fill:#00abf7"/><circle cx="23.5" cy="251.5" r="4.5" style="fill:#00abf7"/><circle cx="87.5" cy="346.5" r="4.5" style="fill:#00abf7"/><circle cx="133" cy="413" r="5" style="fill:#00abf7"/><circle cx="384" cy="374" r="5" style="fill:#00abf7"/><circle cx="331.5" cy="375.5" r="1.5" style="fill:#00abf7"/><circle cx="477" cy="319" r="4" style="fill:#00abf7"/><circle cx="555" cy="215" r="7" style="fill:#00abf7"/><circle cx="708" cy="432" r="8" style="fill:#00abf7"/><circle cx="624.5" cy="451.5" r="5.5" style="fill:#00abf7"/><circle cx="657.5" cy="489.5" r="4.5" style="fill:#00abf7"/><circle cx="714" cy="127" r="6" style="fill:#00abf7"/><circle cx="603" cy="8" r="8" style="fill:#00abf7"/><circle cx="624" cy="34" r="3" style="fill:#00abf7"/><circle cx="780" cy="56" r="8" style="fill:#00abf7"/><circle cx="939.5" cy="171.5" r="6.5" style="fill:#00abf7"/><circle cx="907.5" cy="226.5" r="4.5" style="fill:#00abf7"/><circle cx="793" cy="283" r="5" style="fill:#00abf7"/><circle cx="767.5" cy="366.5" r="2.5" style="fill:#00abf7"/><circle cx="934" cy="431" r="7" style="fill:#00abf7"/><circle cx="1190.5" cy="300.5" r="6.5" style="fill:#00abf7"/><circle cx="1224" cy="223" r="8" style="fill:#00abf7"/><circle cx="1178.5" cy="226.5" r="4.5" style="fill:#00abf7"/><circle cx="1119.5" cy="239.5" r="2.5" style="fill:#00abf7"/><circle cx="1065" cy="297" r="3" style="fill:#00abf7"/><circle cx="1139.5" cy="386.5" r="3.5" style="fill:#00abf7"/><circle cx="1426.5" cy="95.5" r="9.5" style="fill:#00abf7"/><circle cx="1354.5" cy="39.5" r="8.5" style="fill:#00abf7"/><circle cx="1409" cy="35" r="4" style="fill:#00abf7"/><circle cx="1540.5" cy="406.5" r="5.5" style="fill:#00abf7"/><circle cx="1484.5" cy="543.5" r="5.5" style="fill:#00abf7"/><circle cx="1547.5" cy="659.5" r="1.5" style="fill:#00abf7"/><circle cx="1149.5" cy="697.5" r="10.5" style="fill:#00abf7"/><circle cx="1299.5" cy="616.5" r="4.5" style="fill:#00abf7"/><circle cx="1274" cy="515" r="7" style="fill:#00abf7"/><circle cx="1306.5" cy="501.5" r="2.5" style="fill:#00abf7"/><circle cx="1232" cy="679" r="5" style="fill:#00abf7"/><circle cx="1031.5" cy="555.5" r="6.5" style="fill:#00abf7"/><circle cx="910" cy="724" r="7" style="fill:#00abf7"/><circle cx="151" cy="508" r="9" style="fill:#00abf7"/><circle cx="49.5" cy="756.5" r="5.5" style="fill:#00abf7"/><circle cx="48" cy="848" r="4" style="fill:#00abf7"/><circle cx="136" cy="799" r="8" style="fill:#00abf7"/><circle cx="205.5" cy="619.5" r="4.5" style="fill:#00abf7"/><circle cx="472.5" cy="753.5" r="8.5" style="fill:#00abf7"/><circle cx="388" cy="745" r="9" style="fill:#00abf7"/><circle cx="436" cy="560" r="6" style="fill:#00abf7"/><circle cx="429.5" cy="862.5" r="6.5" style="fill:#00abf7"/><circle cx="452" cy="660" r="2" style="fill:#00abf7"/><circle cx="559.5" cy="623.5" r="4.5" style="fill:#00abf7"/><circle cx="521.5" cy="533.5" r="3.5" style="fill:#00abf7"/><circle cx="750.5" cy="539.5" r="2.5" style="fill:#00abf7"/><circle cx="850.5" cy="533.5" r="3.5" style="fill:#00abf7"/><circle cx="806.5" cy="412.5" r="4.5" style="fill:#00abf7"/><circle cx="736" cy="634" r="6" style="fill:#00abf7"/><circle cx="746.5" cy="740.5" r="4.5" style="fill:#00abf7"/><circle cx="625.5" cy="813.5" r="6.5" style="fill:#00abf7"/><circle cx="472" cy="118" r="6" style="fill:#00abf7"/><circle cx="370" cy="66" r="2" style="fill:#00abf7"/><circle cx="634.5" cy="164.5" r="3.5" style="fill:#00abf7"/><circle cx="726.5" cy="70.5" r="2.5" style="fill:#00abf7"/><circle cx="692.5" cy="152.5" r="2.5" style="fill:#00abf7"/><circle cx="729" cy="183" r="3" style="fill:#00abf7"/><circle cx="10.5" cy="32.5" r="3.5" style="fill:#00abf7"/><circle cx="117" cy="668" r="3" style="fill:#00abf7"/><circle cx="171.5" cy="583.5" r="4.5" style="fill:#00abf7"/><circle cx="90.5" cy="832.5" r="1.5" style="fill:#00abf7"/><circle cx="216" cy="259" r="2.5" style="fill:#00abf7"/><circle cx="202.5" cy="155.5" r="2" style="fill:#00abf7"/><circle cx="1392" cy="218" r="2.5" style="fill:#00abf7"/></g></svg>