<svg xmlns="http://www.w3.org/2000/svg" viewBox="0 0 194.62 53.58"><defs><style>.cls-1{fill:#fff}</style></defs><g id="Layer_2" data-name="Layer 2"><g id="Logos"><path class="cls-1" d="M0 0v53.58h194.62V.02L0 0z"/><path fill="#234c92" d="M2.28 2.32h48.98V51.3H2.28z"/><path class="cls-1" d="M39.63 15.84a9.22 9.22 0 0 0-3.14-.45 10 10 0 0 1 .19 1.72 7.42 7.42 0 0 1 7.19 9.73 7.36 7.36 0 0 1-2.8 3.79 6.89 6.89 0 0 1-.64.4 7.18 7.18 0 0 1-1.64.68c-.26.07-.54.13-.81.18a7.45 7.45 0 0 1-6.46-2.1 8.39 8.39 0 0 1-.56-.63 7.43 7.43 0 0 1 7.28 1.92 6.56 6.56 0 0 0 1.76-.65 9.1 9.1 0 0 0-9.21-3q-.36.09-.72.21a9.38 9.38 0 0 0-1.23.51l-.34.19c.06.12.11.24.17.35a8.23 8.23 0 0 0 .69 1.14c.14.21.29.4.45.6a9.2 9.2 0 0 0 9.22 3c.25-.06.48-.13.72-.21a8.53 8.53 0 0 0 1.57-.7c.22-.12.43-.26.64-.4a9.14 9.14 0 0 0-2.3-16.28z"/><path class="cls-1" d="M40 33.91a7.43 7.43 0 0 1-11.5 8.36c-.2-.15-.39-.31-.58-.47a8.21 8.21 0 0 1-1.15-1.35c-.15-.24-.29-.48-.42-.73a7.39 7.39 0 0 1-.82-3.4A7.13 7.13 0 0 1 25.9 34a6.67 6.67 0 0 1 .45-1.1c.13-.25.28-.5.43-.73.15.23.29.48.42.73a7.36 7.36 0 0 1 .45 5.67 7.71 7.71 0 0 1-.46 1.1 6.8 6.8 0 0 0 1.15 1.46 9.2 9.2 0 0 0 .39-9 6.89 6.89 0 0 0-.39-.7c-.13-.21-.27-.42-.42-.62a10 10 0 0 0-1.15-1.28 8.7 8.7 0 0 0-1.15 1.28c-.15.2-.3.41-.43.62a9.4 9.4 0 0 0-.94 2 9.29 9.29 0 0 0-.45 2.82 9.18 9.18 0 0 0 1.39 4.86c.13.21.27.41.42.62A10.63 10.63 0 0 0 26.76 43a6.71 6.71 0 0 0 .58.48 9 9 0 0 0 2.8 1.52 9.15 9.15 0 0 0 11.44-11.79 10.13 10.13 0 0 1-1.58.7z"/><path class="cls-1" d="M25.05 42.27a7.45 7.45 0 0 1-6.76 1.13 7.44 7.44 0 0 1-4.78-9.4v-.12a7.1 7.1 0 0 1 .28-.69 7.43 7.43 0 0 1 .92-1.51 6.75 6.75 0 0 1 .57-.63 7.45 7.45 0 0 1 6.5-2.05 7.84 7.84 0 0 1 .81.18 8.27 8.27 0 0 1-.55.63 7.64 7.64 0 0 1-1.9 1.38 7.38 7.38 0 0 1-4.56.72 6.48 6.48 0 0 0-1 1.54 9.12 9.12 0 0 0 9.22-3c.17-.2.32-.39.47-.6a10.42 10.42 0 0 0 .85-1.49 8.84 8.84 0 0 0-1.57-.7h-.1l-.62-.17a9.17 9.17 0 0 0-9.23 3c-.16.19-.31.38-.46.59a8.71 8.71 0 0 0-.85 1.49 6 6 0 0 0-.28.7c0 .09-.07.18-.11.28a9.16 9.16 0 0 0 14.33 10 9.31 9.31 0 0 1-1.18-1.28z"/><path class="cls-1" d="M12.48 30.63a7.44 7.44 0 0 1 4.4-13.52 6.27 6.27 0 0 1 .74.05 7.42 7.42 0 0 1 1.44.31l.29.1a6.51 6.51 0 0 1 .76.34 7.44 7.44 0 0 1 4 5.49 8 8 0 0 1 .08.84 7.51 7.51 0 0 1-.77-.34 7.42 7.42 0 0 1-4-5.5l-.6-.22a6.56 6.56 0 0 0-1.19-.27 9.14 9.14 0 0 0 1 3.51 9 9 0 0 0 4.72 4.33L24 26a.38.38 0 0 1 .1 0 10.08 10.08 0 0 0 1.68.36 9.14 9.14 0 0 0 .19-1.71v-.76a9.16 9.16 0 0 0-5.7-7.84 5.31 5.31 0 0 0-.6-.22h-.1a8.56 8.56 0 0 0-1.68-.36l-.75-.06a9.19 9.19 0 0 0-9 6.33 9.07 9.07 0 0 0 .55 7 9.19 9.19 0 0 0 3 3.43 9.25 9.25 0 0 1 .79-1.54z"/><path class="cls-1" d="M19.71 15a7.42 7.42 0 0 1 14.17.12 6.38 6.38 0 0 1 .19.72 7.47 7.47 0 0 1 .14 1.77 8 8 0 0 1-.08.83 6.65 6.65 0 0 1-.28 1.15 7.44 7.44 0 0 1-3.69 4.34c-.25.13-.51.24-.76.34a6 6 0 0 1 .07-.84 8.55 8.55 0 0 1 .29-1.16 7.4 7.4 0 0 1 3.71-4.33 6.73 6.73 0 0 0-.08-1.85 9.19 9.19 0 0 0-5.7 7.85v.75a9.93 9.93 0 0 0 .18 1.71 9.78 9.78 0 0 0 1.64-.4l.7-.25a6.89 6.89 0 0 0 .73-.34 9.08 9.08 0 0 0 4.55-5.32 8.92 8.92 0 0 0 .42-2.19 6.26 6.26 0 0 0 0-.75 8.86 8.86 0 0 0-.18-1.71c0-.24-.11-.49-.18-.73a9.15 9.15 0 0 0-17.5-.28l-.09.28a10.19 10.19 0 0 1 1.69.36.49.49 0 0 1 .06-.07z"/><path fill="#060000" d="M53.55 2.31h138.79v48.98H53.55z"/><path class="cls-1" d="M62.41 17.16c0-4.33 0-5.11-.07-6a1.43 1.43 0 0 0-1.4-1.59 7.69 7.69 0 0 0-1.1-.08c-.13 0-.26-.05-.26-.16s.16-.23.52-.23c1.46 0 3.51.09 3.67.09.78 0 2-.09 3.54-.09 5.33 0 6.5 2.79 6.5 4.17 0 2.28-1.53 3.64-3.06 5 2.41.64 5.63 2.61 5.63 5.86 0 3-2.73 6.06-8.29 6.06-.74 0-4.06-.17-4.32-.17s-2.21.08-3.18.08c-.36 0-.52-.05-.52-.21s.06-.17.26-.17a5.36 5.36 0 0 0 1-.12c.65-.11.81-.72.94-1.52a55.33 55.33 0 0 0 .17-6zm2.6.61a.27.27 0 0 0 .22.31 15 15 0 0 0 2 .11c1.81 0 2.27-.06 3-.72a4 4 0 0 0 1.17-2.81c0-2.31-1.2-4.78-4.39-4.78a8.52 8.52 0 0 0-1.61.12c-.3.06-.39.14-.39.31zm0 2.95v6c.1 1.37.1 1.76 1.1 2.17a8.9 8.9 0 0 0 2.89.41c1.75 0 4.58-.81 4.58-3.95a6.33 6.33 0 0 0-3.15-5.55 6.08 6.08 0 0 0-2.69-.8H65.2c-.13 0-.19 0-.19.19zM80.48 17.16c0-4.33 0-5.11-.06-6S80.09 9.77 79 9.57a7.8 7.8 0 0 0-1.1-.08c-.13 0-.26-.05-.26-.16s.16-.23.52-.23c1.46 0 3.44.09 3.73.09s2.24-.09 3.22-.09c.36 0 .52.06.52.23s-.13.16-.26.16a6.35 6.35 0 0 0-.81.08c-.88.12-1.14.62-1.21 1.59s-.06 1.67-.06 6v3.89c0 4 1 5.72 2.44 6.86a7 7 0 0 0 4.9 1.53 7.34 7.34 0 0 0 5.1-2c1.5-1.58 1.89-4 1.89-6.81v-3.47c0-4.33 0-5.11-.07-6a1.43 1.43 0 0 0-1.4-1.59 7.69 7.69 0 0 0-1.1-.08c-.13 0-.26-.05-.26-.16s.17-.23.52-.23c1.46 0 3.25.09 3.45.09s1.75-.09 2.73-.09c.35 0 .51.06.51.23s-.13.16-.25.16a6.47 6.47 0 0 0-.82.08c-.87.17-1.13.62-1.2 1.59s-.06 1.67-.06 6v3c0 3-.39 6.34-3 8.31a10.62 10.62 0 0 1-6.7 2c-1.1 0-4.38-.11-6.69-2-1.59-1.3-2.83-3.25-2.83-7.3zM107.52 17.16c0-4.33 0-5.11-.07-6a1.43 1.43 0 0 0-1.4-1.59 7.8 7.8 0 0 0-1.1-.08c-.13 0-.26-.05-.26-.16s.17-.23.52-.23c1.46 0 3.51.09 3.67.09h8a9.13 9.13 0 0 0 1.44-.11c.19-.05.32-.17.45-.17s.19.12.19.25-.16.53-.26 1.31c0 .28-.09 1.5-.16 1.84 0 .13-.09.3-.26.3s-.23-.14-.23-.33a2.69 2.69 0 0 0-.29-1.06 2.63 2.63 0 0 0-2.21-.89l-5-.08c-.2 0-.3.08-.3.3v7.67c0 .17 0 .25.23.25h5.62c.78-.06 1.21-.14 1.5-.5.13-.14.22-.27.35-.27s.17.07.17.22-.17.63-.26 1.55c-.07.56-.13 1.67-.13 1.86s0 .53-.23.53a.22.22 0 0 1-.23-.25 4 4 0 0 0-.19-1 2 2 0 0 0-1.69-1c-.81-.08-4.35-.08-4.91-.08-.16 0-.23 0-.23.25v2.36a55.33 55.33 0 0 0 .17 6c.1.8.29 1.41 1.26 1.52.46.06 1.18.12 1.47.12s.26.08.26.17-.16.21-.52.21c-1.79 0-3.84-.08-4-.08s-2.21.08-3.18.08c-.36 0-.52-.05-.52-.21s.06-.17.26-.17a5.36 5.36 0 0 0 1-.12c.65-.11.82-.72 1-1.52a58.77 58.77 0 0 0 .16-6zM124.31 17.16c0-4.33 0-5.11-.07-6s-.32-1.39-1.39-1.59a7.83 7.83 0 0 0-1.11-.08c-.13 0-.26-.05-.26-.16s.17-.23.52-.23c1.47 0 3.51.09 3.67.09h8a9.13 9.13 0 0 0 1.44-.11c.19-.05.32-.17.45-.17s.2.12.2.25-.17.53-.26 1.31c0 .28-.1 1.5-.17 1.84 0 .13-.09.3-.26.3s-.22-.14-.22-.33a2.57 2.57 0 0 0-.3-1.06 2.61 2.61 0 0 0-2.2-.89l-5-.08c-.19 0-.29.08-.29.3v7.67c0 .17 0 .25.23.25h5.62c.77-.06 1.2-.14 1.49-.5.13-.14.23-.27.36-.27s.16.07.16.22-.16.63-.26 1.55c-.06.56-.13 1.67-.13 1.86s0 .53-.23.53-.22-.11-.22-.25a5.12 5.12 0 0 0-.19-1 2 2 0 0 0-1.7-1c-.81-.08-4.35-.08-4.9-.08-.17 0-.23 0-.23.25v2.36a58.77 58.77 0 0 0 .16 6c.1.8.3 1.41 1.27 1.52.46.06 1.17.12 1.46.12s.26.08.26.17-.16.21-.52.21c-1.79 0-3.83-.08-4-.08s-2.2.08-3.18.08c-.36 0-.52-.05-.52-.21s.07-.17.26-.17a5.58 5.58 0 0 0 1-.12c.65-.11.81-.72.94-1.52a58.77 58.77 0 0 0 .16-6zM143.56 22.05a55.33 55.33 0 0 0 .17 6c.1.8.29 1.41 1.27 1.52.46.06 1.17.12 1.46.12s.25.08.25.17-.15.21-.52.21c-1.78 0-3.83-.08-4-.08s-2.21.08-3.18.08c-.36 0-.52-.05-.52-.21s.06-.17.26-.17a5.36 5.36 0 0 0 1-.12c.65-.11.81-.72 1-1.52a58.77 58.77 0 0 0 .16-6v-4.89c0-4.33 0-5.11-.07-6s-.39-1.42-1.1-1.56a5.21 5.21 0 0 0-1-.11c-.13 0-.26-.05-.26-.16s.16-.23.52-.23c1.07 0 3.12.09 3.28.09s2.21-.09 3.19-.09c.35 0 .51.06.51.23s-.12.16-.26.16a6.52 6.52 0 0 0-.81.08c-.87.14-1.13.62-1.2 1.59s-.07 1.67-.07 6zM153.8 26.33c.07 2.27.39 3 1.27 3.22a8.25 8.25 0 0 0 1.62.17c.17 0 .26.05.26.17s-.19.21-.58.21c-1.85 0-3.15-.08-3.45-.08s-1.65.08-3.12.08c-.32 0-.51 0-.51-.21s.09-.17.26-.17a5.43 5.43 0 0 0 1.33-.17c.81-.2 1-1 1-3.53V10.11c0-1.09.09-1.39.35-1.39s.81.61 1.14.88c.49.48 5.33 5 10.33 9.53 3.22 2.94 6.76 6.34 7.79 7.25l-.35-14.1c0-1.81-.26-2.43-1.26-2.64a9.48 9.48 0 0 0-1.6-.15c-.23 0-.26-.08-.26-.19s.26-.2.65-.2c1.46 0 3 .09 3.38.09s1.43-.09 2.76-.09c.36 0 .59 0 .59.2s-.13.19-.36.19a3.43 3.43 0 0 0-.78.08c-1.07.2-1.2.82-1.2 2.48L173 28.33c0 1.83-.07 2-.29 2s-.65-.31-2.37-1.78c-.36-.28-5-4.36-8.48-7.53-3.77-3.47-7.44-7-8.48-8zM183.19 22.05a58.77 58.77 0 0 0 .16 6c.1.8.3 1.41 1.27 1.52.46.06 1.17.12 1.46.12s.26.08.26.17-.16.21-.52.21c-1.79 0-3.83-.08-4-.08s-2.21.08-3.19.08c-.36 0-.52-.05-.52-.21s.07-.17.26-.17a5.47 5.47 0 0 0 1-.12c.65-.11.81-.72.94-1.52a58.77 58.77 0 0 0 .16-6v-4.89c0-4.33 0-5.11-.07-6s-.38-1.42-1.1-1.56a5.21 5.21 0 0 0-1-.11c-.13 0-.25-.05-.25-.16s.16-.23.51-.23c1.08 0 3.12.09 3.29.09S184 9.1 185 9.1c.35 0 .52.06.52.23s-.13.16-.26.16a6.19 6.19 0 0 0-.81.08c-.88.14-1.14.62-1.21 1.59s-.06 1.67-.06 6zM59.87 42a3.62 3.62 0 0 1 2.31-3.11 2.63 2.63 0 0 1-.74-1.78c0-1 1.22-2.37 3.25-2.37a4.53 4.53 0 0 1 1.82.32.29.29 0 0 1 .2.32 11.56 11.56 0 0 1-.11 1.49c0 .19-.09.22-.15.22s-.09-.06-.09-.25a1.39 1.39 0 0 0-.47-1.09 2.23 2.23 0 0 0-1.51-.58 1.74 1.74 0 0 0-1.92 1.7c0 1 .82 1.84 2.39 3.3.51.48 2.37 2 2.86 2.31a3.57 3.57 0 0 0 .76-2.14.79.79 0 0 0-.29-.63 1.15 1.15 0 0 0-.73-.21c-.09 0-.19 0-.19-.09s.12-.09.24-.09c.37 0 1 0 1.82.09.22 0 .27.13.27.26a5.21 5.21 0 0 1-1.5 3A13.85 13.85 0 0 0 70.18 44a4.72 4.72 0 0 0 1.79.51c.14 0 .22 0 .22.08s-.13.1-.26.1h-1.48c-1.12 0-1.48-.1-3.14-1.22a5.48 5.48 0 0 1-3.77 1.39c-2.65 0-3.67-1.73-3.67-2.86zm7.05 1.22c-.85-.6-2.34-1.82-2.73-2.18a23.64 23.64 0 0 1-1.78-1.81A2.41 2.41 0 0 0 61 41.41a2.84 2.84 0 0 0 3 2.77 4.31 4.31 0 0 0 2.92-.95zM83.29 43.47a4.58 4.58 0 0 1-1.83-3.82 4.75 4.75 0 0 1 1.69-3.52 6.73 6.73 0 0 1 4.6-1.38 15.91 15.91 0 0 1 2.19.15c.58.09 1.06.17 1.54.2.17 0 .2.06.2.14s-.05.26-.08.72 0 1.14 0 1.33 0 .27-.14.27-.12-.09-.12-.27a1.67 1.67 0 0 0-.68-1.29 5.62 5.62 0 0 0-3-.73 5.12 5.12 0 0 0-3.48.94 4 4 0 0 0-1.35 3.37c0 2.46 2.22 4.72 5.44 4.72a3.93 3.93 0 0 0 2.63-.64 2.37 2.37 0 0 0 .56-1.09c0-.14.06-.19.15-.19s.11.09.11.19a10.47 10.47 0 0 1-.34 1.65c-.09.25-.12.27-.39.38a10 10 0 0 1-2.72.29 7.69 7.69 0 0 1-4.98-1.42zM102.25 34.75c3.39 0 5.93 1.83 5.93 4.84s-2.38 5.27-6 5.27c-4.14 0-5.86-2.75-5.86-5.07-.02-2.09 1.76-5.04 5.93-5.04zm.31 9.63c1.36 0 4.17-.68 4.17-4.43a4.49 4.49 0 0 0-4.59-4.77c-2.52 0-4.41 1.42-4.41 4.25a4.7 4.7 0 0 0 4.83 4.95zM126.54 44.51a3.61 3.61 0 0 1-1-.12c-.65-.18-.76-.91-.82-1.37l-1-7.92c0-.25-.08-.35-.19-.35s-.15.08-.21.19l-4.44 8.11-.28-.5-4.34-7.55c-.07-.15-.13-.2-.22-.2s-.13.07-.16.18l-1.08 8.41c-.07.49-.11 1-.61 1.07a1.72 1.72 0 0 1-.45 0c-.08 0-.15 0-.15.06s0 .06.06.08a.34.34 0 0 0 .19 0h2.67c.19 0 .28 0 .28-.12s-.06-.06-.13-.06a3.75 3.75 0 0 1-.57-.07.45.45 0 0 1-.39-.41v-.98l.57-5.65h.06c.17.34 1.86 3.44 2 3.67s1.38 2.36 1.77 3c.29.46.36.59.47.59s.13 0 .24-.23l.25-.46 3.7-6.7v.1l.66 6v.62a.45.45 0 0 1-.39.41 3.35 3.35 0 0 1-.58.06c-.06 0-.12 0-.12.07s.09.12.27.12c.56 0 1.27-.05 1.4-.05h2.24c.18 0 .31 0 .31-.12s.06.12-.01.12zM132.3 38.67v-2.79c0-.42-.15-.64-.65-.73a2.78 2.78 0 0 0-.51 0c-.06 0-.12 0-.12-.08s.08-.1.24-.1h3.61a4 4 0 0 1 2.81.74 2.08 2.08 0 0 1 .75 1.53c0 1.83-1.57 3.07-3.71 3.07a1.72 1.72 0 0 1-.32 0c-.08 0-.17 0-.17-.08s.09-.12.41-.12a2.36 2.36 0 0 0 2.61-2.1 2.5 2.5 0 0 0-.84-2 2.91 2.91 0 0 0-2.07-.65 2.2 2.2 0 0 0-.65.08c-.09 0-.12.12-.12.25v5.3c0 1.24 0 2.26.07 2.8 0 .38.15.66.59.71a6.68 6.68 0 0 0 .69.06c.08 0 .11 0 .11.07s-.07.11-.24.11h-3.3c-.17 0-.24 0-.24-.11s0-.07.12-.07a2.32 2.32 0 0 0 .45-.06c.3-.05.37-.33.44-.71.07-.54.07-1.56.07-2.8zM146.88 35.25c.18-.43.24-.5.33-.5s.16.06.34.46 2.59 5.79 3.51 7.79c.55 1.15 1 1.36 1.3 1.44a2.48 2.48 0 0 0 .6.08c.09 0 .15 0 .15.07s-.13.11-.3.11h-2.37c-.28 0-.45 0-.45-.09s0-.08.11-.09.18-.15.08-.35l-1.4-3.17a.13.13 0 0 0-.13-.07h-3.25a.16.16 0 0 0-.15.1l-.9 2.29a2.23 2.23 0 0 0-.21.86c0 .26.31.38.57.38h.15c.1 0 .15 0 .15.07s-.09.11-.23.11h-2.88c-.2 0-.29 0-.29-.11s.06-.07.14-.07h.44c.7-.08 1-.57 1.26-1.21zm1.57 5.16c.08 0 .08 0 .06-.09l-1.43-3.48c-.08-.2-.15-.2-.23 0l-1.33 3.48v.09zM160.22 42.93c0 1.06.18 1.39.58 1.5a4.33 4.33 0 0 0 .76.08c.07 0 .12 0 .12.07s-.09.11-.27.11h-3.05c-.15 0-.24 0-.24-.11s0-.07.12-.07a2.82 2.82 0 0 0 .62-.08c.38-.1.45-.47.45-1.65v-7.39c0-.51.05-.64.18-.64s.37.28.52.41 2.48 2.3 4.8 4.43c1.5 1.41 3.19 2.94 3.63 3.41l-.16-6.56c0-.84-.12-1.12-.59-1.23a4.76 4.76 0 0 0-.74-.06c-.11 0-.12 0-.12-.09s.12-.09.3-.09h2.85c.17 0 .28 0 .28.09s-.07.09-.17.09a1.42 1.42 0 0 0-.36 0c-.5.09-.56.37-.56 1.15v7.56c0 .85 0 .92-.14.92s-.3-.15-1.1-.83c-.17-.13-2.34-2-3.94-3.5-1.75-1.61-3.45-3.24-3.94-3.7zM180 41.34a2.42 2.42 0 0 0-.34-1.36c-.11-.2-2.13-3-2.66-3.71a3.77 3.77 0 0 0-1-1 1.53 1.53 0 0 0-.64-.2c-.08 0-.15 0-.15-.09s.06-.09.19-.09h2.76c.17 0 .2 0 .2.09s-.09.06-.22.11a.26.26 0 0 0-.2.24.92.92 0 0 0 .2.5c.24.37 2.5 3.7 2.77 4.08.29-.55 2.21-3.37 2.51-3.79a1.11 1.11 0 0 0 .25-.66c0-.19-.05-.33-.24-.37s-.23-.06-.23-.12.09-.08.25-.08H185.92c.1 0 .19 0 .19.08s-.07.1-.19.1a1.64 1.64 0 0 0-.7.18 2.65 2.65 0 0 0-.8.66 40.12 40.12 0 0 0-2.88 4.1 2.64 2.64 0 0 0-.23 1.29v1.11c0 .21 0 .75.05 1.29 0 .38.17.66.62.71a6.51 6.51 0 0 0 .68.06c.09 0 .12 0 .12.07s-.08.11-.24.11h-3.34c-.17 0-.24 0-.24-.11s0-.07.12-.07a2.32 2.32 0 0 0 .45-.06c.3-.05.44-.33.47-.71v-1.29z"/></g></g></svg>